# Blender 4.5.13 LTS
# www.blender.org
mtllib henry_lowpoly.mtl
o pCylinder6_lambert2_0
v 149.936295 0.008006 -0.104802
v 149.936295 0.024019 -0.104802
v 149.936295 0.016013 -0.090935
v 149.936295 0.000000 -0.090935
v 149.936295 0.008006 -0.077067
v 149.936295 0.024019 -0.077067
v 149.936295 0.032026 -0.090935
v 149.918915 0.024019 -0.104802
v 149.918915 0.016013 -0.090935
v 149.918915 0.008006 -0.104802
v 149.918915 0.032026 -0.090935
v 149.918915 0.024019 -0.077067
v 149.918915 0.008006 -0.077067
v 149.918915 0.000000 -0.090935
v 150.085785 0.008006 -0.104802
v 150.085785 0.016013 -0.090935
v 150.085785 0.024019 -0.104802
v 150.085785 0.000000 -0.090935
v 150.085785 0.008006 -0.077067
v 150.085785 0.024019 -0.077067
v 150.085785 0.032026 -0.090935
v 150.068420 0.024019 -0.104802
v 150.068420 0.016013 -0.090935
v 150.068420 0.008006 -0.104802
v 150.068420 0.032026 -0.090935
v 150.068420 0.024019 -0.077067
v 150.068420 0.008006 -0.077067
v 150.068420 0.000000 -0.090935
v 149.936295 0.008006 -0.209251
v 149.936295 0.016013 -0.195384
v 149.936295 0.024019 -0.209251
v 149.936295 0.000000 -0.195384
v 149.936295 0.008006 -0.181516
v 149.936295 0.024019 -0.181516
v 149.936295 0.032026 -0.195384
v 149.918915 0.024019 -0.209251
v 149.918915 0.016013 -0.195384
v 149.918915 0.008006 -0.209251
v 149.918915 0.032026 -0.195384
v 149.918915 0.024019 -0.181516
v 149.918915 0.008006 -0.181516
v 149.918915 0.000000 -0.195384
v 150.085785 0.008006 -0.209251
v 150.085785 0.016013 -0.195384
v 150.085785 0.024019 -0.209251
v 150.085785 0.000000 -0.195384
v 150.085785 0.008006 -0.181516
v 150.085785 0.024019 -0.181516
v 150.085785 0.032026 -0.195384
v 150.068420 0.024019 -0.209251
v 150.068420 0.016013 -0.195384
v 150.068420 0.008006 -0.209251
v 150.068420 0.032026 -0.195384
v 150.068420 0.024019 -0.181516
v 150.068420 0.008006 -0.181516
v 150.068420 0.000000 -0.195384
v 150.067688 0.032339 -0.210918
v 150.000000 0.032339 -0.143223
v 150.088455 0.032339 -0.179859
v 150.036636 0.032339 -0.231671
v 150.000000 0.032339 -0.238958
v 149.963364 0.032339 -0.231671
v 149.932312 0.032339 -0.210918
v 149.911545 0.032339 -0.179859
v 149.904266 0.032339 -0.143223
v 149.911545 0.032339 -0.106586
v 149.932312 0.032339 -0.075527
v 149.963364 0.032339 -0.054774
v 150.000000 0.032339 -0.047487
v 150.036636 0.032339 -0.054774
v 150.067688 0.032339 -0.075527
v 150.088455 0.032339 -0.106586
v 150.095734 0.032339 -0.143223
v 150.039444 0.248338 -0.159562
v 150.000000 0.248338 -0.143223
v 150.030197 0.248338 -0.173413
v 150.042694 0.248338 -0.143223
v 150.087662 0.239820 -0.179531
v 150.094879 0.239820 -0.143223
v 150.109573 0.227964 -0.097836
v 150.118607 0.227964 -0.143223
v 150.087662 0.239820 -0.106914
v 150.083862 0.227964 -0.059360
v 150.067093 0.239820 -0.076132
v 150.039444 0.248338 -0.126884
v 150.030197 0.248338 -0.113032
v 150.016342 0.248338 -0.103777
v 150.036316 0.239820 -0.055565
v 150.000000 0.227964 -0.024623
v 150.045380 0.227964 -0.033651
v 150.000000 0.239820 -0.048343
v 149.954620 0.227964 -0.033651
v 149.963684 0.239820 -0.055565
v 150.000000 0.248338 -0.100527
v 149.983658 0.248338 -0.103777
v 149.969803 0.248338 -0.113032
v 149.932907 0.239820 -0.076132
v 149.890427 0.227964 -0.097836
v 149.916138 0.227964 -0.059360
v 149.912338 0.239820 -0.106914
v 149.881393 0.227964 -0.143223
v 149.905121 0.239820 -0.143223
v 149.960556 0.248338 -0.126884
v 149.957306 0.248338 -0.143223
v 149.960556 0.248338 -0.159562
v 149.912338 0.239820 -0.179531
v 149.916138 0.227964 -0.227085
v 149.890427 0.227964 -0.188609
v 149.932907 0.239820 -0.210313
v 149.954620 0.227964 -0.252794
v 149.963684 0.239820 -0.230880
v 149.969803 0.248338 -0.173413
v 149.983658 0.248338 -0.182668
v 150.000000 0.248338 -0.185918
v 150.000000 0.239820 -0.238102
v 150.045380 0.227964 -0.252794
v 150.000000 0.227964 -0.261822
v 150.036316 0.239820 -0.230880
v 150.083862 0.227964 -0.227085
v 150.067093 0.239820 -0.210313
v 150.016342 0.248338 -0.182668
v 150.109573 0.227964 -0.188609
v 149.936295 0.024019 -0.104802
v 149.918915 0.008006 -0.104802
v 149.936295 0.008006 -0.104802
v 149.918915 0.024019 -0.104802
v 149.918915 0.000000 -0.090935
v 149.936295 0.000000 -0.090935
v 149.918915 0.008006 -0.077067
v 149.936295 0.008006 -0.077067
v 149.918915 0.024019 -0.077067
v 149.936295 0.024019 -0.077067
v 149.918915 0.032026 -0.090935
v 149.936295 0.032026 -0.090935
v 149.918915 0.024019 -0.104802
v 149.936295 0.024019 -0.104802
v 150.001907 0.015892 0.229842
v 150.010147 0.035309 0.198443
v 150.002289 0.033191 0.194566
v 150.009766 0.018173 0.233618
v 149.994156 0.018526 0.233618
v 149.994537 0.035661 0.198443
v 150.002594 0.078264 -0.007233
v 150.010162 0.071989 -0.034385
v 150.002274 0.068634 -0.031587
v 150.010452 0.082329 -0.008954
v 150.003006 0.077291 0.018124
v 149.994843 0.082610 -0.008743
v 149.995255 0.081785 0.017107
v 149.995438 0.089890 0.055007
v 150.003143 0.085461 0.056490
v 149.995392 0.086855 0.096616
v 150.003098 0.082847 0.094249
v 149.995056 0.073471 0.137754
v 150.002792 0.070571 0.134166
v 149.994766 0.046827 0.170654
v 150.002487 0.042516 0.168866
v 149.994537 0.035661 0.198443
v 150.002289 0.033191 0.194566
v 150.010376 0.046475 0.170654
v 150.010147 0.035309 0.198443
v 150.010666 0.073119 0.137754
v 150.010986 0.086503 0.096616
v 150.011032 0.089538 0.055007
v 150.010864 0.081518 0.016877
v 149.994553 0.072341 -0.034385
v 150.009766 0.018173 0.233618
v 150.010254 0.039897 0.206198
v 150.010147 0.035309 0.198443
v 150.009872 0.023088 0.241169
v 150.010452 0.082329 -0.008954
v 150.010315 0.079049 -0.039981
v 150.010162 0.071989 -0.034385
v 150.010559 0.090739 -0.012184
v 150.010864 0.081518 0.016877
v 150.010971 0.090238 0.014613
v 150.011032 0.089538 0.055007
v 150.011230 0.098044 0.052042
v 150.010986 0.086503 0.096616
v 150.011169 0.094166 0.101352
v 150.010666 0.073119 0.137754
v 150.010788 0.078567 0.144930
v 150.010376 0.046475 0.170654
v 150.010559 0.054743 0.174229
v 150.010147 0.035309 0.198443
v 150.010254 0.039897 0.206198
v 150.009872 0.023088 0.241169
v 150.002502 0.042367 0.210075
v 150.010254 0.039897 0.206198
v 150.002121 0.025722 0.244944
v 149.994644 0.040249 0.206198
v 149.994263 0.023440 0.241169
v 150.010559 0.090739 -0.012184
v 150.002594 0.082756 -0.042779
v 150.010315 0.079049 -0.039981
v 150.002808 0.095086 -0.013694
v 150.010971 0.090238 0.014613
v 150.003235 0.094732 0.013596
v 150.011230 0.098044 0.052042
v 150.003525 0.102473 0.050560
v 150.011169 0.094166 0.101352
v 150.003448 0.098174 0.103719
v 150.010788 0.078567 0.144930
v 150.003036 0.081467 0.148518
v 150.010559 0.054743 0.174229
v 150.002853 0.059053 0.176017
v 150.010254 0.039897 0.206198
v 150.002502 0.042367 0.210075
v 149.994965 0.055095 0.174229
v 149.994644 0.040249 0.206198
v 149.995178 0.078919 0.144930
v 149.995560 0.094518 0.101352
v 149.995621 0.098396 0.052042
v 149.995377 0.090505 0.014843
v 149.994949 0.091021 -0.011973
v 149.994720 0.079401 -0.039981
v 149.994263 0.023440 0.241169
v 149.994537 0.035661 0.198443
v 149.994644 0.040249 0.206198
v 149.994156 0.018526 0.233618
v 149.994949 0.091021 -0.011973
v 149.994553 0.072341 -0.034385
v 149.994720 0.079401 -0.039981
v 149.994843 0.082610 -0.008743
v 149.995377 0.090505 0.014843
v 149.995255 0.081785 0.017107
v 149.995621 0.098396 0.052042
v 149.995438 0.089890 0.055007
v 149.995560 0.094518 0.101352
v 149.995392 0.086855 0.096616
v 149.995178 0.078919 0.144930
v 149.995056 0.073471 0.137754
v 149.994965 0.055095 0.174229
v 149.994766 0.046827 0.170654
v 149.994644 0.040249 0.206198
v 149.994537 0.035661 0.198443
v 150.001907 0.015892 0.229842
v 150.080368 0.005648 0.235895
v 150.009766 0.018173 0.233618
v 150.001938 0.007408 0.235425
v 150.009766 0.018173 0.233618
v 150.080460 0.005957 0.250569
v 150.009872 0.023088 0.241169
v 150.080368 0.005648 0.235895
v 150.009872 0.023088 0.241169
v 150.002090 0.007781 0.253211
v 150.002121 0.025722 0.244944
v 150.080460 0.005957 0.250569
v 150.002121 0.025722 0.244944
v 149.923660 0.009543 0.252812
v 149.994263 0.023440 0.241169
v 150.002090 0.007781 0.253211
v 149.994263 0.023440 0.241169
v 149.923569 0.009234 0.238138
v 149.994156 0.018526 0.233618
v 149.923660 0.009543 0.252812
v 149.994156 0.018526 0.233618
v 150.001938 0.007408 0.235425
v 150.001907 0.015892 0.229842
v 149.923569 0.009234 0.238138
v 150.001938 0.007408 0.235425
v 150.080368 0.000342 0.215105
v 150.080368 0.005648 0.235895
v 150.001923 0.002081 0.213636
v 150.080368 0.005648 0.235895
v 150.080460 0.001412 0.265730
v 150.080460 0.005957 0.250569
v 150.080368 0.000342 0.215105
v 150.080460 0.005957 0.250569
v 150.002106 0.003377 0.275000
v 150.002090 0.007781 0.253211
v 150.080460 0.001412 0.265730
v 150.002090 0.007781 0.253211
v 149.923660 0.005114 0.273468
v 149.923660 0.009543 0.252812
v 150.002106 0.003377 0.275000
v 149.923660 0.009543 0.252812
v 149.923569 0.004044 0.222843
v 149.923569 0.009234 0.238138
v 149.923660 0.005114 0.273468
v 149.923569 0.009234 0.238138
v 150.001923 0.002081 0.213636
v 150.001938 0.007408 0.235425
v 149.923569 0.004044 0.222843
v 150.085785 0.024019 -0.104802
v 150.068420 0.008006 -0.104802
v 150.085785 0.008006 -0.104802
v 150.068420 0.024019 -0.104802
v 150.068420 0.000000 -0.090935
v 150.085785 0.000000 -0.090935
v 150.068420 0.008006 -0.077067
v 150.085785 0.008006 -0.077067
v 150.068420 0.024019 -0.077067
v 150.085785 0.024019 -0.077067
v 150.068420 0.032026 -0.090935
v 150.085785 0.032026 -0.090935
v 150.068420 0.024019 -0.104802
v 150.085785 0.024019 -0.104802
v 149.936295 0.024019 -0.209251
v 149.918915 0.008006 -0.209251
v 149.936295 0.008006 -0.209251
v 149.918915 0.024019 -0.209251
v 149.918915 0.000000 -0.195384
v 149.936295 0.000000 -0.195384
v 149.918915 0.008006 -0.181516
v 149.936295 0.008006 -0.181516
v 149.918915 0.024019 -0.181516
v 149.936295 0.024019 -0.181516
v 149.918915 0.032026 -0.195384
v 149.936295 0.032026 -0.195384
v 149.918915 0.024019 -0.209251
v 149.936295 0.024019 -0.209251
v 150.085785 0.024019 -0.209251
v 150.068420 0.008006 -0.209251
v 150.085785 0.008006 -0.209251
v 150.068420 0.024019 -0.209251
v 150.068420 0.000000 -0.195384
v 150.085785 0.000000 -0.195384
v 150.068420 0.008006 -0.181516
v 150.085785 0.008006 -0.181516
v 150.068420 0.024019 -0.181516
v 150.085785 0.024019 -0.181516
v 150.068420 0.032026 -0.195384
v 150.085785 0.032026 -0.195384
v 150.068420 0.024019 -0.209251
v 150.085785 0.024019 -0.209251
v 150.104050 0.042686 -0.186324
v 150.079636 0.140133 -0.222864
v 150.079636 0.042686 -0.222864
v 150.104050 0.140133 -0.186324
v 150.112625 0.042686 -0.143223
v 150.088455 0.032339 -0.179859
v 150.095734 0.032339 -0.143223
v 150.088455 0.032339 -0.106586
v 150.104050 0.042686 -0.100121
v 150.067688 0.032339 -0.075527
v 150.079636 0.042686 -0.063581
v 150.036636 0.032339 -0.054774
v 150.043106 0.042686 -0.039166
v 150.000000 0.032339 -0.047487
v 150.000000 0.042686 -0.030592
v 149.963364 0.032339 -0.054774
v 149.956894 0.042686 -0.039166
v 149.932312 0.032339 -0.075527
v 149.920364 0.042686 -0.063581
v 149.911545 0.032339 -0.106586
v 149.895950 0.042686 -0.100121
v 149.904266 0.032339 -0.143223
v 149.887375 0.042686 -0.143223
v 149.911545 0.032339 -0.179859
v 149.895950 0.042686 -0.186324
v 149.932312 0.032339 -0.210918
v 149.920364 0.042686 -0.222864
v 149.963364 0.032339 -0.231671
v 149.956894 0.042686 -0.247279
v 150.000000 0.032339 -0.238958
v 150.000000 0.042686 -0.255853
v 149.956894 0.140133 -0.247279
v 150.000000 0.140133 -0.255853
v 149.920364 0.140133 -0.222864
v 149.895950 0.140133 -0.186324
v 149.887375 0.140133 -0.143223
v 149.895950 0.140133 -0.100121
v 149.920364 0.140133 -0.063581
v 149.956894 0.140133 -0.039166
v 150.000000 0.140133 -0.030592
v 150.043106 0.140133 -0.039166
v 150.079636 0.140133 -0.063581
v 150.104050 0.140133 -0.100121
v 150.112625 0.140133 -0.143223
v 150.067688 0.032339 -0.210918
v 150.043106 0.042686 -0.247279
v 150.036636 0.032339 -0.231671
v 150.000000 0.042686 -0.255853
v 150.000000 0.032339 -0.238958
v 150.000000 0.140133 -0.255853
v 150.043106 0.140133 -0.247279
v 150.104050 0.140133 -0.186324
v 150.093185 0.144325 -0.236403
v 150.079636 0.140133 -0.222864
v 150.121750 0.144325 -0.193652
v 150.112625 0.140133 -0.143223
v 150.104050 0.140133 -0.100121
v 150.131775 0.144325 -0.143223
v 150.121750 0.144325 -0.092793
v 150.079636 0.140133 -0.063581
v 150.093185 0.144325 -0.050042
v 150.043106 0.140133 -0.039166
v 150.050430 0.144325 -0.021476
v 150.000000 0.140133 -0.030592
v 150.000000 0.144325 -0.011445
v 149.956894 0.140133 -0.039166
v 149.949570 0.144325 -0.021476
v 149.920364 0.140133 -0.063581
v 149.906815 0.144325 -0.050042
v 149.895950 0.140133 -0.100121
v 149.878250 0.144325 -0.092794
v 149.887375 0.140133 -0.143223
v 149.868225 0.144325 -0.143223
v 149.895950 0.140133 -0.186324
v 149.878250 0.144325 -0.193652
v 149.920364 0.140133 -0.222864
v 149.906815 0.144325 -0.236403
v 149.956894 0.140133 -0.247279
v 149.949570 0.144325 -0.264969
v 150.000000 0.140133 -0.255853
v 150.000000 0.144325 -0.275000
v 150.043106 0.140133 -0.247279
v 150.050430 0.144325 -0.264969
v 150.121750 0.144325 -0.193652
v 150.093185 0.159492 -0.236403
v 150.093185 0.144325 -0.236403
v 150.121750 0.159492 -0.193652
v 150.131775 0.144325 -0.143223
v 150.121750 0.144325 -0.092793
v 150.131775 0.159492 -0.143223
v 150.121750 0.159492 -0.092793
v 150.093185 0.144325 -0.050042
v 150.093185 0.159492 -0.050042
v 150.093185 0.144325 -0.236403
v 150.050430 0.159492 -0.264969
v 150.050430 0.144325 -0.264969
v 150.093185 0.159492 -0.236403
v 150.000000 0.159492 -0.275000
v 150.000000 0.144325 -0.275000
v 149.949570 0.159492 -0.264969
v 149.949570 0.144325 -0.264969
v 149.906815 0.159492 -0.236403
v 149.906815 0.144325 -0.236403
v 149.906815 0.144325 -0.236403
v 149.878250 0.159492 -0.193652
v 149.878250 0.144325 -0.193652
v 149.906815 0.159492 -0.236403
v 149.868225 0.159492 -0.143223
v 149.868225 0.144325 -0.143223
v 149.878250 0.159492 -0.092794
v 149.878250 0.144325 -0.092794
v 149.906815 0.159492 -0.050042
v 149.906815 0.144325 -0.050042
v 149.906815 0.144325 -0.050042
v 149.949570 0.159492 -0.021476
v 149.949570 0.144325 -0.021476
v 149.906815 0.159492 -0.050042
v 150.000000 0.159492 -0.011445
v 150.000000 0.144325 -0.011445
v 150.050430 0.159492 -0.021476
v 150.050430 0.144325 -0.021476
v 150.093185 0.159492 -0.050042
v 150.093185 0.144325 -0.050042
v 150.121750 0.159492 -0.193652
v 150.083862 0.161785 -0.227085
v 150.093185 0.159492 -0.236403
v 150.109573 0.161785 -0.188609
v 150.131775 0.159492 -0.143223
v 150.121750 0.159492 -0.092793
v 150.118607 0.161785 -0.143223
v 150.109573 0.161785 -0.097836
v 150.093185 0.159492 -0.050042
v 150.083862 0.161785 -0.059360
v 150.050430 0.159492 -0.021476
v 150.045380 0.161785 -0.033651
v 150.000000 0.159492 -0.011445
v 150.000000 0.161785 -0.024623
v 149.949570 0.159492 -0.021476
v 149.954620 0.161785 -0.033651
v 149.906815 0.159492 -0.050042
v 149.916138 0.161785 -0.059360
v 149.878250 0.159492 -0.092794
v 149.890427 0.161785 -0.097836
v 149.868225 0.159492 -0.143223
v 149.881393 0.161785 -0.143223
v 149.878250 0.159492 -0.193652
v 149.890427 0.161785 -0.188609
v 149.906815 0.159492 -0.236403
v 149.916138 0.161785 -0.227085
v 149.949570 0.159492 -0.264969
v 149.954620 0.161785 -0.252794
v 150.000000 0.159492 -0.275000
v 150.000000 0.161785 -0.261822
v 150.050430 0.159492 -0.264969
v 150.045380 0.161785 -0.252794
v 150.109573 0.161785 -0.188609
v 150.083862 0.227964 -0.227085
v 150.083862 0.161785 -0.227085
v 150.109573 0.227964 -0.188609
v 150.118607 0.161785 -0.143223
v 150.109573 0.161785 -0.097836
v 150.118607 0.227964 -0.143223
v 150.109573 0.227964 -0.097836
v 150.083862 0.161785 -0.059360
v 150.083862 0.227964 -0.059360
v 150.045380 0.161785 -0.033651
v 150.045380 0.227964 -0.033651
v 150.000000 0.161785 -0.024623
v 150.000000 0.227964 -0.024623
v 149.954620 0.161785 -0.033651
v 149.954620 0.227964 -0.033651
v 149.916138 0.161785 -0.059360
v 149.916138 0.227964 -0.059360
v 149.890427 0.161785 -0.097836
v 149.890427 0.227964 -0.097836
v 149.881393 0.161785 -0.143223
v 149.881393 0.227964 -0.143223
v 149.890427 0.161785 -0.188609
v 149.890427 0.227964 -0.188609
v 149.916138 0.161785 -0.227085
v 149.916138 0.227964 -0.227085
v 149.954620 0.161785 -0.252794
v 149.954620 0.227964 -0.252794
v 150.000000 0.161785 -0.261822
v 150.000000 0.227964 -0.261822
v 150.045380 0.227964 -0.252794
v 150.045380 0.161785 -0.252794
v 150.000000 0.227964 -0.261822
v 150.000000 0.161785 -0.261822
vn 0.2937 -0.4780 -0.8278
vn 0.2937 0.4779 -0.8278
vn 1.0000 -0.0000 -0.0000
vn 0.2937 -0.9559 0.0001
vn 0.2937 -0.4779 0.8278
vn 0.2937 0.4780 0.8278
vn 0.2937 0.9559 -0.0001
vn -0.2938 0.9559 0.0001
vn -0.2938 0.4780 -0.8278
vn -1.0000 -0.0000 -0.0000
vn -0.2938 -0.4779 -0.8278
vn -0.2938 0.4779 0.8278
vn -0.2938 -0.4780 0.8278
vn -0.2938 -0.9559 -0.0001
vn 0.2938 -0.9559 0.0001
vn 0.2938 -0.4780 -0.8278
vn 0.2938 0.4779 -0.8278
vn 0.2938 -0.4779 0.8278
vn 0.2938 0.4780 0.8278
vn 0.2938 0.9559 -0.0001
vn 0.0751 -0.9806 -0.1812
vn 0.1387 -0.9806 -0.1387
vn -0.0000 -1.0000 -0.0000
vn 0.1812 -0.9806 -0.0751
vn -0.0000 -0.9806 -0.1962
vn -0.0751 -0.9806 -0.1812
vn -0.1387 -0.9806 -0.1387
vn -0.1812 -0.9806 -0.0751
vn -0.1962 -0.9806 -0.0000
vn -0.1812 -0.9806 0.0751
vn -0.1387 -0.9806 0.1387
vn -0.0751 -0.9806 0.1812
vn -0.0000 -0.9806 0.1962
vn 0.0751 -0.9806 0.1812
vn 0.1387 -0.9806 0.1387
vn 0.1812 -0.9806 0.0751
vn 0.1962 -0.9806 -0.0000
vn 0.1350 0.9908 -0.0000
vn 0.1248 0.9908 -0.0516
vn -0.0000 1.0000 -0.0000
vn 0.0955 0.9908 -0.0955
vn 0.2833 0.9518 -0.1173
vn 0.3066 0.9518 -0.0000
vn 0.8962 0.2430 0.3712
vn 0.2833 0.9518 0.1173
vn 0.9700 0.2430 -0.0000
vn 0.6859 0.2430 0.6859
vn 0.2168 0.9518 0.2168
vn 0.1248 0.9908 0.0517
vn 0.0955 0.9908 0.0955
vn 0.1173 0.9518 0.2833
vn 0.0517 0.9908 0.1248
vn -0.0000 0.2430 0.9700
vn -0.0000 0.9518 0.3066
vn 0.3712 0.2430 0.8962
vn -0.3712 0.2430 0.8962
vn -0.1173 0.9518 0.2833
vn -0.0000 0.9908 0.1350
vn -0.0517 0.9908 0.1248
vn -0.2168 0.9518 0.2168
vn -0.0955 0.9908 0.0955
vn -0.8962 0.2430 0.3712
vn -0.2833 0.9518 0.1173
vn -0.6859 0.2430 0.6859
vn -0.9700 0.2430 -0.0000
vn -0.3066 0.9518 -0.0000
vn -0.1248 0.9908 0.0517
vn -0.1350 0.9908 -0.0000
vn -0.2833 0.9518 -0.1173
vn -0.1248 0.9908 -0.0517
vn -0.6859 0.2430 -0.6859
vn -0.2168 0.9518 -0.2168
vn -0.8962 0.2430 -0.3712
vn -0.3712 0.2430 -0.8962
vn -0.1173 0.9518 -0.2833
vn -0.0955 0.9908 -0.0955
vn -0.0517 0.9908 -0.1248
vn -0.0000 0.9518 -0.3066
vn -0.0000 0.9908 -0.1350
vn 0.3712 0.2430 -0.8962
vn 0.1173 0.9518 -0.2833
vn -0.0000 0.2430 -0.9700
vn 0.6859 0.2430 -0.6859
vn 0.2168 0.9518 -0.2168
vn 0.0517 0.9908 -0.1247
vn 0.8962 0.2430 -0.3712
vn 0.2937 0.4780 -0.8278
vn -0.2935 -0.4780 -0.8278
vn -0.2937 0.4780 -0.8278
vn 0.2935 -0.4780 -0.8279
vn -0.2935 -0.9559 -0.0000
vn 0.2935 -0.9559 -0.0000
vn -0.2935 -0.4780 0.8279
vn 0.2935 -0.4780 0.8279
vn -0.2935 0.4780 0.8279
vn 0.2935 0.4780 0.8279
vn -0.2935 0.9559 -0.0000
vn 0.2935 0.9559 -0.0000
vn -0.2937 0.4779 -0.8279
vn 0.2937 0.4779 -0.8279
vn -0.0206 -0.8981 -0.4393
vn 0.8277 -0.5142 -0.2247
vn 0.8897 -0.4139 -0.1925
vn -0.0206 -0.9174 -0.3975
vn -0.9075 -0.3734 -0.1924
vn -0.8499 -0.4769 -0.2241
vn -0.0196 -0.9861 0.1649
vn 0.8989 -0.4098 0.1551
vn 0.8865 -0.4562 0.0769
vn -0.0182 -0.9284 0.3712
vn -0.9021 -0.4214 0.0929
vn -0.0145 -0.9928 0.1189
vn -0.8579 -0.5100 0.0626
vn -0.8946 -0.4452 0.0381
vn -0.0208 -0.9982 0.0566
vn -0.8854 -0.4540 -0.0993
vn -0.0220 -0.9837 -0.1786
vn -0.8869 -0.3968 -0.2364
vn -0.0213 -0.8905 -0.4546
vn -0.8394 -0.4567 -0.2946
vn -0.0179 -0.8522 -0.5230
vn 0.8192 -0.4888 -0.3000
vn 0.8678 -0.4344 -0.2414
vn 0.8640 -0.4936 -0.0992
vn 0.8755 -0.4819 0.0364
vn 0.8413 -0.5383 0.0499
vn -0.9139 -0.3739 0.1582
vn 0.8897 -0.4140 -0.1925
vn 0.8409 0.4847 0.2406
vn 0.7332 0.6102 0.3002
vn 0.8174 0.5280 -0.2305
vn 0.8336 0.5399 -0.1165
vn 0.8989 -0.4098 0.1552
vn 0.8413 -0.5383 0.0498
vn 0.8813 0.4681 -0.0653
vn 0.8319 0.5546 -0.0184
vn 0.8640 -0.4936 -0.0993
vn 0.8209 0.5595 0.1144
vn 0.8365 0.4844 0.2561
vn 0.8809 0.3981 0.2559
vn 0.8409 0.4848 0.2406
vn 0.0208 0.9017 0.4318
vn 0.0209 0.9017 0.4319
vn -0.8182 0.5220 0.2410
vn -0.7049 0.6427 0.3002
vn 0.8336 0.5400 -0.1164
vn 0.0161 0.9215 -0.3880
vn 0.0141 0.9764 -0.2157
vn 0.8174 0.5279 -0.2304
vn 0.0203 0.9938 -0.1089
vn 0.8320 0.5545 -0.0184
vn 0.0213 0.9983 -0.0547
vn 0.8210 0.5594 0.1144
vn 0.0221 0.9748 0.2221
vn 0.8366 0.4843 0.2561
vn 0.0182 0.8687 0.4950
vn 0.0202 0.8415 0.5399
vn 0.0204 0.9018 0.4317
vn -0.8619 0.4331 0.2637
vn -0.8152 0.5171 0.2609
vn -0.7946 0.5962 0.1142
vn -0.8078 0.5893 -0.0167
vn -0.8632 0.5022 -0.0518
vn -0.8166 0.5682 -0.1018
vn -0.7978 0.5585 -0.2270
vn -0.7049 0.6426 0.3002
vn -0.8499 -0.4769 -0.2242
vn -0.9075 -0.3734 -0.1926
vn -0.9138 -0.3740 0.1582
vn -0.9021 -0.4214 0.0930
vn -0.7977 0.5586 -0.2271
vn -0.8579 -0.5101 0.0626
vn -0.8078 0.5893 -0.0166
vn -0.8946 -0.4451 0.0382
vn -0.7946 0.5963 0.1142
vn -0.8854 -0.4541 -0.0993
vn -0.8869 -0.3969 -0.2364
vn -0.8182 0.5220 0.2411
vn 0.0494 -0.2001 -0.9785
vn 0.0493 -0.2002 -0.9785
vn 0.0492 -0.2001 -0.9785
vn 0.2181 0.9496 -0.2252
vn 0.2181 0.9497 -0.2249
vn 0.2180 0.9497 -0.2250
vn 0.0905 0.5870 0.8045
vn 0.0904 0.5870 0.8045
vn -0.0424 0.5958 0.8020
vn -0.0424 0.5957 0.8021
vn -0.0423 0.5956 0.8022
vn -0.0423 0.5958 0.8020
vn -0.1828 0.9574 -0.2236
vn -0.1828 0.9574 -0.2233
vn -0.0846 -0.2172 -0.9724
vn -0.0846 -0.2173 -0.9724
vn -0.0845 -0.2172 -0.9725
vn 0.0246 0.9699 -0.2422
vn 0.0246 0.9699 -0.2423
vn 1.0000 0.0014 -0.0028
vn 1.0000 0.0013 -0.0028
vn 0.0414 0.9711 0.2352
vn 0.0413 0.9711 0.2352
vn 0.0193 0.9788 0.2037
vn -1.0000 0.0012 0.0027
vn 0.0025 0.9621 -0.2728
vn 0.2935 -0.4780 -0.8278
vn 0.2935 -0.4779 -0.8279
vn 0.2935 -0.4780 0.8278
vn -0.2935 0.4779 0.8279
vn 0.2935 0.4780 0.8278
vn 0.9159 -0.1308 -0.3794
vn 0.7071 -0.0000 -0.7071
vn 0.9239 -0.0000 -0.3827
vn 0.7010 -0.1308 -0.7010
vn 0.1815 -0.9805 -0.0752
vn 0.9914 -0.1308 -0.0000
vn 0.1964 -0.9805 -0.0000
vn 0.1815 -0.9805 0.0752
vn 0.9159 -0.1308 0.3794
vn 0.1389 -0.9805 0.1389
vn 0.7009 -0.1308 0.7012
vn 0.0752 -0.9805 0.1815
vn 0.3794 -0.1308 0.9160
vn -0.0000 -0.9805 0.1964
vn -0.0002 -0.1308 0.9914
vn -0.0752 -0.9805 0.1815
vn -0.3794 -0.1308 0.9159
vn -0.1389 -0.9805 0.1389
vn -0.7011 -0.1308 0.7010
vn -0.1815 -0.9805 0.0752
vn -0.9160 -0.1308 0.3794
vn -0.1964 -0.9805 -0.0000
vn -0.9914 -0.1308 -0.0000
vn -0.1815 -0.9805 -0.0752
vn -0.9159 -0.1308 -0.3794
vn -0.1389 -0.9805 -0.1389
vn -0.7010 -0.1308 -0.7011
vn -0.0752 -0.9805 -0.1815
vn -0.3793 -0.1308 -0.9160
vn -0.0001 -0.9805 -0.1964
vn -0.0001 -0.1307 -0.9914
vn -0.3827 -0.0000 -0.9239
vn -0.0001 -0.0000 -1.0000
vn -0.7071 -0.0000 -0.7071
vn -0.9239 -0.0000 -0.3827
vn -0.9239 -0.0000 0.3827
vn -0.7071 -0.0000 0.7071
vn -0.3827 -0.0000 0.9239
vn -0.0000 -0.0000 1.0000
vn 0.3827 -0.0000 0.9239
vn 0.7071 -0.0000 0.7071
vn 0.9239 -0.0000 0.3827
vn 0.1389 -0.9805 -0.1389
vn 0.3794 -0.1308 -0.9159
vn 0.0752 -0.9805 -0.1815
vn 0.0001 -0.1308 -0.9914
vn 0.0001 -0.9805 -0.1964
vn 0.0001 -0.0001 -1.0000
vn 0.3827 -0.0000 -0.9239
vn 0.1976 -0.9769 -0.0818
vn 0.1512 -0.9769 -0.1512
vn 0.2139 -0.9769 -0.0000
vn 0.1976 -0.9769 0.0818
vn 0.1512 -0.9769 0.1512
vn 0.0818 -0.9769 0.1976
vn -0.0000 -0.9769 0.2139
vn -0.0818 -0.9769 0.1976
vn -0.1512 -0.9769 0.1512
vn -0.1976 -0.9769 0.0818
vn -0.2139 -0.9769 -0.0000
vn -0.1976 -0.9769 -0.0818
vn -0.1512 -0.9769 -0.1512
vn -0.0818 -0.9769 -0.1976
vn -0.0000 -0.9769 -0.2139
vn 0.0818 -0.9769 -0.1976
vn 0.7072 -0.0000 -0.7070
vn 0.7072 -0.0000 0.7070
vn 0.7070 -0.0000 -0.7072
vn -0.0000 -0.0000 -1.0000
vn -0.7070 -0.0000 -0.7072
vn -0.7072 -0.0000 -0.7070
vn -0.7072 -0.0000 0.7070
vn -0.7070 -0.0000 0.7072
vn 0.7070 -0.0000 0.7072
vn 0.1584 0.9852 -0.0656
vn 0.1212 0.9852 -0.1212
vn 0.1714 0.9852 -0.0000
vn 0.1584 0.9852 0.0656
vn 0.1212 0.9852 0.1212
vn 0.0656 0.9852 0.1584
vn -0.0000 0.9852 0.1714
vn -0.0656 0.9852 0.1584
vn -0.1212 0.9852 0.1212
vn -0.1584 0.9852 0.0656
vn -0.1714 0.9852 -0.0000
vn -0.1584 0.9852 -0.0656
vn -0.1212 0.9852 -0.1212
vn -0.0656 0.9852 -0.1584
vn -0.0000 0.9852 -0.1714
vn 0.0656 0.9852 -0.1584
vn 0.6860 0.2430 -0.6859
vn 0.6860 0.2430 0.6859
vn -0.3713 0.2430 0.8962
vn -0.6860 0.2430 -0.6859
vn -0.3713 0.2430 -0.8962
vn -0.0001 0.2430 -0.9700
vn 0.0001 0.2430 -0.9700
vn 0.0001 -0.0000 -1.0000
vt 0.556695 0.460863
vt 0.585432 0.460863
vt 0.571063 0.437125
vt 0.542326 0.435976
vt 0.556695 0.411088
vt 0.585432 0.411088
vt 0.599801 0.435976
vt 0.599801 0.274472
vt 0.585432 0.249585
vt 0.571063 0.275622
vt 0.556695 0.249585
vt 0.585432 0.299360
vt 0.556695 0.299360
vt 0.542326 0.274472
vt 0.423957 0.501290
vt 0.463257 0.475030
vt 0.377599 0.389371
vt 0.489517 0.435729
vt 0.377599 0.510511
vt 0.331241 0.501290
vt 0.291940 0.475030
vt 0.265680 0.435729
vt 0.256459 0.389371
vt 0.265680 0.343013
vt 0.291940 0.303713
vt 0.331241 0.277453
vt 0.377599 0.268232
vt 0.423957 0.277453
vt 0.463257 0.303713
vt 0.489517 0.343013
vt 0.498738 0.389371
vt 0.862646 0.397618
vt 0.858430 0.376422
vt 0.807258 0.397618
vt 0.846424 0.358453
vt 0.920973 0.350516
vt 0.930343 0.397618
vt 0.949402 0.456496
vt 0.920973 0.444720
vt 0.961114 0.397618
vt 0.916051 0.506410
vt 0.894292 0.484652
vt 0.858430 0.418814
vt 0.846424 0.436783
vt 0.854361 0.511333
vt 0.828455 0.448790
vt 0.807258 0.551473
vt 0.807258 0.520702
vt 0.866136 0.539762
vt 0.748381 0.539762
vt 0.760156 0.511333
vt 0.807258 0.453006
vt 0.786063 0.448790
vt 0.720225 0.484652
vt 0.768094 0.436783
vt 0.665115 0.456496
vt 0.693544 0.444720
vt 0.698467 0.506410
vt 0.653404 0.397618
vt 0.684175 0.397618
vt 0.756087 0.418814
vt 0.751871 0.397618
vt 0.693544 0.350516
vt 0.756087 0.376422
vt 0.698467 0.288826
vt 0.720225 0.310585
vt 0.665115 0.338740
vt 0.748381 0.255475
vt 0.760157 0.283903
vt 0.768094 0.358453
vt 0.786063 0.346446
vt 0.807259 0.274534
vt 0.807259 0.342230
vt 0.866136 0.255475
vt 0.854361 0.283903
vt 0.807259 0.243763
vt 0.916051 0.288826
vt 0.894292 0.310585
vt 0.828455 0.346446
vt 0.949402 0.338740
vt 0.548074 0.392702
vt 0.555737 0.323559
vt 0.548074 0.323559
vt 0.555737 0.392702
vt 0.563400 0.323559
vt 0.563400 0.392702
vt 0.571063 0.323559
vt 0.571063 0.392702
vt 0.578727 0.323559
vt 0.578727 0.392702
vt 0.586390 0.323559
vt 0.586390 0.392702
vt 0.594054 0.323559
vt 0.594054 0.392702
vt 0.880830 0.707574
vt 0.892443 0.751805
vt 0.891898 0.702256
vt 0.881380 0.757267
vt 0.869919 0.702256
vt 0.870464 0.751805
vt 0.729858 0.103525
vt 0.767799 0.092951
vt 0.732263 0.092548
vt 0.763889 0.103963
vt 0.731968 0.114350
vt 0.694425 0.102955
vt 0.695847 0.113774
vt 0.642886 0.113524
vt 0.640815 0.102757
vt 0.584744 0.113592
vt 0.588053 0.102812
vt 0.527261 0.114053
vt 0.532275 0.103238
vt 0.481289 0.114452
vt 0.483787 0.103681
vt 0.442457 0.114770
vt 0.447874 0.103941
vt 0.481289 0.092650
vt 0.442457 0.092968
vt 0.527261 0.092251
vt 0.584744 0.091790
vt 0.642886 0.091722
vt 0.696167 0.091972
vt 0.767799 0.114753
vt 0.357500 0.771038
vt 0.384991 0.805738
vt 0.363719 0.761481
vt 0.379184 0.815551
vt 0.594375 0.049916
vt 0.633639 0.054066
vt 0.598463 0.039272
vt 0.626558 0.063001
vt 0.561685 0.050942
vt 0.564550 0.039906
vt 0.513432 0.040792
vt 0.517184 0.030028
vt 0.460776 0.044633
vt 0.454783 0.034935
vt 0.408717 0.061571
vt 0.399636 0.054676
vt 0.367082 0.095289
vt 0.362557 0.084825
vt 0.331914 0.109419
vt 0.322101 0.103613
vt 0.126825 0.704452
vt 0.116467 0.660755
vt 0.115940 0.709758
vt 0.127358 0.655307
vt 0.105432 0.655307
vt 0.104899 0.704452
vt 0.066408 0.032956
vt 0.023630 0.044085
vt 0.064298 0.043789
vt 0.027542 0.033288
vt 0.103878 0.032370
vt 0.102455 0.043197
vt 0.156213 0.032012
vt 0.154140 0.042786
vt 0.225160 0.032107
vt 0.228470 0.042895
vt 0.286092 0.032638
vt 0.291109 0.043461
vt 0.327060 0.032948
vt 0.329560 0.043726
vt 0.371760 0.033383
vt 0.377181 0.044219
vt 0.327060 0.054765
vt 0.371760 0.055199
vt 0.286092 0.054455
vt 0.225160 0.053923
vt 0.156213 0.053828
vt 0.104199 0.054186
vt 0.066704 0.054772
vt 0.027542 0.055104
vt 0.241028 0.753671
vt 0.256492 0.699602
vt 0.234808 0.744115
vt 0.262299 0.709415
vt 0.976063 0.539492
vt 0.952423 0.511129
vt 0.965419 0.543580
vt 0.961358 0.504048
vt 0.975410 0.573427
vt 0.964375 0.576292
vt 0.985397 0.620503
vt 0.974632 0.624255
vt 0.980489 0.682904
vt 0.970791 0.676911
vt 0.960748 0.738052
vt 0.953853 0.728971
vt 0.930599 0.775130
vt 0.920135 0.770605
vt 0.911811 0.815586
vt 0.906005 0.805773
vt 0.158821 0.661694
vt 0.172058 0.763081
vt 0.169783 0.661736
vt 0.155874 0.671846
vt 0.618076 0.662051
vt 0.595666 0.755510
vt 0.615066 0.755402
vt 0.608093 0.662198
vt 0.223075 0.667497
vt 0.201315 0.656440
vt 0.198722 0.767833
vt 0.226818 0.656486
vt 0.203819 0.544939
vt 0.223575 0.645317
vt 0.517172 0.763742
vt 0.521163 0.670668
vt 0.501843 0.670775
vt 0.527114 0.763596
vt 0.155419 0.651686
vt 0.167424 0.560489
vt 0.757937 0.714548
vt 0.784101 0.815528
vt 0.785992 0.714535
vt 0.757332 0.815541
vt 0.732289 0.789344
vt 0.726929 0.751591
vt 0.725575 0.815651
vt 0.732680 0.770775
vt 0.843494 0.815532
vt 0.812182 0.715113
vt 0.824062 0.815541
vt 0.840107 0.715100
vt 0.814145 0.614583
vt 0.840619 0.614570
vt 0.292285 0.685795
vt 0.285328 0.647872
vt 0.286682 0.711933
vt 0.291894 0.667226
vt 0.754444 0.613654
vt 0.774138 0.613644
vt 0.789268 0.959847
vt 0.847464 0.833584
vt 0.789268 0.833584
vt 0.847464 0.959847
vt 0.789268 0.973253
vt 0.731073 0.959847
vt 0.731073 0.973253
vt 0.672877 0.973253
vt 0.672877 0.959847
vt 0.614682 0.973253
vt 0.614682 0.959847
vt 0.556486 0.973253
vt 0.556486 0.959847
vt 0.498291 0.973253
vt 0.498291 0.959847
vt 0.440095 0.973253
vt 0.440095 0.959847
vt 0.381900 0.973253
vt 0.381900 0.959847
vt 0.323704 0.973253
vt 0.323704 0.959847
vt 0.265509 0.973253
vt 0.265509 0.959847
vt 0.207313 0.973253
vt 0.207313 0.959847
vt 0.149118 0.973253
vt 0.149118 0.959847
vt 0.090922 0.973253
vt 0.090922 0.959847
vt 0.032727 0.973253
vt 0.032727 0.959847
vt 0.090922 0.833584
vt 0.032727 0.833584
vt 0.149118 0.833584
vt 0.207313 0.833584
vt 0.265509 0.833584
vt 0.323704 0.833584
vt 0.381900 0.833584
vt 0.440095 0.833584
vt 0.498291 0.833584
vt 0.556486 0.833584
vt 0.614682 0.833584
vt 0.672877 0.833584
vt 0.731073 0.833584
vt 0.847464 0.973253
vt 0.905659 0.959847
vt 0.905659 0.973253
vt 0.963855 0.959847
vt 0.963855 0.973253
vt 0.963855 0.833584
vt 0.905659 0.833584
vt 0.332128 0.702968
vt 0.318321 0.766545
vt 0.354586 0.712270
vt 0.301132 0.749357
vt 0.343013 0.648248
vt 0.332128 0.593529
vt 0.367321 0.648248
vt 0.354586 0.584227
vt 0.301132 0.547140
vt 0.318321 0.529952
vt 0.254743 0.516144
vt 0.264046 0.493686
vt 0.200024 0.505260
vt 0.200024 0.480951
vt 0.145304 0.516144
vt 0.136002 0.493686
vt 0.098915 0.547140
vt 0.081727 0.529952
vt 0.067919 0.593529
vt 0.045462 0.584227
vt 0.057035 0.648248
vt 0.032727 0.648248
vt 0.067919 0.702968
vt 0.045462 0.712270
vt 0.098915 0.749357
vt 0.081727 0.766545
vt 0.145304 0.780353
vt 0.136002 0.802811
vt 0.200024 0.791237
vt 0.200024 0.815545
vt 0.254743 0.780353
vt 0.264046 0.802811
vt 0.856287 0.065445
vt 0.913117 0.045283
vt 0.856287 0.045283
vt 0.913117 0.065445
vt 0.789253 0.065445
vt 0.722219 0.065445
vt 0.789253 0.045283
vt 0.722219 0.045283
vt 0.665390 0.065445
vt 0.665390 0.045283
vt 0.572525 0.773827
vt 0.552363 0.716998
vt 0.552363 0.773827
vt 0.572525 0.716998
vt 0.552363 0.649964
vt 0.572525 0.649964
vt 0.552363 0.582930
vt 0.572525 0.582930
vt 0.552363 0.526101
vt 0.572525 0.526101
vt 0.038420 0.096841
vt 0.095249 0.076680
vt 0.038420 0.076680
vt 0.095249 0.096841
vt 0.162284 0.076680
vt 0.162284 0.096841
vt 0.229318 0.076680
vt 0.229318 0.096841
vt 0.286147 0.076680
vt 0.286147 0.096841
vt 0.032727 0.272750
vt 0.052888 0.329579
vt 0.052888 0.272750
vt 0.032727 0.329579
vt 0.052888 0.396614
vt 0.032727 0.396614
vt 0.052888 0.463648
vt 0.032727 0.463648
vt 0.052888 0.520477
vt 0.032727 0.520477
vt 0.714858 0.584646
vt 0.666851 0.542278
vt 0.699430 0.591036
vt 0.678659 0.530470
vt 0.727570 0.648551
vt 0.714858 0.712456
vt 0.710871 0.648551
vt 0.699430 0.706065
vt 0.678659 0.766632
vt 0.666851 0.754824
vt 0.624483 0.802831
vt 0.618092 0.787403
vt 0.560578 0.815543
vt 0.560578 0.798844
vt 0.496673 0.802831
vt 0.503063 0.787403
vt 0.442496 0.766632
vt 0.454304 0.754824
vt 0.406297 0.712456
vt 0.421725 0.706065
vt 0.393586 0.648551
vt 0.410285 0.648551
vt 0.406297 0.584646
vt 0.421725 0.591036
vt 0.442496 0.530469
vt 0.454304 0.542278
vt 0.496673 0.494270
vt 0.503063 0.509698
vt 0.560578 0.481559
vt 0.560578 0.498258
vt 0.624483 0.494270
vt 0.618092 0.509698
vt 0.752391 0.225722
vt 0.807749 0.137148
vt 0.752391 0.137148
vt 0.807749 0.225722
vt 0.697032 0.225722
vt 0.641673 0.225722
vt 0.697032 0.137148
vt 0.641673 0.137148
vt 0.586314 0.225722
vt 0.586314 0.137148
vt 0.530956 0.225722
vt 0.530956 0.137148
vt 0.475597 0.225722
vt 0.475597 0.137148
vt 0.420238 0.225722
vt 0.420238 0.137148
vt 0.364879 0.225722
vt 0.364879 0.137148
vt 0.309521 0.225722
vt 0.309521 0.137148
vt 0.254162 0.225722
vt 0.254162 0.137148
vt 0.198803 0.225722
vt 0.198803 0.137148
vt 0.143444 0.225722
vt 0.143444 0.137148
vt 0.088086 0.225722
vt 0.088086 0.137148
vt 0.032727 0.225722
vt 0.032727 0.137148
vt 0.863108 0.137148
vt 0.863108 0.225722
vt 0.918467 0.137148
vt 0.918467 0.225722
s 1
usemtl lambert2
f 1/1/1 2/2/2 3/3/3
f 4/4/4 1/1/1 3/3/3
f 5/5/5 4/4/4 3/3/3
f 6/6/6 5/5/5 3/3/3
f 7/7/7 6/6/6 3/3/3
f 2/2/2 7/7/7 3/3/3
f 11/8/8 8/9/9 9/10/10
f 8/9/9 10/11/11 9/10/10
f 12/12/12 11/8/8 9/10/10
f 13/13/13 12/12/12 9/10/10
f 14/14/14 13/13/13 9/10/10
f 10/11/11 14/14/14 9/10/10
f 18/4/15 15/1/16 16/3/3
f 15/1/16 17/2/17 16/3/3
f 19/5/18 18/4/15 16/3/3
f 20/6/19 19/5/18 16/3/3
f 21/7/20 20/6/19 16/3/3
f 17/2/17 21/7/20 16/3/3
f 25/8/8 22/9/9 23/10/10
f 22/9/9 24/11/11 23/10/10
f 26/12/12 25/8/8 23/10/10
f 27/13/13 26/12/12 23/10/10
f 28/14/14 27/13/13 23/10/10
f 24/11/11 28/14/14 23/10/10
f 32/4/15 29/1/16 30/3/3
f 29/1/16 31/2/17 30/3/3
f 33/5/18 32/4/15 30/3/3
f 34/6/19 33/5/18 30/3/3
f 35/7/20 34/6/19 30/3/3
f 31/2/17 35/7/20 30/3/3
f 39/8/8 36/9/9 37/10/10
f 36/9/9 38/11/11 37/10/10
f 40/12/12 39/8/8 37/10/10
f 41/13/13 40/12/12 37/10/10
f 42/14/14 41/13/13 37/10/10
f 38/11/11 42/14/14 37/10/10
f 46/4/15 43/1/16 44/3/3
f 43/1/16 45/2/17 44/3/3
f 47/5/18 46/4/15 44/3/3
f 48/6/19 47/5/18 44/3/3
f 49/7/20 48/6/19 44/3/3
f 45/2/17 49/7/20 44/3/3
f 53/8/8 50/9/9 51/10/10
f 50/9/9 52/11/11 51/10/10
f 54/12/12 53/8/8 51/10/10
f 55/13/13 54/12/12 51/10/10
f 56/14/14 55/13/13 51/10/10
f 52/11/11 56/14/14 51/10/10
f 60/15/21 57/16/22 58/17/23
f 57/16/22 59/18/24 58/17/23
f 61/19/25 60/15/21 58/17/23
f 62/20/26 61/19/25 58/17/23
f 63/21/27 62/20/26 58/17/23
f 64/22/28 63/21/27 58/17/23
f 65/23/29 64/22/28 58/17/23
f 66/24/30 65/23/29 58/17/23
f 67/25/31 66/24/30 58/17/23
f 68/26/32 67/25/31 58/17/23
f 69/27/33 68/26/32 58/17/23
f 70/28/34 69/27/33 58/17/23
f 71/29/35 70/28/34 58/17/23
f 72/30/36 71/29/35 58/17/23
f 73/31/37 72/30/36 58/17/23
f 59/18/24 73/31/37 58/17/23
f 77/32/38 74/33/39 75/34/40
f 74/33/39 76/35/41 75/34/40
f 78/36/42 76/35/41 74/33/39
f 79/37/43 74/33/39 77/32/38
f 79/37/43 78/36/42 74/33/39
f 80/38/44 79/37/43 82/39/45
f 80/38/44 81/40/46 79/37/43
f 81/40/46 78/36/42 79/37/43
f 82/39/45 79/37/43 77/32/38
f 83/41/47 82/39/45 84/42/48
f 83/41/47 80/38/44 82/39/45
f 84/42/48 82/39/45 85/43/49
f 82/39/45 77/32/38 85/43/49
f 84/42/48 85/43/49 86/44/50
f 86/44/50 85/43/49 75/34/40
f 85/43/49 77/32/38 75/34/40
f 88/45/51 86/44/50 87/46/52
f 87/46/52 86/44/50 75/34/40
f 88/45/51 84/42/48 86/44/50
f 89/47/53 88/45/51 91/48/54
f 89/47/53 90/49/55 88/45/51
f 90/49/55 84/42/48 88/45/51
f 91/48/54 88/45/51 87/46/52
f 92/50/56 91/48/54 93/51/57
f 92/50/56 89/47/53 91/48/54
f 93/51/57 91/48/54 94/52/58
f 91/48/54 87/46/52 94/52/58
f 93/51/57 94/52/58 95/53/59
f 95/53/59 94/52/58 75/34/40
f 94/52/58 87/46/52 75/34/40
f 97/54/60 95/53/59 96/55/61
f 96/55/61 95/53/59 75/34/40
f 97/54/60 93/51/57 95/53/59
f 98/56/62 97/54/60 100/57/63
f 98/56/62 99/58/64 97/54/60
f 99/58/64 93/51/57 97/54/60
f 100/57/63 97/54/60 96/55/61
f 101/59/65 100/57/63 102/60/66
f 101/59/65 98/56/62 100/57/63
f 102/60/66 100/57/63 103/61/67
f 100/57/63 96/55/61 103/61/67
f 102/60/66 103/61/67 104/62/68
f 104/62/68 103/61/67 75/34/40
f 103/61/67 96/55/61 75/34/40
f 106/63/69 104/62/68 105/64/70
f 105/64/70 104/62/68 75/34/40
f 106/63/69 102/60/66 104/62/68
f 107/65/71 106/63/69 109/66/72
f 107/65/71 108/67/73 106/63/69
f 108/67/73 102/60/66 106/63/69
f 109/66/72 106/63/69 105/64/70
f 110/68/74 109/66/72 111/69/75
f 110/68/74 107/65/71 109/66/72
f 111/69/75 109/66/72 112/70/76
f 109/66/72 105/64/70 112/70/76
f 111/69/75 112/70/76 113/71/77
f 113/71/77 112/70/76 75/34/40
f 112/70/76 105/64/70 75/34/40
f 115/72/78 113/71/77 114/73/79
f 114/73/79 113/71/77 75/34/40
f 115/72/78 111/69/75 113/71/77
f 116/74/80 115/72/78 118/75/81
f 116/74/80 117/76/82 115/72/78
f 117/76/82 111/69/75 115/72/78
f 118/75/81 115/72/78 114/73/79
f 119/77/83 118/75/81 120/78/84
f 119/77/83 116/74/80 118/75/81
f 120/78/84 118/75/81 121/79/85
f 118/75/81 114/73/79 121/79/85
f 120/78/84 121/79/85 76/35/41
f 76/35/41 121/79/85 75/34/40
f 121/79/85 114/73/79 75/34/40
f 122/80/86 120/78/84 78/36/42
f 122/80/86 119/77/83 120/78/84
f 78/36/42 120/78/84 76/35/41
f 81/40/46 122/80/86 78/36/42
f 117/76/82 110/68/74 111/69/75
f 108/67/73 101/59/65 102/60/66
f 99/58/64 92/50/56 93/51/57
f 90/49/55 83/41/47 84/42/48
f 123/81/87 124/82/88 126/83/89
f 123/81/87 125/84/90 124/82/88
f 125/84/90 127/85/91 124/82/88
f 125/84/90 128/86/92 127/85/91
f 128/86/92 129/87/93 127/85/91
f 128/86/92 130/88/94 129/87/93
f 130/88/94 131/89/95 129/87/93
f 130/88/94 132/90/96 131/89/95
f 132/90/96 133/91/97 131/89/95
f 132/90/96 134/92/98 133/91/97
f 134/92/98 135/93/99 133/91/97
f 134/92/98 136/94/100 135/93/99
f 137/95/101 138/96/102 140/97/103
f 137/95/101 139/98/104 138/96/102
f 141/99/105 139/98/104 137/95/101
f 141/99/105 142/100/106 139/98/104
f 143/101/107 144/102/108 146/103/109
f 143/101/107 145/104/110 144/102/108
f 148/105/111 145/104/110 143/101/107
f 147/106/112 143/101/107 146/103/109
f 149/107/113 143/101/107 147/106/112
f 149/107/113 148/105/111 143/101/107
f 150/108/114 149/107/113 147/106/112
f 150/108/114 147/106/112 151/109/115
f 152/110/116 150/108/114 151/109/115
f 152/110/116 151/109/115 153/111/117
f 154/112/118 152/110/116 153/111/117
f 154/112/118 153/111/117 155/113/119
f 156/114/120 154/112/118 155/113/119
f 156/114/120 155/113/119 157/115/121
f 158/116/106 156/114/120 157/115/121
f 158/116/106 157/115/121 159/117/104
f 159/117/104 160/118/122 161/119/102
f 159/117/104 157/115/121 160/118/122
f 157/115/121 162/120/123 160/118/122
f 157/115/121 155/113/119 162/120/123
f 155/113/119 163/121/124 162/120/123
f 155/113/119 153/111/117 163/121/124
f 153/111/117 164/122/125 163/121/124
f 153/111/117 151/109/115 164/122/125
f 151/109/115 165/123/126 164/122/125
f 151/109/115 147/106/112 165/123/126
f 147/106/112 146/103/109 165/123/126
f 148/105/111 166/124/127 145/104/110
f 167/125/128 168/126/129 170/127/130
f 167/125/128 169/128/102 168/126/129
f 171/129/109 172/130/131 174/131/132
f 171/129/109 173/132/133 172/130/131
f 175/133/134 171/129/109 174/131/132
f 175/133/134 174/131/132 176/134/135
f 177/135/125 175/133/134 176/134/135
f 177/135/125 176/134/135 178/136/136
f 179/137/137 177/135/125 178/136/136
f 179/137/137 178/136/136 180/138/138
f 181/139/123 179/137/137 180/138/138
f 181/139/123 180/138/138 182/140/139
f 183/141/122 181/139/123 182/140/139
f 183/141/122 182/140/139 184/142/140
f 185/143/102 183/141/122 184/142/140
f 185/143/102 184/142/140 186/144/141
f 187/145/130 188/146/142 190/147/143
f 187/145/130 189/148/129 188/146/142
f 190/147/143 188/146/142 191/149/144
f 190/147/143 191/149/144 192/150/145
f 193/151/146 194/152/147 196/153/148
f 193/151/146 195/154/149 194/152/147
f 197/155/135 193/151/146 196/153/148
f 197/155/135 196/153/148 198/156/150
f 199/157/151 197/155/135 198/156/150
f 199/157/151 198/156/150 200/158/152
f 201/159/153 199/157/151 200/158/152
f 201/159/153 200/158/152 202/160/154
f 203/161/155 201/159/153 202/160/154
f 203/161/155 202/160/154 204/162/156
f 205/163/140 203/161/155 204/162/156
f 205/163/140 204/162/156 206/164/157
f 207/165/129 205/163/140 206/164/157
f 207/165/129 206/164/157 208/166/158
f 208/166/158 206/164/157 209/167/159
f 208/166/158 209/167/159 210/168/144
f 206/164/157 211/169/160 209/167/159
f 206/164/157 204/162/156 211/169/160
f 204/162/156 212/170/161 211/169/160
f 204/162/156 202/160/154 212/170/161
f 202/160/154 213/171/162 212/170/161
f 202/160/154 200/158/152 213/171/162
f 200/158/152 214/172/163 213/171/162
f 200/158/152 198/156/150 214/172/163
f 198/156/150 215/173/164 214/172/163
f 198/156/150 196/153/148 215/173/164
f 196/153/148 216/174/165 215/173/164
f 196/153/148 194/152/147 216/174/165
f 217/175/166 218/176/167 220/177/168
f 217/175/166 219/178/144 218/176/167
f 221/179/164 222/180/169 224/181/170
f 221/179/164 223/182/171 222/180/169
f 225/183/163 221/179/164 224/181/170
f 225/183/163 224/181/170 226/184/172
f 227/185/173 225/183/163 226/184/172
f 227/185/173 226/184/172 228/186/174
f 229/187/175 227/185/173 228/186/174
f 229/187/175 228/186/174 230/188/176
f 231/189/160 229/187/175 230/188/176
f 231/189/160 230/188/176 232/190/177
f 233/191/159 231/189/160 232/190/177
f 233/191/159 232/190/177 234/192/120
f 235/193/178 233/191/159 234/192/120
f 235/193/178 234/192/120 236/194/167
f 237/195/179 238/196/179 240/197/180
f 237/195/179 239/198/181 238/196/179
f 241/199/182 242/200/183 244/201/184
f 241/199/182 243/202/182 242/200/183
f 245/203/185 246/204/185 248/205/186
f 245/203/185 247/206/186 246/204/185
f 249/206/187 250/207/188 252/204/189
f 249/206/187 251/208/190 250/207/188
f 253/209/191 254/210/192 256/211/192
f 253/209/191 255/212/191 254/210/192
f 257/213/193 258/197/194 260/214/195
f 257/213/193 259/195/195 258/197/194
f 261/215/196 262/216/197 264/217/196
f 261/215/196 263/218/196 262/216/197
f 265/219/198 266/220/199 268/221/199
f 265/219/198 267/222/199 266/220/199
f 269/223/200 270/224/200 272/225/200
f 269/223/200 271/226/201 270/224/200
f 273/226/202 274/227/202 276/224/202
f 273/226/202 275/228/202 274/227/202
f 277/229/203 278/230/203 280/231/203
f 277/229/203 279/232/203 278/230/203
f 281/233/204 282/217/204 284/234/204
f 281/233/204 283/215/204 282/217/204
f 285/81/87 286/82/88 288/83/89
f 285/81/87 287/84/205 286/82/88
f 287/84/205 289/85/91 286/82/88
f 287/84/205 290/86/92 289/85/91
f 290/86/92 291/87/93 289/85/91
f 290/86/92 292/88/94 291/87/93
f 292/88/94 293/89/95 291/87/93
f 292/88/94 294/90/96 293/89/95
f 294/90/96 295/91/97 293/89/95
f 294/90/96 296/92/98 295/91/97
f 296/92/98 297/93/99 295/91/97
f 296/92/98 298/94/100 297/93/99
f 299/81/87 300/82/88 302/83/89
f 299/81/87 301/84/90 300/82/88
f 301/84/90 303/85/91 300/82/88
f 301/84/90 304/86/92 303/85/91
f 304/86/92 305/87/93 303/85/91
f 304/86/92 306/88/94 305/87/93
f 306/88/94 307/89/95 305/87/93
f 306/88/94 308/90/96 307/89/95
f 308/90/96 309/91/97 307/89/95
f 308/90/96 310/92/98 309/91/97
f 310/92/98 311/93/99 309/91/97
f 310/92/98 312/94/100 311/93/99
f 313/81/87 314/82/88 316/83/89
f 313/81/87 315/84/206 314/82/88
f 315/84/206 317/85/91 314/82/88
f 315/84/206 318/86/92 317/85/91
f 318/86/92 319/87/93 317/85/91
f 318/86/92 320/88/207 319/87/93
f 320/88/207 321/89/208 319/87/93
f 320/88/207 322/90/209 321/89/208
f 322/90/209 323/91/97 321/89/208
f 322/90/209 324/92/98 323/91/97
f 324/92/98 325/93/99 323/91/97
f 324/92/98 326/94/100 325/93/99
f 327/235/210 328/236/211 330/237/212
f 327/235/210 329/238/213 328/236/211
f 329/238/213 327/235/210 332/239/214
f 331/240/215 327/235/210 330/237/212
f 327/235/210 331/240/215 333/241/216
f 327/235/210 333/241/216 332/239/214
f 331/240/215 334/242/217 333/241/216
f 331/240/215 335/243/218 334/242/217
f 335/243/218 336/244/219 334/242/217
f 335/243/218 337/245/220 336/244/219
f 337/245/220 338/246/221 336/244/219
f 337/245/220 339/247/222 338/246/221
f 339/247/222 340/248/223 338/246/221
f 339/247/222 341/249/224 340/248/223
f 341/249/224 342/250/225 340/248/223
f 341/249/224 343/251/226 342/250/225
f 343/251/226 344/252/227 342/250/225
f 343/251/226 345/253/228 344/252/227
f 345/253/228 346/254/229 344/252/227
f 345/253/228 347/255/230 346/254/229
f 347/255/230 348/256/231 346/254/229
f 347/255/230 349/257/232 348/256/231
f 349/257/232 350/258/233 348/256/231
f 349/257/232 351/259/234 350/258/233
f 351/259/234 352/260/235 350/258/233
f 351/259/234 353/261/236 352/260/235
f 353/261/236 354/262/237 352/260/235
f 353/261/236 355/263/238 354/262/237
f 355/263/238 356/264/239 354/262/237
f 355/263/238 357/265/240 356/264/239
f 357/265/240 358/266/241 359/267/242
f 357/265/240 355/263/238 358/266/241
f 355/263/238 360/268/243 358/266/241
f 355/263/238 353/261/236 360/268/243
f 353/261/236 361/269/244 360/268/243
f 353/261/236 351/259/234 361/269/244
f 351/259/234 362/270/10 361/269/244
f 351/259/234 349/257/232 362/270/10
f 349/257/232 363/271/245 362/270/10
f 349/257/232 347/255/230 363/271/245
f 347/255/230 364/272/246 363/271/245
f 347/255/230 345/253/228 364/272/246
f 345/253/228 365/273/247 364/272/246
f 345/253/228 343/251/226 365/273/247
f 343/251/226 366/274/248 365/273/247
f 343/251/226 341/249/224 366/274/248
f 341/249/224 367/275/249 366/274/248
f 341/249/224 339/247/222 367/275/249
f 339/247/222 368/276/250 367/275/249
f 339/247/222 337/245/220 368/276/250
f 337/245/220 369/277/251 368/276/250
f 337/245/220 335/243/218 369/277/251
f 335/243/218 370/278/3 369/277/251
f 335/243/218 331/240/215 370/278/3
f 331/240/215 330/237/212 370/278/3
f 329/238/213 332/239/214 371/279/252
f 372/280/253 329/238/213 371/279/252
f 372/280/253 371/279/252 373/281/254
f 374/282/255 372/280/253 373/281/254
f 374/282/255 373/281/254 375/283/256
f 372/280/253 374/282/255 376/284/257
f 372/280/253 376/284/257 377/285/258
f 329/238/213 377/285/258 328/236/211
f 329/238/213 372/280/253 377/285/258
f 378/286/259 379/287/260 381/288/259
f 378/286/259 380/289/260 379/287/260
f 382/290/261 378/286/259 381/288/259
f 383/291/262 382/290/261 384/292/261
f 382/290/261 381/288/259 384/292/261
f 383/291/262 384/292/261 385/293/262
f 386/294/263 385/293/262 387/295/263
f 386/294/263 383/291/262 385/293/262
f 388/296/264 387/295/263 389/297/264
f 388/296/264 386/294/263 387/295/263
f 390/298/265 389/297/264 391/299/265
f 390/298/265 388/296/264 389/297/264
f 392/300/266 391/299/265 393/301/266
f 392/300/266 390/298/265 391/299/265
f 394/302/267 393/301/266 395/303/267
f 394/302/267 392/300/266 393/301/266
f 396/304/268 395/303/267 397/305/268
f 396/304/268 394/302/267 395/303/267
f 398/306/269 397/305/268 399/307/269
f 398/306/269 396/304/268 397/305/268
f 400/308/270 399/307/269 401/309/270
f 400/308/270 398/306/269 399/307/269
f 402/310/271 401/309/270 403/311/271
f 402/310/271 400/308/270 401/309/270
f 404/312/272 403/311/271 405/313/272
f 404/312/272 402/310/271 403/311/271
f 406/314/273 405/313/272 407/315/273
f 406/314/273 404/312/272 405/313/272
f 408/316/274 407/315/273 409/317/274
f 408/316/274 406/314/273 407/315/273
f 380/289/260 409/317/274 379/287/260
f 380/289/260 408/316/274 409/317/274
f 410/318/212 411/319/275 413/320/212
f 410/318/212 412/321/275 411/319/275
f 414/322/3 410/318/212 413/320/212
f 415/323/251 414/322/3 416/324/3
f 414/322/3 413/320/212 416/324/3
f 415/323/251 416/324/3 417/325/251
f 418/326/276 417/325/251 419/327/276
f 418/326/276 415/323/251 417/325/251
f 420/328/277 421/329/258 423/330/277
f 420/328/277 422/331/258 421/329/258
f 422/331/258 424/332/278 421/329/258
f 422/331/258 425/333/278 424/332/278
f 425/333/278 426/334/241 424/332/278
f 425/333/278 427/335/241 426/334/241
f 427/335/241 428/336/279 426/334/241
f 427/335/241 429/337/279 428/336/279
f 430/338/280 431/339/244 433/340/280
f 430/338/280 432/341/244 431/339/244
f 432/341/244 434/342/10 431/339/244
f 432/341/244 435/343/10 434/342/10
f 435/343/10 436/344/245 434/342/10
f 435/343/10 437/345/245 436/344/245
f 437/345/245 438/346/281 436/344/245
f 437/345/245 439/347/281 438/346/281
f 440/348/282 441/349/247 443/350/282
f 440/348/282 442/351/247 441/349/247
f 442/351/247 444/352/248 441/349/247
f 442/351/247 445/353/248 444/352/248
f 445/353/248 446/354/249 444/352/248
f 445/353/248 447/355/249 446/354/249
f 447/355/249 448/356/283 446/354/249
f 447/355/249 449/357/283 448/356/283
f 450/358/284 451/359/285 453/360/284
f 450/358/284 452/361/285 451/359/285
f 454/362/286 450/358/284 453/360/284
f 455/363/287 454/362/286 456/364/286
f 454/362/286 453/360/284 456/364/286
f 455/363/287 456/364/286 457/365/287
f 458/366/288 457/365/287 459/367/288
f 458/366/288 455/363/287 457/365/287
f 460/368/289 459/367/288 461/369/289
f 460/368/289 458/366/288 459/367/288
f 462/370/290 461/369/289 463/371/290
f 462/370/290 460/368/289 461/369/289
f 464/372/291 463/371/290 465/373/291
f 464/372/291 462/370/290 463/371/290
f 466/374/292 465/373/291 467/375/292
f 466/374/292 464/372/291 465/373/291
f 468/376/293 467/375/292 469/377/293
f 468/376/293 466/374/292 467/375/292
f 470/378/294 469/377/293 471/379/294
f 470/378/294 468/376/293 469/377/293
f 472/380/295 471/379/294 473/381/295
f 472/380/295 470/378/294 471/379/294
f 474/382/296 473/381/295 475/383/296
f 474/382/296 472/380/295 473/381/295
f 476/384/297 475/383/296 477/385/297
f 476/384/297 474/382/296 475/383/296
f 478/386/298 477/385/297 479/387/298
f 478/386/298 476/384/297 477/385/297
f 480/388/299 479/387/298 481/389/299
f 480/388/299 478/386/298 479/387/298
f 452/361/285 481/389/299 451/359/285
f 452/361/285 480/388/299 481/389/299
f 482/390/212 483/391/300 485/392/86
f 482/390/212 484/393/211 483/391/300
f 486/394/3 482/390/212 485/392/86
f 487/395/251 486/394/3 488/396/46
f 486/394/3 485/392/86 488/396/46
f 487/395/251 488/396/46 489/397/44
f 490/398/250 489/397/44 491/399/301
f 490/398/250 487/395/251 489/397/44
f 492/400/249 491/399/301 493/401/55
f 492/400/249 490/398/250 491/399/301
f 494/402/248 493/401/55 495/403/53
f 494/402/248 492/400/249 493/401/55
f 496/404/247 495/403/53 497/405/302
f 496/404/247 494/402/248 495/403/53
f 498/406/246 497/405/302 499/407/64
f 498/406/246 496/404/247 497/405/302
f 500/408/245 499/407/64 501/409/62
f 500/408/245 498/406/246 499/407/64
f 502/410/10 501/409/62 503/411/65
f 502/410/10 500/408/245 501/409/62
f 504/412/244 503/411/65 505/413/73
f 504/412/244 502/410/10 503/411/65
f 506/414/243 505/413/73 507/415/303
f 506/414/243 504/412/244 505/413/73
f 508/416/241 507/415/303 509/417/304
f 508/416/241 506/414/243 507/415/303
f 510/418/242 509/417/304 511/419/305
f 510/418/242 508/416/241 509/417/304
f 484/393/211 512/420/80 483/391/300
f 484/393/211 513/421/258 512/420/80
f 513/421/258 514/422/306 512/420/80
f 513/421/258 515/423/307 514/422/306
