# Blender 4.5.13 LTS
# www.blender.org
mtllib roomba_lowpoly.mtl
o rumbi_eyes_0
v 0.263916 -0.042551 -0.306722
v 0.234045 -0.042551 -0.403874
v 0.234045 0.052313 -0.403874
v 0.263916 0.052313 -0.306722
v 0.235436 -0.042551 -0.151380
v 0.264378 -0.042551 -0.248813
v 0.264378 0.052313 -0.248813
v 0.235436 0.052313 -0.151380
v 0.205049 -0.043391 -0.454240
v 0.205049 0.034312 -0.454240
v 0.087398 0.034312 -0.414264
v 0.087398 -0.043391 -0.414264
v -0.221515 -0.073692 -0.112031
v -0.221524 0.068714 -0.112026
v -0.261033 0.068500 -0.188459
v -0.261033 -0.073692 -0.188459
v 0.221514 0.068500 -0.437970
v 0.160312 0.068500 -0.498445
v 0.160312 0.083453 -0.498445
v 0.221514 0.083453 -0.437970
v -0.221515 0.083453 -0.112031
v -0.186418 0.068784 -0.137851
v -0.186418 0.083423 -0.137851
v 0.186418 0.083423 -0.412149
v 0.134913 0.083423 -0.463043
v 0.134913 0.068784 -0.463043
v 0.186418 0.068784 -0.412149
v -0.261033 0.083453 -0.188459
v 0.160312 -0.073692 -0.498445
v 0.083418 -0.073692 -0.537048
v 0.083418 0.068500 -0.537048
v 0.070201 0.083423 -0.495529
v 0.070201 0.068784 -0.495529
v -0.219675 0.083423 -0.202170
v -0.186418 0.083423 -0.137851
v -0.186418 0.068784 -0.137851
v -0.219675 0.068784 -0.202170
v 0.083418 0.083453 -0.537048
v -0.223454 0.068568 -0.435317
v -0.223445 -0.073692 -0.435313
v -0.262048 -0.073692 -0.358418
v -0.262048 0.068500 -0.358418
v -0.001642 -0.073692 -0.550000
v -0.001642 0.068500 -0.550000
v -0.275000 -0.073692 -0.273358
v -0.275000 0.068500 -0.273358
v -0.223445 0.083453 -0.435313
v -0.188043 0.083423 -0.409913
v -0.188043 0.068784 -0.409913
v -0.262048 0.083453 -0.358418
v -0.001382 0.083423 -0.506429
v -0.001382 0.068784 -0.506429
v -0.231429 0.083423 -0.273618
v -0.231429 0.068784 -0.273618
v -0.001642 0.083453 -0.550000
v -0.275000 0.083453 -0.273358
v -0.086541 -0.073692 -0.536033
v -0.086541 0.068500 -0.536033
v -0.220529 0.083423 -0.345201
v -0.220529 0.068784 -0.345201
v -0.072830 0.083423 -0.494675
v -0.072830 0.068784 -0.494675
v -0.086541 0.083453 -0.536033
v -0.188043 0.083423 -0.409913
v -0.188043 0.068784 -0.409913
v -0.072830 0.083423 -0.494675
v -0.072830 0.068784 -0.494675
v 0.219675 0.083423 -0.347830
v 0.219675 0.068784 -0.347830
v 0.261033 0.083453 -0.361541
v 0.261033 0.068500 -0.361541
v 0.001382 0.068784 -0.043571
v -0.070462 0.068782 -0.054459
v -0.070201 0.083423 -0.054471
v 0.001382 0.083423 -0.043571
v 0.221514 0.053152 -0.437970
v 0.261033 0.053152 -0.361541
v 0.001642 0.083453 -0.000000
v -0.083418 0.083453 -0.012952
v -0.083679 0.068812 -0.012941
v 0.001642 0.068501 -0.000000
v -0.083418 -0.073692 -0.012952
v -0.070462 0.068782 -0.054459
v -0.070462 -0.073693 -0.054459
v 0.089054 0.034312 -0.136790
v 0.089054 -0.043391 -0.136790
v -0.070201 0.083423 -0.054471
v 0.221514 -0.043391 -0.437970
v 0.221514 -0.073692 -0.437970
v 0.210971 0.049218 -0.448476
v 0.001642 -0.073692 0.000000
v 0.231429 0.083423 -0.276382
v 0.231429 0.068784 -0.276382
v 0.275000 0.083453 -0.276642
v 0.275000 0.068500 -0.276642
v 0.275000 0.053152 -0.276642
v 0.261033 -0.073692 -0.361541
v 0.261033 -0.043391 -0.361541
v 0.220529 0.083423 -0.204799
v 0.220529 0.068784 -0.204799
v 0.072830 0.083423 -0.055325
v 0.072830 0.068784 -0.055325
v 0.086541 0.083453 -0.013967
v 0.188043 0.083423 -0.140087
v 0.188043 0.068784 -0.140087
v 0.137149 0.083423 -0.088582
v 0.137149 0.068784 -0.088582
v 0.262048 0.068500 -0.191582
v 0.262048 0.083453 -0.191582
v 0.086541 0.068501 -0.013967
v 0.262048 0.053152 -0.191582
v 0.223445 0.083453 -0.114688
v 0.162969 0.083453 -0.053486
v 0.275000 -0.073692 -0.276642
v 0.275000 -0.043391 -0.276642
v 0.223445 0.068500 -0.114688
v 0.162969 0.068500 -0.053486
v 0.223445 0.053152 -0.114688
v 0.086541 -0.073692 -0.013967
v 0.207175 0.034312 -0.098222
v 0.207175 -0.043391 -0.098222
v 0.162969 -0.073692 -0.053486
v 0.262048 -0.073692 -0.191582
v 0.262048 -0.043391 -0.191582
v 0.223445 -0.073692 -0.114688
v 0.223445 -0.043391 -0.114688
v 0.093313 0.049218 -0.409780
v 0.213028 0.049218 -0.104056
v 0.094916 0.049218 -0.141345
v -0.072671 -0.073678 -0.494747
v -0.187473 -0.073663 -0.409495
v -0.186237 -0.073619 -0.137994
v -0.187473 -0.073663 -0.409495
v -0.220533 -0.073662 -0.345190
v -0.231445 -0.073659 -0.273711
v -0.219704 -0.073650 -0.202082
v -0.186237 -0.073619 -0.137994
v -0.072671 -0.073678 -0.494747
v -0.001427 -0.073678 -0.506448
v 0.070163 -0.073675 -0.495430
v 0.134937 -0.073666 -0.463047
v 0.187318 -0.073654 -0.411601
v 0.219826 -0.073640 -0.347136
v 0.231434 -0.073620 -0.276376
v 0.220536 -0.073588 -0.204825
v 0.188084 -0.073588 -0.140084
v 0.137143 -0.073576 -0.088590
v 0.072812 -0.073554 -0.055286
v 0.001389 -0.073554 -0.043563
v -0.070351 -0.073543 -0.054407
v -0.245276 -0.083453 -0.193683
v -0.208143 -0.083453 -0.121868
v -0.208143 0.070715 -0.121868
v -0.245276 0.070715 -0.193683
v -0.150636 -0.083453 -0.065043
v -0.150636 0.070715 -0.065043
v -0.078383 -0.083453 -0.028770
v -0.078383 0.070715 -0.028770
v 0.001543 -0.083453 -0.016600
v 0.001543 0.070715 -0.016600
v 0.081317 -0.083453 -0.029724
v 0.081317 0.070715 -0.029724
v 0.153132 -0.083453 -0.066857
v 0.153132 0.070715 -0.066857
v 0.209957 -0.083453 -0.124365
v 0.209957 0.070715 -0.124365
v 0.246230 -0.083453 -0.196618
v 0.246230 0.070715 -0.196618
v 0.258400 -0.083453 -0.276543
v 0.257143 0.070715 -0.276536
v 0.245276 -0.083453 -0.356318
v 0.244019 0.070715 -0.356310
v 0.208143 -0.083453 -0.428132
v 0.208143 0.070715 -0.428132
v 0.150635 -0.083453 -0.484957
v 0.150635 0.070715 -0.484957
v 0.078383 -0.083453 -0.521230
v 0.078383 0.070715 -0.521230
v -0.001543 -0.083453 -0.533400
v -0.001543 0.070715 -0.533400
v -0.081318 -0.083453 -0.520276
v -0.081318 0.070715 -0.520276
v -0.153132 -0.083453 -0.483143
v -0.153132 0.070715 -0.483143
v -0.209957 -0.083453 -0.425636
v -0.209957 0.070715 -0.425636
v -0.246230 -0.083453 -0.353383
v -0.246230 0.070715 -0.353383
v -0.258400 -0.083453 -0.273457
v -0.258400 0.070715 -0.273457
v -0.141499 0.070715 -0.170899
v -0.166743 0.070715 -0.219719
v -0.102404 0.070715 -0.132268
v -0.053286 0.070715 -0.107609
v 0.001049 0.070715 -0.099336
v 0.055281 0.070715 -0.108257
v 0.104102 0.070715 -0.133501
v 0.142732 0.070715 -0.172596
v 0.167391 0.070715 -0.221714
v 0.174407 0.070715 -0.276042
v 0.165486 0.070715 -0.330274
v 0.141499 0.070715 -0.379102
v 0.102404 0.070715 -0.417732
v 0.053286 0.070715 -0.442391
v -0.001049 0.070715 -0.450665
v -0.055281 0.070715 -0.441743
v -0.104102 0.070715 -0.416499
v -0.142732 0.070715 -0.377405
v -0.167391 0.070715 -0.328286
v -0.175665 0.070715 -0.273951
v -0.128938 0.076773 -0.180140
v -0.151941 0.076773 -0.224627
v -0.093314 0.076773 -0.144939
v -0.048555 0.076773 -0.122469
v 0.000956 0.076773 -0.114930
v 0.050373 0.076773 -0.123060
v 0.094860 0.076773 -0.146062
v 0.130061 0.076773 -0.181686
v 0.152531 0.076773 -0.226445
v 0.160070 0.076773 -0.275956
v 0.151940 0.076773 -0.325374
v 0.128938 0.076773 -0.369860
v 0.093314 0.076773 -0.405062
v 0.048555 0.076773 -0.427531
v -0.000956 0.076773 -0.435070
v -0.050373 0.076773 -0.426941
v -0.094860 0.076773 -0.403938
v -0.130061 0.076773 -0.368314
v -0.152531 0.076773 -0.323556
v -0.160070 0.076773 -0.274044
v -0.074219 0.076773 -0.220397
v -0.087460 0.076773 -0.246004
v -0.053713 0.076773 -0.200134
v -0.027949 0.076773 -0.187200
v 0.000550 0.076773 -0.182861
v 0.028996 0.076773 -0.187540
v 0.054603 0.076773 -0.200781
v 0.074866 0.076773 -0.221287
v 0.087800 0.076773 -0.247051
v 0.092139 0.076773 -0.275550
v 0.087460 0.076773 -0.303996
v 0.074219 0.076773 -0.329603
v 0.053713 0.076773 -0.349866
v 0.027949 0.076773 -0.362800
v -0.000550 0.076773 -0.367140
v -0.028996 0.076773 -0.362460
v -0.054603 0.076773 -0.349219
v -0.074866 0.076773 -0.328713
v -0.087800 0.076773 -0.302950
v -0.092139 0.076773 -0.274450
v -0.065687 0.071598 -0.226674
v -0.077405 0.071598 -0.249338
v -0.047538 0.071598 -0.208741
v -0.024736 0.071598 -0.197294
v 0.000487 0.071598 -0.193453
v 0.025662 0.071598 -0.197595
v 0.048326 0.071598 -0.209314
v 0.066259 0.071598 -0.227462
v 0.077706 0.071598 -0.250264
v 0.081547 0.071598 -0.275487
v 0.077405 0.071598 -0.300663
v 0.065687 0.071598 -0.323326
v 0.047538 0.071598 -0.341259
v 0.024736 0.071598 -0.352706
v -0.000487 0.071598 -0.356547
v -0.025662 0.071598 -0.352405
v -0.048326 0.071598 -0.340687
v -0.066259 0.071598 -0.322538
v -0.077706 0.071598 -0.299736
v -0.081547 0.071598 -0.274513
v -0.032223 0.071598 -0.251294
v -0.037972 0.071598 -0.262411
v -0.023320 0.071598 -0.242496
v -0.012135 0.071598 -0.236881
v 0.000239 0.071598 -0.234997
v 0.012589 0.071598 -0.237029
v 0.023707 0.071598 -0.242777
v 0.032504 0.071598 -0.251680
v 0.038119 0.071598 -0.262866
v 0.040003 0.071598 -0.275239
v 0.037972 0.071598 -0.287589
v 0.032223 0.071598 -0.298707
v 0.023320 0.071598 -0.307504
v 0.012134 0.071598 -0.313119
v -0.000239 0.071598 -0.315003
v -0.012589 0.071598 -0.312972
v -0.023707 0.071598 -0.307223
v -0.032504 0.071598 -0.298320
v -0.038119 0.071598 -0.287135
v -0.040003 0.071598 -0.274761
v -0.032223 0.076783 -0.251294
v -0.037972 0.076783 -0.262411
v -0.023320 0.076783 -0.242496
v -0.012135 0.076783 -0.236881
v 0.000239 0.076783 -0.234997
v 0.012589 0.076783 -0.237029
v 0.023707 0.076783 -0.242777
v 0.032504 0.076783 -0.251680
v 0.038119 0.076783 -0.262866
v 0.040003 0.076783 -0.275239
v 0.037972 0.076783 -0.287589
v 0.032223 0.076783 -0.298707
v 0.023320 0.076783 -0.307504
v 0.012134 0.076783 -0.313119
v -0.000239 0.076783 -0.315003
v -0.012589 0.076783 -0.312972
v -0.023707 0.076783 -0.307223
v -0.032504 0.076783 -0.298320
v -0.038119 0.076783 -0.287135
v -0.040003 0.076783 -0.274761
v -0.150636 -0.083453 -0.065043
v -0.208143 -0.083453 -0.121868
v -0.245276 -0.083453 -0.193683
v -0.258400 -0.083453 -0.273457
v -0.246230 -0.083453 -0.353383
v -0.209957 -0.083453 -0.425636
v -0.153132 -0.083453 -0.483143
v -0.081318 -0.083453 -0.520276
v -0.001543 -0.083453 -0.533400
v 0.078383 -0.083453 -0.521230
v 0.150635 -0.083453 -0.484957
v 0.208143 -0.083453 -0.428132
v 0.245276 -0.083453 -0.356318
v 0.258400 -0.083453 -0.276543
v 0.246230 -0.083453 -0.196618
v 0.209957 -0.083453 -0.124365
v 0.153132 -0.083453 -0.066857
v 0.081317 -0.083453 -0.029724
v 0.001543 -0.083453 -0.016600
v -0.078383 -0.083453 -0.028770
vn 0.9558 -0.0000 -0.2939
vn 0.9586 -0.0000 0.2848
vn 0.5954 0.6735 -0.4380
vn 0.5952 -0.6738 -0.4378
vn 0.4308 -0.6737 -0.6004
vn 0.5829 -0.0000 -0.8125
vn 0.8055 -0.0000 -0.5926
vn 0.6285 -0.6257 -0.4620
vn 0.6217 -0.7689 -0.1492
vn 0.6141 0.7765 0.1412
vn 0.9020 -0.2315 0.3644
vn 0.5305 -0.7662 0.3627
vn 0.7105 -0.6651 -0.2299
vn 0.7470 -0.6648 -0.0045
vn 0.7132 -0.6651 0.2214
vn 0.6340 -0.6257 0.4544
vn 0.6234 -0.7689 0.1418
vn 0.5261 -0.7661 -0.3691
vn 0.6485 0.5962 -0.4734
vn 0.6124 0.7765 -0.1486
vn 0.6006 0.6735 0.4309
vn 0.7043 0.6735 0.2242
vn 0.7391 0.6735 -0.0044
vn 0.7016 0.6735 -0.2326
vn 0.6541 0.5962 0.4656
vn 0.4375 -0.6744 0.5947
vn 0.6000 -0.6743 0.4305
vn 0.8125 -0.0000 0.5829
vn 0.5926 -0.0000 0.8055
vn 0.8976 -0.2315 -0.3752
vn -0.7016 0.6735 0.2326
vn -0.5954 0.6735 0.4380
vn -0.4309 0.6735 0.6006
vn -0.2242 0.6735 0.7043
vn 0.0044 0.6735 0.7392
vn 0.2326 0.6735 0.7016
vn 0.4380 0.6735 0.5954
vn 0.4309 0.6735 -0.6006
vn 0.2242 0.6735 -0.7043
vn -0.0044 0.6735 -0.7391
vn -0.2326 0.6735 -0.7016
vn -0.4380 0.6735 -0.5954
vn -0.6006 0.6735 -0.4309
vn -0.7043 0.6735 -0.2242
vn -0.7391 0.6735 0.0044
vn -0.4309 -0.6735 0.6006
vn -0.5955 -0.6735 0.4380
vn -0.7017 -0.6735 0.2326
vn -0.7392 -0.6735 0.0044
vn -0.7044 -0.6735 -0.2242
vn -0.6006 -0.6735 -0.4309
vn -0.4380 -0.6735 -0.5954
vn -0.2326 -0.6735 -0.7017
vn -0.0044 -0.6735 -0.7392
vn 0.2242 -0.6735 -0.7044
vn 0.4309 -0.6735 -0.6006
vn 0.5974 -0.6729 -0.4362
vn 0.7045 -0.6711 -0.2306
vn 0.7414 -0.6711 -0.0073
vn 0.7057 -0.6729 0.2217
vn 0.6006 -0.6735 0.4309
vn 0.4380 -0.6735 0.5955
vn 0.2326 -0.6735 0.7017
vn 0.0044 -0.6735 0.7392
vn -0.2242 -0.6735 0.7044
vn 0.7942 -0.2210 0.5660
vn -0.1868 -0.5701 0.8001
vn -0.2278 0.0002 0.9737
vn -0.9492 -0.0000 0.3146
vn -0.7013 -0.6739 0.2326
vn 0.4308 0.6738 -0.6004
vn 0.5952 0.6738 -0.4379
vn -0.1868 0.5699 0.8002
vn 0.8741 -0.0000 0.4857
vn 0.7892 0.5859 0.1843
vn -0.5384 0.7438 0.3961
vn -0.3896 0.7438 0.5431
vn -0.5829 -0.0000 0.8125
vn -0.8055 -0.0000 0.5926
vn -0.7014 0.6738 0.2325
vn 0.2242 -0.6737 -0.7042
vn 0.3033 -0.0000 -0.9529
vn -0.2027 0.7438 0.6369
vn -0.3033 -0.0000 0.9529
vn 0.6344 0.7438 -0.2103
vn 0.7892 0.5858 0.1844
vn 0.9492 -0.0000 -0.3147
vn 0.2241 0.6738 -0.7041
vn -0.2394 0.0002 -0.9709
vn -0.1964 -0.5697 -0.7980
vn -0.7041 -0.6738 -0.2241
vn -0.9529 -0.0000 -0.3033
vn -0.0044 -0.6736 -0.7390
vn -0.0060 -0.0000 -1.0000
vn -0.7389 -0.6738 0.0044
vn -1.0000 -0.0000 0.0060
vn -0.1963 0.5699 -0.7979
vn 0.7869 0.5858 -0.1937
vn 0.8681 -0.0000 -0.4965
vn -0.7041 0.6738 -0.2241
vn 0.0040 0.7438 0.6684
vn 0.0060 -0.0000 1.0000
vn 0.6684 0.7438 -0.0040
vn 1.0000 -0.0000 -0.0060
vn -0.0044 0.6738 -0.7389
vn -0.7389 0.6738 0.0044
vn -0.7040 -0.5694 -0.4244
vn -0.8559 -0.0001 -0.5172
vn 0.6369 0.7438 0.2027
vn 0.9529 -0.0000 0.3033
vn -0.4192 0.5859 0.6935
vn -0.7314 -0.0000 0.6819
vn -0.7033 0.5697 -0.4251
vn 0.7870 0.5858 -0.1938
vn 0.8681 -0.0001 -0.4964
vn -0.4191 0.5859 0.6936
vn -0.7314 -0.0002 0.6819
vn -0.6344 0.7438 0.2103
vn -0.9492 -0.0000 0.3147
vn 0.7014 0.6738 -0.2325
vn -0.0061 -0.0006 -1.0000
vn -0.7439 0.0060 -0.6683
vn -0.4217 0.5896 -0.6889
vn -0.0040 0.7438 -0.6684
vn 0.0045 0.6742 0.7386
vn -0.6933 0.5748 0.4347
vn -0.8503 0.0067 0.5262
vn 0.0061 0.0003 1.0000
vn -0.6976 -0.5703 0.4336
vn -0.7439 0.0060 -0.6682
vn -0.9537 -0.0008 -0.3006
vn 0.7874 -0.2210 -0.5755
vn -0.4216 0.5896 -0.6889
vn 0.0044 -0.6746 0.7382
vn -0.6684 0.7438 0.0040
vn 0.7389 0.6738 -0.0044
vn 0.7013 -0.6739 -0.2325
vn -0.6369 0.7438 -0.2027
vn -0.2103 0.7438 -0.6344
vn -0.3147 -0.0000 -0.9492
vn 0.2325 0.6738 0.7014
vn -0.5431 0.7438 -0.3896
vn -0.8125 -0.0000 -0.5829
vn -0.3961 0.7438 -0.5384
vn -0.5926 -0.0000 -0.8055
vn 0.7041 0.6738 0.2241
vn 0.3147 -0.0000 0.9492
vn 0.6004 0.6738 0.4308
vn 0.4379 0.6738 0.5952
vn 0.7386 -0.6741 -0.0044
vn 0.2323 -0.6746 0.7007
vn 0.7036 -0.6743 0.2241
vn -0.6370 -0.7409 0.2128
vn 0.3931 -0.7391 -0.5470
vn 0.4002 -0.7391 0.5418
vn 0.3932 -0.7389 -0.5472
vn 0.0006 -1.0000 0.0002
vn 0.0007 -1.0000 0.0001
vn 0.0010 -1.0000 -0.0001
vn 0.4001 -0.7390 0.5421
vn -0.6371 -0.7408 0.2129
vn -0.0000 -1.0000 0.0003
vn -0.0001 -1.0000 0.0004
vn -0.0003 -1.0000 0.0006
vn -0.0007 -1.0000 0.0006
vn -0.0012 -1.0000 0.0005
vn -0.0018 -1.0000 0.0002
vn -0.0023 -1.0000 -0.0005
vn -0.0020 -1.0000 -0.0014
vn -0.0017 -1.0000 -0.0021
vn -0.0011 -1.0000 -0.0029
vn -0.0000 -1.0000 -0.0032
vn 0.0004 -1.0000 -0.0035
vn -0.7016 -0.6736 0.2324
vn -0.5954 -0.6736 0.4380
vn -0.4307 -0.6736 0.6006
vn -0.2242 -0.6736 0.7043
vn 0.0044 -0.6736 0.7391
vn 0.0044 0.6735 0.7391
vn 0.2326 -0.6736 0.7016
vn 0.4380 -0.6736 0.5954
vn 0.6005 -0.6736 0.4308
vn 0.7056 -0.6730 0.2217
vn 0.7060 0.6726 0.2218
vn 0.7412 -0.6712 -0.0073
vn 0.7355 0.6774 -0.0073
vn 0.7044 -0.6713 -0.2306
vn 0.6991 0.6773 -0.2292
vn 0.5972 -0.6731 -0.4362
vn 0.5976 0.6727 -0.4363
vn 0.4307 -0.6736 -0.6006
vn 0.2242 -0.6736 -0.7043
vn -0.0044 -0.6736 -0.7391
vn -0.2326 -0.6736 -0.7016
vn -0.4380 -0.6736 -0.5954
vn -0.6005 -0.6736 -0.4308
vn -0.7043 -0.6736 -0.2242
vn -0.7391 -0.6736 0.0044
vn -0.1340 0.9861 0.0986
vn -0.1579 0.9861 0.0523
vn -0.0970 0.9861 0.1351
vn -0.0504 0.9861 0.1585
vn 0.0010 0.9861 0.1663
vn 0.0523 0.9861 0.1579
vn 0.0986 0.9861 0.1340
vn 0.1351 0.9861 0.0969
vn 0.1604 0.9858 0.0497
vn 0.1775 0.9841 -0.0024
vn 0.1683 0.9842 -0.0549
vn 0.1359 0.9858 -0.0985
vn 0.0970 0.9861 -0.1351
vn 0.0504 0.9861 -0.1585
vn -0.0010 0.9861 -0.1663
vn -0.0523 0.9861 -0.1579
vn -0.0986 0.9861 -0.1340
vn -0.1351 0.9861 -0.0970
vn -0.1585 0.9861 -0.0504
vn -0.1663 0.9861 0.0010
vn -0.1626 0.9794 0.1196
vn -0.1916 0.9794 0.0635
vn -0.1177 0.9794 0.1640
vn -0.0612 0.9794 0.1924
vn 0.0012 0.9794 0.2019
vn 0.0635 0.9794 0.1916
vn 0.1196 0.9794 0.1626
vn 0.1640 0.9794 0.1177
vn 0.1964 0.9787 0.0606
vn 0.2136 0.9769 -0.0031
vn 0.2032 0.9770 -0.0650
vn 0.1662 0.9787 -0.1202
vn 0.1177 0.9794 -0.1640
vn 0.0612 0.9794 -0.1924
vn -0.0012 0.9794 -0.2019
vn -0.0635 0.9794 -0.1916
vn -0.1196 0.9794 -0.1626
vn -0.1640 0.9794 -0.1177
vn -0.1924 0.9794 -0.0612
vn -0.2019 0.9794 0.0012
vn 0.1641 0.9790 -0.1207
vn 0.1933 0.9790 -0.0641
vn 0.1187 0.9790 -0.1655
vn 0.0618 0.9790 -0.1941
vn -0.0012 0.9790 -0.2037
vn -0.0641 0.9790 -0.1933
vn -0.1207 0.9790 -0.1641
vn -0.1655 0.9790 -0.1187
vn -0.1941 0.9790 -0.0618
vn -0.2037 0.9790 0.0012
vn -0.1933 0.9790 0.0641
vn -0.1641 0.9790 0.1207
vn -0.1187 0.9790 0.1655
vn -0.0618 0.9790 0.1941
vn 0.0012 0.9790 0.2037
vn 0.0641 0.9790 0.1933
vn 0.1207 0.9790 0.1641
vn 0.1655 0.9790 0.1187
vn 0.1941 0.9790 0.0618
vn 0.2037 0.9790 -0.0012
vn 0.1985 0.9692 -0.1460
vn 0.2339 0.9692 -0.0775
vn 0.1437 0.9692 -0.2002
vn 0.0747 0.9692 -0.2348
vn -0.0015 0.9692 -0.2464
vn -0.0775 0.9692 -0.2339
vn -0.1460 0.9692 -0.1985
vn -0.2002 0.9692 -0.1437
vn -0.2348 0.9692 -0.0747
vn -0.2464 0.9692 0.0015
vn -0.2339 0.9692 0.0775
vn -0.1985 0.9692 0.1460
vn -0.1437 0.9692 0.2002
vn -0.0747 0.9692 0.2348
vn 0.0015 0.9692 0.2464
vn 0.0775 0.9692 0.2339
vn 0.1460 0.9692 0.1985
vn 0.2002 0.9692 0.1437
vn 0.2348 0.9692 0.0747
vn 0.2464 0.9692 -0.0015
vn -0.5381 0.7441 0.3959
vn -0.6342 0.7441 0.2102
vn -0.3895 0.7441 0.5428
vn -0.2027 0.7441 0.6366
vn 0.0040 0.7441 0.6681
vn 0.2102 0.7441 0.6342
vn 0.3959 0.7441 0.5381
vn 0.5428 0.7441 0.3895
vn 0.6366 0.7441 0.2027
vn 0.6681 0.7441 -0.0040
vn 0.6342 0.7441 -0.2102
vn 0.5381 0.7441 -0.3959
vn 0.3895 0.7441 -0.5428
vn 0.2027 0.7441 -0.6366
vn -0.0040 0.7441 -0.6681
vn -0.2102 0.7441 -0.6342
vn -0.3959 0.7441 -0.5381
vn -0.5428 0.7441 -0.3895
vn -0.6366 0.7441 -0.2027
vn -0.6681 0.7441 0.0040
vt 0.020380 0.978050
vt 0.972190 0.977670
vt 0.971810 0.025850
vt 0.019990 0.026240
vt 0.404490 0.909480
vt 0.404490 0.934080
vt 0.447430 0.934080
vt 0.447430 0.801530
vt 0.405220 0.801530
vt 0.405220 0.843710
vt 0.419850 0.851680
vt 0.421270 0.904700
vt 0.421470 0.864020
vt 0.370250 0.868640
vt 0.359450 0.835160
vt 0.308530 0.830880
vt 0.257940 0.835160
vt 0.211610 0.843710
vt 0.196790 0.849780
vt 0.245660 0.868640
vt 0.245660 0.882540
vt 0.193680 0.902760
vt 0.210150 0.909480
vt 0.256350 0.918030
vt 0.307140 0.922310
vt 0.358300 0.918030
vt 0.370250 0.882540
vt 0.164260 0.934080
vt 0.210170 0.934080
vt 0.211610 0.801530
vt 0.164260 0.801530
vt 0.193570 0.861970
vt 0.252390 0.242010
vt 0.245710 0.245340
vt 0.240390 0.250570
vt 0.236940 0.257190
vt 0.235710 0.264550
vt 0.236810 0.271930
vt 0.240140 0.278610
vt 0.245370 0.283930
vt 0.251990 0.287380
vt 0.259350 0.288610
vt 0.266730 0.287510
vt 0.273410 0.284180
vt 0.278730 0.278950
vt 0.282180 0.272330
vt 0.283410 0.264970
vt 0.282310 0.257590
vt 0.278980 0.250910
vt 0.273750 0.245590
vt 0.267130 0.242140
vt 0.259770 0.240910
vt 0.529960 0.304160
vt 0.586730 0.248180
vt 0.658010 0.212490
vt 0.736840 0.200570
vt 0.815490 0.213590
vt 0.886270 0.250280
vt 0.942250 0.307050
vt 0.977940 0.378340
vt 0.989860 0.457160
vt 0.976840 0.535820
vt 0.940150 0.606590
vt 0.883380 0.662570
vt 0.812100 0.698270
vt 0.733270 0.710190
vt 0.654620 0.697160
vt 0.583840 0.660470
vt 0.527860 0.603710
vt 0.492170 0.532420
vt 0.480250 0.453590
vt 0.493270 0.374940
vt 0.370250 0.870880
vt 0.920070 0.935740
vt 0.919780 0.801650
vt 0.852930 0.801650
vt 0.852930 0.935740
vt 0.447430 0.777080
vt 0.405220 0.777080
vt 0.919730 0.777250
vt 0.942230 0.801650
vt 0.942230 0.777250
vt 0.405220 0.736800
vt 0.447430 0.736800
vt 0.447430 0.716290
vt 0.405220 0.716290
vt 0.852930 0.777250
vt 0.505840 0.934080
vt 0.505840 0.801530
vt 0.505840 0.736800
vt 0.505840 0.716290
vt 0.852930 0.737620
vt 0.919670 0.737620
vt 0.919600 0.717910
vt 0.852930 0.717910
vt 0.505840 0.777080
vt 0.644540 0.801650
vt 0.644540 0.935740
vt 0.708070 0.935740
vt 0.708070 0.801650
vt 0.532450 0.934080
vt 0.532450 0.801530
vt 0.778950 0.935740
vt 0.778950 0.801650
vt 0.644540 0.777250
vt 0.623640 0.777250
vt 0.623640 0.801650
vt 0.708070 0.777250
vt 0.532450 0.736800
vt 0.532450 0.716290
vt 0.778950 0.737620
vt 0.778950 0.717910
vt 0.532450 0.777080
vt 0.778950 0.777250
vt 0.572460 0.934080
vt 0.572460 0.801530
vt 0.708070 0.737620
vt 0.708070 0.717910
vt 0.572460 0.736800
vt 0.572460 0.716290
vt 0.572460 0.777080
vt 0.644540 0.737620
vt 0.644540 0.717910
vt 0.586260 0.777080
vt 0.586260 0.801530
vt 0.359450 0.736800
vt 0.359450 0.716290
vt 0.359450 0.777080
vt 0.359450 0.801530
vt 0.075690 0.716290
vt 0.022170 0.716290
vt 0.022170 0.736800
vt 0.075690 0.736800
vt 0.075690 0.777080
vt 0.022170 0.777080
vt 0.022170 0.801530
vt 0.075690 0.801530
vt 0.022170 0.934080
vt 0.006420 0.801530
vt 0.006000 0.934080
vt 0.245660 0.870880
vt 0.006460 0.777080
vt 0.075690 0.934080
vt 0.308530 0.736800
vt 0.308530 0.716290
vt 0.308530 0.777080
vt 0.308530 0.801530
vt 0.358100 0.934080
vt 0.257940 0.736800
vt 0.257940 0.716290
vt 0.104500 0.736800
vt 0.104500 0.716290
vt 0.104500 0.777080
vt 0.211610 0.736800
vt 0.211610 0.716290
vt 0.164260 0.736800
vt 0.164260 0.716290
vt 0.257940 0.801530
vt 0.257940 0.777080
vt 0.104500 0.801530
vt 0.211610 0.777080
vt 0.164260 0.777080
vt 0.307140 0.934080
vt 0.104500 0.934080
vt 0.256350 0.934080
vt 0.586260 0.934080
vt 0.623640 0.935740
vt 0.942230 0.935740
vt 0.644540 0.989060
vt 0.708070 0.989060
vt 0.778950 0.989060
vt 0.852930 0.989060
vt 0.920160 0.989060
vt 0.572460 0.988250
vt 0.532450 0.988250
vt 0.505840 0.988250
vt 0.447430 0.988250
vt 0.404490 0.988250
vt 0.358100 0.988250
vt 0.307140 0.988250
vt 0.256350 0.988250
vt 0.210170 0.988250
vt 0.164260 0.988250
vt 0.104500 0.988250
vt 0.075690 0.988250
vt 0.022170 0.988250
vt 0.183580 0.023620
vt 0.112780 0.058900
vt 0.152730 0.114930
vt 0.204260 0.089260
vt 0.056350 0.114330
vt 0.111660 0.155280
vt 0.019810 0.184490
vt 0.085070 0.206340
vt 0.006740 0.262500
vt 0.075560 0.263120
vt 0.013740 0.341860
vt 0.079820 0.321330
vt 0.053700 0.411540
vt 0.109730 0.371590
vt 0.109130 0.467970
vt 0.150080 0.412660
vt 0.179290 0.504510
vt 0.201140 0.439250
vt 0.257300 0.517580
vt 0.257920 0.448760
vt 0.335540 0.505900
vt 0.314860 0.440270
vt 0.406340 0.470620
vt 0.366390 0.414590
vt 0.457720 0.420930
vt 0.402530 0.375720
vt 0.495840 0.349760
vt 0.429270 0.323940
vt 0.512380 0.267020
vt 0.443560 0.266400
vt 0.500700 0.188780
vt 0.435070 0.209460
vt 0.465420 0.117980
vt 0.409390 0.157930
vt 0.409990 0.061550
vt 0.369040 0.116860
vt 0.339830 0.025010
vt 0.317980 0.090270
vt 0.261820 0.011940
vt 0.261200 0.080760
vt 0.186940 0.162910
vt 0.221970 0.145450
vt 0.159020 0.190330
vt 0.140940 0.225040
vt 0.134470 0.263640
vt 0.140250 0.302350
vt 0.157710 0.337380
vt 0.185130 0.365300
vt 0.219840 0.383380
vt 0.258440 0.389850
vt 0.297150 0.384070
vt 0.332180 0.366620
vt 0.360100 0.339190
vt 0.378180 0.304480
vt 0.384650 0.265880
vt 0.378870 0.227170
vt 0.361420 0.192140
vt 0.333990 0.164220
vt 0.299280 0.146140
vt 0.260680 0.139670
vt 0.193390 0.171950
vt 0.225300 0.156040
vt 0.167940 0.196940
vt 0.151470 0.228570
vt 0.145580 0.263740
vt 0.150840 0.299020
vt 0.166750 0.330940
vt 0.191740 0.356380
vt 0.223370 0.372850
vt 0.258540 0.378740
vt 0.293820 0.373480
vt 0.325740 0.357570
vt 0.351180 0.332580
vt 0.367650 0.300950
vt 0.373540 0.265780
vt 0.368280 0.230500
vt 0.352370 0.198590
vt 0.327380 0.173140
vt 0.295750 0.156670
vt 0.260580 0.150780
vt 0.221470 0.211340
vt 0.239840 0.202180
vt 0.206820 0.225720
vt 0.197340 0.243930
vt 0.193950 0.264170
vt 0.196980 0.284480
vt 0.206140 0.302850
vt 0.220520 0.317500
vt 0.238730 0.326980
vt 0.258970 0.330370
vt 0.279280 0.327340
vt 0.297650 0.318190
vt 0.312300 0.303800
vt 0.321780 0.285590
vt 0.325170 0.265350
vt 0.322140 0.245040
vt 0.312990 0.226670
vt 0.298600 0.212020
vt 0.280390 0.202540
vt 0.260150 0.199150
vt 0.225850 0.217480
vt 0.242110 0.209370
vt 0.212890 0.230210
vt 0.204490 0.246320
vt 0.201490 0.264240
vt 0.204170 0.282210
vt 0.212280 0.298470
vt 0.225010 0.311430
vt 0.241120 0.319830
vt 0.259040 0.322830
vt 0.277010 0.320150
vt 0.293270 0.312040
vt 0.306230 0.299310
vt 0.314630 0.283200
vt 0.317630 0.265280
vt 0.314950 0.247310
vt 0.306840 0.231050
vt 0.294110 0.218090
vt 0.278000 0.209690
vt 0.260080 0.206690
vt 0.243020 0.241570
vt 0.251000 0.237590
vt 0.236660 0.247810
vt 0.232550 0.255720
vt 0.231070 0.264510
vt 0.232390 0.273320
vt 0.236370 0.281300
vt 0.242610 0.287660
vt 0.250520 0.291770
vt 0.259310 0.293250
vt 0.268120 0.291930
vt 0.276100 0.287960
vt 0.282460 0.281710
vt 0.286570 0.273810
vt 0.288050 0.265010
vt 0.286730 0.256200
vt 0.282760 0.248220
vt 0.276510 0.241860
vt 0.268600 0.237750
vt 0.259810 0.236270
s 0
usemtl rumbi_eyes
f 1/1/1 2/2/1 3/3/1
f 1/1/1 3/3/1 4/4/1
f 5/1/2 6/2/2 7/3/2
f 5/1/2 7/3/2 8/4/2
s 1
usemtl rumbi
f 88/5/3 89/6/4 29/7/5
f 18/8/6 17/9/7 76/10/8
f 18/8/6 76/10/8 90/11/9
f 9/12/10 88/5/3 29/7/5
f 18/8/6 90/11/9 10/13/11
f 10/13/11 9/12/10 29/7/5
f 29/7/5 18/8/6 10/13/11
f 127/14/12 90/11/9 76/10/8
f 76/10/8 77/15/13 96/16/14
f 96/16/14 111/17/15 118/18/16
f 118/18/16 128/19/17 129/20/18
f 129/20/18 127/14/12 76/10/8
f 76/10/8 96/16/14 118/18/16
f 76/10/8 118/18/16 129/20/18
f 86/21/19 121/22/20 126/23/21
f 126/23/21 124/24/22 115/25/23
f 115/25/23 98/26/24 88/5/3
f 88/5/3 9/12/10 12/27/25
f 12/27/25 86/21/19 126/23/21
f 126/23/21 115/25/23 88/5/3
f 126/23/21 88/5/3 12/27/25
f 122/28/26 125/29/27 126/23/21
f 122/28/26 126/23/21 121/22/20
f 118/18/16 116/30/28 117/31/29
f 128/19/17 118/18/16 117/31/29
f 117/31/29 122/28/26 121/22/20
f 120/32/30 128/19/17 117/31/29
f 121/22/20 120/32/30 117/31/29
f 292/33/31 291/34/32 293/35/33
f 293/35/33 294/36/34 295/37/35
f 295/37/35 296/38/36 297/39/37
f 297/39/37 298/40/21 299/41/22
f 299/41/22 300/42/23 301/43/24
f 301/43/24 302/44/3 303/45/38
f 303/45/38 304/46/39 305/47/40
f 305/47/40 306/48/41 307/49/42
f 307/49/42 308/50/43 309/51/44
f 309/51/44 310/52/45 292/33/31
f 292/33/31 293/35/33 295/37/35
f 295/37/35 297/39/37 299/41/22
f 299/41/22 301/43/24 303/45/38
f 303/45/38 305/47/40 307/49/42
f 307/49/42 309/51/44 292/33/31
f 292/33/31 295/37/35 299/41/22
f 299/41/22 303/45/38 307/49/42
f 299/41/22 307/49/42 292/33/31
f 311/53/46 312/54/47 313/55/48
f 313/55/48 314/56/49 315/57/50
f 315/57/50 316/58/51 317/59/52
f 317/59/52 318/60/53 319/61/54
f 319/61/54 320/62/55 321/63/56
f 321/63/56 322/64/57 323/65/58
f 323/65/58 324/66/59 325/67/60
f 325/67/60 326/68/61 327/69/62
f 327/69/62 328/70/63 329/71/64
f 329/71/64 330/72/65 311/53/46
f 311/53/46 313/55/48 315/57/50
f 315/57/50 317/59/52 319/61/54
f 319/61/54 321/63/56 323/65/58
f 323/65/58 325/67/60 327/69/62
f 327/69/62 329/71/64 311/53/46
f 311/53/46 315/57/50 319/61/54
f 319/61/54 323/65/58 327/69/62
f 319/61/54 327/69/62 311/53/46
f 9/12/10 10/13/11 11/73/66
f 9/12/10 11/73/66 12/27/25
f 13/74/67 14/75/68 15/76/69
f 13/74/67 15/76/69 16/77/70
f 17/9/7 18/8/6 19/78/71
f 17/9/7 19/78/71 20/79/72
f 21/80/73 14/75/68 22/81/74
f 21/80/73 22/81/74 23/82/75
f 24/83/76 25/84/77 26/85/78
f 24/83/76 26/85/78 27/86/79
f 20/79/72 19/78/71 25/84/77
f 20/79/72 25/84/77 24/83/76
f 14/75/68 21/80/73 28/87/80
f 14/75/68 28/87/80 15/76/69
f 29/7/5 30/88/81 31/89/82
f 29/7/5 31/89/82 18/8/6
f 25/84/77 32/90/83 33/91/84
f 25/84/77 33/91/84 26/85/78
f 34/92/85 35/93/86 36/94/74
f 34/92/85 36/94/74 37/95/87
f 19/78/71 38/96/88 32/90/83
f 19/78/71 32/90/83 25/84/77
f 28/87/80 21/80/73 35/93/86
f 28/87/80 35/93/86 34/92/85
f 18/8/6 31/89/82 38/96/88
f 18/8/6 38/96/88 19/78/71
f 39/97/89 40/98/90 41/99/91
f 39/97/89 41/99/91 42/100/92
f 30/88/81 43/101/93 44/102/94
f 30/88/81 44/102/94 31/89/82
f 45/103/95 16/77/70 15/76/69
f 45/103/95 15/76/69 46/104/96
f 47/105/97 48/106/98 49/107/99
f 47/105/97 49/107/99 39/97/89
f 39/97/89 42/100/92 50/108/100
f 39/97/89 50/108/100 47/105/97
f 32/90/83 51/109/101 52/110/102
f 32/90/83 52/110/102 33/91/84
f 53/111/103 34/92/85 37/95/87
f 53/111/103 37/95/87 54/112/104
f 38/96/88 55/113/105 51/109/101
f 38/96/88 51/109/101 32/90/83
f 56/114/106 28/87/80 34/92/85
f 56/114/106 34/92/85 53/111/103
f 31/89/82 44/102/94 55/113/105
f 31/89/82 55/113/105 38/96/88
f 46/104/96 15/76/69 28/87/80
f 46/104/96 28/87/80 56/114/106
f 41/99/91 45/103/95 46/104/96
f 41/99/91 46/104/96 42/100/92
f 43/101/93 57/115/107 58/116/108
f 43/101/93 58/116/108 44/102/94
f 59/117/109 53/111/103 54/112/104
f 59/117/109 54/112/104 60/118/110
f 51/109/101 61/119/111 62/120/112
f 51/109/101 62/120/112 52/110/102
f 50/108/100 56/114/106 53/111/103
f 50/108/100 53/111/103 59/117/109
f 55/113/105 63/121/113 61/119/111
f 55/113/105 61/119/111 51/109/101
f 64/122/114 59/117/109 60/118/110
f 64/122/114 60/118/110 65/123/115
f 42/100/92 46/104/96 56/114/106
f 42/100/92 56/114/106 50/108/100
f 44/102/94 58/116/108 63/121/113
f 44/102/94 63/121/113 55/113/105
f 66/124/116 63/121/113 58/116/108
f 66/124/116 58/116/108 67/125/117
f 47/105/97 50/108/100 59/117/109
f 47/105/97 59/117/109 64/122/114
f 68/126/118 24/83/76 27/86/79
f 68/126/118 27/86/79 69/127/119
f 70/128/120 20/79/72 24/83/76
f 70/128/120 24/83/76 68/126/118
f 71/129/87 17/9/7 20/79/72
f 71/129/87 20/79/72 70/128/120
f 72/130/121 73/131/122 74/132/123
f 72/130/121 74/132/123 75/133/124
f 76/10/8 17/9/7 71/129/87
f 76/10/8 71/129/87 77/15/13
f 78/134/125 79/135/126 80/136/127
f 78/134/125 80/136/127 81/137/128
f 82/138/129 80/136/127 83/139/130
f 82/138/129 83/139/130 84/140/131
f 12/27/25 11/73/66 85/141/132
f 12/27/25 85/141/132 86/21/19
f 79/135/126 87/142/133 83/139/130
f 79/135/126 83/139/130 80/136/127
f 81/137/128 80/136/127 82/138/129
f 81/137/128 82/138/129 91/143/134
f 92/144/135 68/126/118 69/127/119
f 92/144/135 69/127/119 93/145/96
f 94/146/136 70/128/120 68/126/118
f 94/146/136 68/126/118 92/144/135
f 79/135/126 78/134/125 75/133/124
f 79/135/126 75/133/124 74/132/123
f 95/147/104 71/129/87 70/128/120
f 95/147/104 70/128/120 94/146/136
f 77/15/13 71/129/87 95/147/104
f 77/15/13 95/147/104 96/16/14
f 97/148/137 89/6/4 88/5/3
f 97/148/137 88/5/3 98/26/24
f 99/149/138 92/144/135 93/145/96
f 99/149/138 93/145/96 100/150/92
f 75/133/124 101/151/139 102/152/140
f 75/133/124 102/152/140 72/130/121
f 78/134/125 103/153/141 101/151/139
f 78/134/125 101/151/139 75/133/124
f 104/154/142 99/149/138 100/150/92
f 104/154/142 100/150/92 105/155/143
f 101/151/139 106/156/144 107/157/145
f 101/151/139 107/157/145 102/152/140
f 108/158/110 95/147/104 94/146/136
f 108/158/110 94/146/136 109/159/146
f 81/137/128 110/160/147 103/153/141
f 81/137/128 103/153/141 78/134/125
f 106/156/144 104/154/142 105/155/143
f 106/156/144 105/155/143 107/157/145
f 96/16/14 95/147/104 108/158/110
f 96/16/14 108/158/110 111/17/15
f 112/161/148 109/159/146 99/149/138
f 112/161/148 99/149/138 104/154/142
f 103/153/141 113/162/149 106/156/144
f 103/153/141 106/156/144 101/151/139
f 113/162/149 112/161/148 104/154/142
f 113/162/149 104/154/142 106/156/144
f 114/163/150 97/148/137 98/26/24
f 114/163/150 98/26/24 115/25/23
f 116/30/28 108/158/110 109/159/146
f 116/30/28 109/159/146 112/161/148
f 110/160/147 117/31/29 113/162/149
f 110/160/147 113/162/149 103/153/141
f 111/17/15 108/158/110 116/30/28
f 111/17/15 116/30/28 118/18/16
f 117/31/29 116/30/28 112/161/148
f 117/31/29 112/161/148 113/162/149
f 91/143/134 119/164/151 110/160/147
f 91/143/134 110/160/147 81/137/128
f 120/32/30 121/22/20 86/21/19
f 120/32/30 86/21/19 85/141/132
f 119/164/151 122/28/26 117/31/29
f 119/164/151 117/31/29 110/160/147
f 123/165/152 114/163/150 115/25/23
f 123/165/152 115/25/23 124/24/22
f 125/29/27 123/165/152 124/24/22
f 125/29/27 124/24/22 126/23/21
f 10/13/11 90/11/9 127/14/12
f 10/13/11 127/14/12 11/73/66
f 85/141/132 11/73/66 127/14/12
f 85/141/132 127/14/12 129/20/18
f 128/19/17 120/32/30 85/141/132
f 128/19/17 85/141/132 129/20/18
f 67/125/117 58/116/108 57/115/107
f 67/125/117 57/115/107 130/166/153
f 39/97/89 49/107/99 131/167/154
f 39/97/89 131/167/154 40/98/90
f 22/81/74 14/75/68 13/74/67
f 22/81/74 13/74/67 132/168/155
f 40/98/90 133/169/156 134/170/157
f 40/98/90 134/170/157 41/99/91
f 41/99/91 134/170/157 135/171/158
f 41/99/91 135/171/158 45/103/95
f 45/103/95 135/171/158 136/172/159
f 45/103/95 136/172/159 16/77/70
f 16/77/70 136/172/159 137/173/160
f 16/77/70 137/173/160 13/74/67
f 138/174/161 57/115/107 43/101/93
f 138/174/161 43/101/93 139/175/162
f 139/175/162 43/101/93 30/88/81
f 139/175/162 30/88/81 140/176/163
f 140/176/163 30/88/81 29/7/5
f 140/176/163 29/7/5 141/177/164
f 141/177/164 29/7/5 89/6/4
f 141/177/164 89/6/4 142/178/165
f 94/146/136 92/144/135 99/149/138
f 94/146/136 99/149/138 109/159/146
f 142/178/165 89/6/4 97/148/137
f 142/178/165 97/148/137 143/179/166
f 143/179/166 97/148/137 114/163/150
f 143/179/166 114/163/150 144/180/167
f 144/180/167 114/163/150 123/165/152
f 144/180/167 123/165/152 145/181/168
f 145/181/168 123/165/152 125/29/27
f 145/181/168 125/29/27 146/182/169
f 146/182/169 125/29/27 122/28/26
f 146/182/169 122/28/26 147/183/170
f 147/183/170 122/28/26 119/164/151
f 147/183/170 119/164/151 148/184/171
f 148/184/171 119/164/151 91/143/134
f 148/184/171 91/143/134 149/185/172
f 149/185/172 91/143/134 82/138/129
f 149/185/172 82/138/129 150/186/173
f 151/187/174 152/188/175 153/189/32
f 151/187/174 153/189/32 154/190/31
f 152/188/175 155/191/176 156/192/33
f 152/188/175 156/192/33 153/189/32
f 155/191/176 157/193/177 158/194/34
f 155/191/176 158/194/34 156/192/33
f 157/193/177 159/195/178 160/196/179
f 157/193/177 160/196/179 158/194/34
f 159/195/178 161/197/180 162/198/36
f 159/195/178 162/198/36 160/196/179
f 161/197/180 163/199/181 164/200/37
f 161/197/180 164/200/37 162/198/36
f 163/199/181 165/201/182 166/202/21
f 163/199/181 166/202/21 164/200/37
f 165/201/182 167/203/183 168/204/184
f 165/201/182 168/204/184 166/202/21
f 167/203/183 169/205/185 170/206/186
f 167/203/183 170/206/186 168/204/184
f 169/205/185 171/207/187 172/208/188
f 169/205/185 172/208/188 170/206/186
f 171/207/187 173/209/189 174/210/190
f 171/207/187 174/210/190 172/208/188
f 173/209/189 175/211/191 176/212/38
f 173/209/189 176/212/38 174/210/190
f 175/211/191 177/213/192 178/214/39
f 175/211/191 178/214/39 176/212/38
f 177/213/192 179/215/193 180/216/40
f 177/213/192 180/216/40 178/214/39
f 179/215/193 181/217/194 182/218/41
f 179/215/193 182/218/41 180/216/40
f 181/217/194 183/219/195 184/220/42
f 181/217/194 184/220/42 182/218/41
f 183/219/195 185/221/196 186/222/43
f 183/219/195 186/222/43 184/220/42
f 185/221/196 187/223/197 188/224/44
f 185/221/196 188/224/44 186/222/43
f 187/223/197 189/225/198 190/226/45
f 187/223/197 190/226/45 188/224/44
f 189/225/198 151/187/174 154/190/31
f 189/225/198 154/190/31 190/226/45
f 154/190/31 153/189/32 191/227/199
f 154/190/31 191/227/199 192/228/200
f 153/189/32 156/192/33 193/229/201
f 153/189/32 193/229/201 191/227/199
f 156/192/33 158/194/34 194/230/202
f 156/192/33 194/230/202 193/229/201
f 158/194/34 160/196/179 195/231/203
f 158/194/34 195/231/203 194/230/202
f 160/196/179 162/198/36 196/232/204
f 160/196/179 196/232/204 195/231/203
f 162/198/36 164/200/37 197/233/205
f 162/198/36 197/233/205 196/232/204
f 164/200/37 166/202/21 198/234/206
f 164/200/37 198/234/206 197/233/205
f 166/202/21 168/204/184 199/235/207
f 166/202/21 199/235/207 198/234/206
f 168/204/184 170/206/186 200/236/208
f 168/204/184 200/236/208 199/235/207
f 170/206/186 172/208/188 201/237/209
f 170/206/186 201/237/209 200/236/208
f 172/208/188 174/210/190 202/238/210
f 172/208/188 202/238/210 201/237/209
f 174/210/190 176/212/38 203/239/211
f 174/210/190 203/239/211 202/238/210
f 176/212/38 178/214/39 204/240/212
f 176/212/38 204/240/212 203/239/211
f 178/214/39 180/216/40 205/241/213
f 178/214/39 205/241/213 204/240/212
f 180/216/40 182/218/41 206/242/214
f 180/216/40 206/242/214 205/241/213
f 182/218/41 184/220/42 207/243/215
f 182/218/41 207/243/215 206/242/214
f 184/220/42 186/222/43 208/244/216
f 184/220/42 208/244/216 207/243/215
f 186/222/43 188/224/44 209/245/217
f 186/222/43 209/245/217 208/244/216
f 188/224/44 190/226/45 210/246/218
f 188/224/44 210/246/218 209/245/217
f 190/226/45 154/190/31 192/228/200
f 190/226/45 192/228/200 210/246/218
f 192/228/200 191/227/199 211/247/219
f 192/228/200 211/247/219 212/248/220
f 191/227/199 193/229/201 213/249/221
f 191/227/199 213/249/221 211/247/219
f 193/229/201 194/230/202 214/250/222
f 193/229/201 214/250/222 213/249/221
f 194/230/202 195/231/203 215/251/223
f 194/230/202 215/251/223 214/250/222
f 195/231/203 196/232/204 216/252/224
f 195/231/203 216/252/224 215/251/223
f 196/232/204 197/233/205 217/253/225
f 196/232/204 217/253/225 216/252/224
f 197/233/205 198/234/206 218/254/226
f 197/233/205 218/254/226 217/253/225
f 198/234/206 199/235/207 219/255/227
f 198/234/206 219/255/227 218/254/226
f 199/235/207 200/236/208 220/256/228
f 199/235/207 220/256/228 219/255/227
f 200/236/208 201/237/209 221/257/229
f 200/236/208 221/257/229 220/256/228
f 201/237/209 202/238/210 222/258/230
f 201/237/209 222/258/230 221/257/229
f 202/238/210 203/239/211 223/259/231
f 202/238/210 223/259/231 222/258/230
f 203/239/211 204/240/212 224/260/232
f 203/239/211 224/260/232 223/259/231
f 204/240/212 205/241/213 225/261/233
f 204/240/212 225/261/233 224/260/232
f 205/241/213 206/242/214 226/262/234
f 205/241/213 226/262/234 225/261/233
f 206/242/214 207/243/215 227/263/235
f 206/242/214 227/263/235 226/262/234
f 207/243/215 208/244/216 228/264/236
f 207/243/215 228/264/236 227/263/235
f 208/244/216 209/245/217 229/265/237
f 208/244/216 229/265/237 228/264/236
f 209/245/217 210/246/218 230/266/238
f 209/245/217 230/266/238 229/265/237
f 210/246/218 192/228/200 212/248/220
f 210/246/218 212/248/220 230/266/238
f 212/248/220 211/247/219 231/267/239
f 212/248/220 231/267/239 232/268/240
f 211/247/219 213/249/221 233/269/241
f 211/247/219 233/269/241 231/267/239
f 213/249/221 214/250/222 234/270/242
f 213/249/221 234/270/242 233/269/241
f 214/250/222 215/251/223 235/271/243
f 214/250/222 235/271/243 234/270/242
f 215/251/223 216/252/224 236/272/244
f 215/251/223 236/272/244 235/271/243
f 216/252/224 217/253/225 237/273/245
f 216/252/224 237/273/245 236/272/244
f 217/253/225 218/254/226 238/274/246
f 217/253/225 238/274/246 237/273/245
f 218/254/226 219/255/227 239/275/247
f 218/254/226 239/275/247 238/274/246
f 219/255/227 220/256/228 240/276/248
f 219/255/227 240/276/248 239/275/247
f 220/256/228 221/257/229 241/277/249
f 220/256/228 241/277/249 240/276/248
f 221/257/229 222/258/230 242/278/250
f 221/257/229 242/278/250 241/277/249
f 222/258/230 223/259/231 243/279/251
f 222/258/230 243/279/251 242/278/250
f 223/259/231 224/260/232 244/280/252
f 223/259/231 244/280/252 243/279/251
f 224/260/232 225/261/233 245/281/253
f 224/260/232 245/281/253 244/280/252
f 225/261/233 226/262/234 246/282/254
f 225/261/233 246/282/254 245/281/253
f 226/262/234 227/263/235 247/283/255
f 226/262/234 247/283/255 246/282/254
f 227/263/235 228/264/236 248/284/256
f 227/263/235 248/284/256 247/283/255
f 228/264/236 229/265/237 249/285/257
f 228/264/236 249/285/257 248/284/256
f 229/265/237 230/266/238 250/286/258
f 229/265/237 250/286/258 249/285/257
f 230/266/238 212/248/220 232/268/240
f 230/266/238 232/268/240 250/286/258
f 232/268/240 231/267/239 251/287/259
f 232/268/240 251/287/259 252/288/260
f 231/267/239 233/269/241 253/289/261
f 231/267/239 253/289/261 251/287/259
f 233/269/241 234/270/242 254/290/262
f 233/269/241 254/290/262 253/289/261
f 234/270/242 235/271/243 255/291/263
f 234/270/242 255/291/263 254/290/262
f 235/271/243 236/272/244 256/292/264
f 235/271/243 256/292/264 255/291/263
f 236/272/244 237/273/245 257/293/265
f 236/272/244 257/293/265 256/292/264
f 237/273/245 238/274/246 258/294/266
f 237/273/245 258/294/266 257/293/265
f 238/274/246 239/275/247 259/295/267
f 238/274/246 259/295/267 258/294/266
f 239/275/247 240/276/248 260/296/268
f 239/275/247 260/296/268 259/295/267
f 240/276/248 241/277/249 261/297/269
f 240/276/248 261/297/269 260/296/268
f 241/277/249 242/278/250 262/298/270
f 241/277/249 262/298/270 261/297/269
f 242/278/250 243/279/251 263/299/271
f 242/278/250 263/299/271 262/298/270
f 243/279/251 244/280/252 264/300/272
f 243/279/251 264/300/272 263/299/271
f 244/280/252 245/281/253 265/301/273
f 244/280/252 265/301/273 264/300/272
f 245/281/253 246/282/254 266/302/274
f 245/281/253 266/302/274 265/301/273
f 246/282/254 247/283/255 267/303/275
f 246/282/254 267/303/275 266/302/274
f 247/283/255 248/284/256 268/304/276
f 247/283/255 268/304/276 267/303/275
f 248/284/256 249/285/257 269/305/277
f 248/284/256 269/305/277 268/304/276
f 249/285/257 250/286/258 270/306/278
f 249/285/257 270/306/278 269/305/277
f 250/286/258 232/268/240 252/288/260
f 250/286/258 252/288/260 270/306/278
f 252/288/260 251/287/259 271/307/279
f 252/288/260 271/307/279 272/308/280
f 251/287/259 253/289/261 273/309/281
f 251/287/259 273/309/281 271/307/279
f 253/289/261 254/290/262 274/310/282
f 253/289/261 274/310/282 273/309/281
f 254/290/262 255/291/263 275/311/283
f 254/290/262 275/311/283 274/310/282
f 255/291/263 256/292/264 276/312/284
f 255/291/263 276/312/284 275/311/283
f 256/292/264 257/293/265 277/313/285
f 256/292/264 277/313/285 276/312/284
f 257/293/265 258/294/266 278/314/286
f 257/293/265 278/314/286 277/313/285
f 258/294/266 259/295/267 279/315/287
f 258/294/266 279/315/287 278/314/286
f 259/295/267 260/296/268 280/316/288
f 259/295/267 280/316/288 279/315/287
f 260/296/268 261/297/269 281/317/289
f 260/296/268 281/317/289 280/316/288
f 261/297/269 262/298/270 282/318/290
f 261/297/269 282/318/290 281/317/289
f 262/298/270 263/299/271 283/319/291
f 262/298/270 283/319/291 282/318/290
f 263/299/271 264/300/272 284/320/292
f 263/299/271 284/320/292 283/319/291
f 264/300/272 265/301/273 285/321/293
f 264/300/272 285/321/293 284/320/292
f 265/301/273 266/302/274 286/322/294
f 265/301/273 286/322/294 285/321/293
f 266/302/274 267/303/275 287/323/295
f 266/302/274 287/323/295 286/322/294
f 267/303/275 268/304/276 288/324/296
f 267/303/275 288/324/296 287/323/295
f 268/304/276 269/305/277 289/325/297
f 268/304/276 289/325/297 288/324/296
f 269/305/277 270/306/278 290/326/298
f 269/305/277 290/326/298 289/325/297
f 270/306/278 252/288/260 272/308/280
f 270/306/278 272/308/280 290/326/298
f 272/308/280 271/307/279 291/34/32
f 272/308/280 291/34/32 292/33/31
f 271/307/279 273/309/281 293/35/33
f 271/307/279 293/35/33 291/34/32
f 273/309/281 274/310/282 294/36/34
f 273/309/281 294/36/34 293/35/33
f 274/310/282 275/311/283 295/37/35
f 274/310/282 295/37/35 294/36/34
f 275/311/283 276/312/284 296/38/36
f 275/311/283 296/38/36 295/37/35
f 276/312/284 277/313/285 297/39/37
f 276/312/284 297/39/37 296/38/36
f 277/313/285 278/314/286 298/40/21
f 277/313/285 298/40/21 297/39/37
f 278/314/286 279/315/287 299/41/22
f 278/314/286 299/41/22 298/40/21
f 279/315/287 280/316/288 300/42/23
f 279/315/287 300/42/23 299/41/22
f 280/316/288 281/317/289 301/43/24
f 280/316/288 301/43/24 300/42/23
f 281/317/289 282/318/290 302/44/3
f 281/317/289 302/44/3 301/43/24
f 282/318/290 283/319/291 303/45/38
f 282/318/290 303/45/38 302/44/3
f 283/319/291 284/320/292 304/46/39
f 283/319/291 304/46/39 303/45/38
f 284/320/292 285/321/293 305/47/40
f 284/320/292 305/47/40 304/46/39
f 285/321/293 286/322/294 306/48/41
f 285/321/293 306/48/41 305/47/40
f 286/322/294 287/323/295 307/49/42
f 286/322/294 307/49/42 306/48/41
f 287/323/295 288/324/296 308/50/43
f 287/323/295 308/50/43 307/49/42
f 288/324/296 289/325/297 309/51/44
f 288/324/296 309/51/44 308/50/43
f 289/325/297 290/326/298 310/52/45
f 289/325/297 310/52/45 309/51/44
f 290/326/298 272/308/280 292/33/31
f 290/326/298 292/33/31 310/52/45
