# Blender 4.5.13 LTS
# www.blender.org
mtllib roomba_888.mtl
o pasted__pasted__pasted__pasted__pasted__pasted__pasted__pCylin
v 3.900030 1.056964 9.207878
v 3.907376 1.056964 9.211621
v 3.915519 1.056964 9.186560
v 3.894201 1.056964 9.202048
v 3.890458 1.056964 9.194702
v 3.889168 1.056964 9.186560
v 3.890458 1.056964 9.178416
v 3.894201 1.056964 9.171070
v 3.900030 1.056964 9.165240
v 3.907376 1.056964 9.161497
v 3.915519 1.056964 9.160208
v 3.923663 1.056964 9.161497
v 3.931009 1.056964 9.165240
v 3.936838 1.056964 9.171070
v 3.940581 1.056964 9.178416
v 3.941871 1.056964 9.186560
v 3.940581 1.056964 9.194702
v 3.936838 1.056964 9.202048
v 3.931009 1.056964 9.207878
v 3.923663 1.056964 9.211621
v 3.915519 1.056964 9.212911
v 3.898970 1.056446 9.209338
v 3.906819 1.056446 9.213338
v 3.915520 1.056446 9.186560
v 3.892741 1.056446 9.203110
v 3.888742 1.056446 9.195260
v 3.887364 1.056446 9.186560
v 3.888742 1.056446 9.177859
v 3.892741 1.056446 9.170010
v 3.898970 1.056446 9.163781
v 3.906819 1.056446 9.159781
v 3.915520 1.056446 9.158403
v 3.924220 1.056446 9.159781
v 3.932069 1.056446 9.163781
v 3.938298 1.056446 9.170010
v 3.942298 1.056446 9.177859
v 3.943676 1.056446 9.186560
v 3.942298 1.056446 9.195260
v 3.938298 1.056446 9.203110
v 3.932069 1.056446 9.209338
v 3.924220 1.056446 9.213338
v 3.915520 1.056446 9.214716
v 3.928977 1.051369 9.201955
v 3.928977 1.052339 9.202449
v 3.928977 1.053413 9.199142
v 3.928977 1.050600 9.201186
v 3.928977 1.050107 9.200217
v 3.928977 1.049936 9.199142
v 3.928977 1.050107 9.198069
v 3.928977 1.050600 9.197099
v 3.928977 1.051369 9.196330
v 3.928977 1.052339 9.195836
v 3.928977 1.053413 9.195666
v 3.928977 1.054487 9.195836
v 3.928977 1.055457 9.196330
v 3.928977 1.056226 9.197099
v 3.928977 1.056719 9.198069
v 3.928977 1.056890 9.199142
v 3.928977 1.056719 9.200217
v 3.928977 1.056226 9.201186
v 3.928977 1.055457 9.201955
v 3.928977 1.054487 9.202449
v 3.928977 1.053413 9.202620
v 3.900327 1.051369 9.201955
v 3.900327 1.052339 9.202449
v 3.900327 1.053413 9.199142
v 3.900327 1.050600 9.201186
v 3.900327 1.050107 9.200217
v 3.900327 1.049936 9.199142
v 3.900327 1.050107 9.198069
v 3.900327 1.050600 9.197099
v 3.900327 1.051369 9.196330
v 3.900327 1.052339 9.195836
v 3.900327 1.053413 9.195666
v 3.900327 1.054487 9.195836
v 3.900327 1.055457 9.196330
v 3.900327 1.056226 9.197099
v 3.900327 1.056719 9.198069
v 3.900327 1.056890 9.199142
v 3.900327 1.056719 9.200217
v 3.900327 1.056226 9.201186
v 3.900327 1.055457 9.201955
v 3.900327 1.054487 9.202449
v 3.900327 1.053413 9.202620
v 3.928977 1.051369 9.174492
v 3.928977 1.052339 9.174986
v 3.928977 1.053413 9.171679
v 3.928977 1.050600 9.173722
v 3.928977 1.050107 9.172753
v 3.928977 1.049936 9.171679
v 3.928977 1.050107 9.170605
v 3.928977 1.050600 9.169636
v 3.928977 1.051369 9.168866
v 3.928977 1.052339 9.168373
v 3.928977 1.053413 9.168202
v 3.928977 1.054487 9.168373
v 3.928977 1.055457 9.168866
v 3.928977 1.056226 9.169636
v 3.928977 1.056719 9.170605
v 3.928977 1.056890 9.171679
v 3.928977 1.056719 9.172753
v 3.928977 1.056226 9.173722
v 3.928977 1.055457 9.174492
v 3.928977 1.054487 9.174986
v 3.928977 1.053413 9.175156
v 3.900327 1.051369 9.174492
v 3.900327 1.052339 9.174986
v 3.900327 1.053413 9.171679
v 3.900327 1.050600 9.173722
v 3.900327 1.050107 9.172753
v 3.900327 1.049936 9.171679
v 3.900327 1.050107 9.170605
v 3.900327 1.050600 9.169636
v 3.900327 1.051369 9.168866
v 3.900327 1.052339 9.168373
v 3.900327 1.053413 9.168202
v 3.900327 1.054487 9.168373
v 3.900327 1.055457 9.168866
v 3.900327 1.056226 9.169636
v 3.900327 1.056719 9.170605
v 3.900327 1.056890 9.171679
v 3.900327 1.056719 9.172753
v 3.900327 1.056226 9.173722
v 3.900327 1.055457 9.174492
v 3.900327 1.054487 9.174986
v 3.900327 1.053413 9.175156
v 3.902629 1.057085 9.207924
v 3.908742 1.057085 9.210146
v 3.915519 1.057085 9.195266
v 3.897777 1.057085 9.204462
v 3.894662 1.057085 9.200101
v 3.893589 1.057085 9.195266
v 3.936376 1.057085 9.200101
v 3.937449 1.057085 9.195266
v 3.933261 1.057085 9.204462
v 3.928409 1.057085 9.207924
v 3.922296 1.057085 9.210146
v 3.915519 1.057085 9.210912
v 3.908742 1.052041 9.210146
v 3.902629 1.052041 9.207924
v 3.915519 1.052041 9.195266
v 3.897777 1.052041 9.204462
v 3.894662 1.052041 9.200101
v 3.893589 1.052041 9.195266
v 3.937449 1.052041 9.195266
v 3.936376 1.052041 9.200101
v 3.933261 1.052041 9.204462
v 3.928409 1.052041 9.207924
v 3.922296 1.052041 9.210146
v 3.915519 1.052041 9.210912
v 3.908742 1.057085 9.210146
v 3.902629 1.057085 9.207924
v 3.902629 1.052041 9.207924
v 3.908742 1.052041 9.210146
v 3.897777 1.057085 9.204462
v 3.897777 1.052041 9.204462
v 3.894662 1.057085 9.200101
v 3.894662 1.052041 9.200101
v 3.893589 1.057085 9.195266
v 3.893589 1.052041 9.195266
v 3.937449 1.057085 9.195266
v 3.936376 1.057085 9.200101
v 3.936376 1.052041 9.200101
v 3.937449 1.052041 9.195266
v 3.933261 1.057085 9.204462
v 3.933261 1.052041 9.204462
v 3.928409 1.057085 9.207924
v 3.928409 1.052041 9.207924
v 3.922296 1.057085 9.210146
v 3.922296 1.052041 9.210146
v 3.915519 1.057085 9.210912
v 3.915519 1.052041 9.210912
v 3.908742 1.057085 9.210146
v 3.908742 1.052041 9.210146
v 3.924680 1.057138 9.164305
v 3.920335 1.057138 9.163018
v 3.915519 1.057138 9.171628
v 3.928128 1.057138 9.166307
v 3.930341 1.057138 9.168830
v 3.931104 1.057138 9.171628
v 3.900697 1.057138 9.168830
v 3.899934 1.057138 9.171628
v 3.902911 1.057138 9.166307
v 3.906358 1.057138 9.164305
v 3.910703 1.057138 9.163018
v 3.915519 1.057138 9.162576
v 3.920335 1.053553 9.163018
v 3.924680 1.053553 9.164305
v 3.915519 1.053553 9.171628
v 3.928128 1.053553 9.166307
v 3.930341 1.053553 9.168830
v 3.931104 1.053553 9.171628
v 3.899934 1.053553 9.171628
v 3.900697 1.053553 9.168830
v 3.902911 1.053553 9.166307
v 3.906358 1.053553 9.164305
v 3.910703 1.053553 9.163018
v 3.915519 1.053553 9.162576
v 3.920335 1.057138 9.163018
v 3.924680 1.057138 9.164305
v 3.924680 1.053553 9.164305
v 3.920335 1.053553 9.163018
v 3.928128 1.057138 9.166307
v 3.928128 1.053553 9.166307
v 3.930341 1.057138 9.168830
v 3.930341 1.053553 9.168830
v 3.931104 1.057138 9.171628
v 3.931104 1.053553 9.171628
v 3.899934 1.057138 9.171628
v 3.900697 1.057138 9.168830
v 3.900697 1.053553 9.168830
v 3.899934 1.053553 9.171628
v 3.902911 1.057138 9.166307
v 3.902911 1.053553 9.166307
v 3.906358 1.057138 9.164305
v 3.906358 1.053553 9.164305
v 3.910703 1.057138 9.163018
v 3.910703 1.053553 9.163018
v 3.915519 1.057138 9.162576
v 3.915519 1.053553 9.162576
v 3.920335 1.057138 9.163018
v 3.920335 1.053553 9.163018
v 3.914461 1.057243 9.168765
v 3.914963 1.057243 9.169021
v 3.915519 1.057243 9.167308
v 3.914063 1.057243 9.168366
v 3.913807 1.057243 9.167865
v 3.913719 1.057243 9.167308
v 3.913807 1.057243 9.166752
v 3.914063 1.057243 9.166249
v 3.914461 1.057243 9.165852
v 3.914963 1.057243 9.165595
v 3.915519 1.057243 9.165507
v 3.916076 1.057243 9.165595
v 3.916578 1.057243 9.165852
v 3.916976 1.057243 9.166249
v 3.917232 1.057243 9.166752
v 3.917320 1.057243 9.167308
v 3.917232 1.057243 9.167865
v 3.916976 1.057243 9.168366
v 3.916578 1.057243 9.168765
v 3.916076 1.057243 9.169021
v 3.915519 1.057243 9.169108
v 3.917770 1.053982 9.183198
v 3.917884 1.053982 9.183913
v 3.917884 1.057133 9.183913
v 3.917770 1.057133 9.183198
v 3.917441 1.053982 9.182552
v 3.917441 1.057133 9.182552
v 3.916929 1.053982 9.182040
v 3.916929 1.057133 9.182040
v 3.916283 1.053982 9.181711
v 3.916283 1.057133 9.181711
v 3.915568 1.053982 9.181598
v 3.915568 1.057133 9.181598
v 3.914852 1.053982 9.181711
v 3.914852 1.057133 9.181711
v 3.914207 1.053982 9.182040
v 3.914207 1.057133 9.182040
v 3.913694 1.053982 9.182552
v 3.913694 1.057133 9.182552
v 3.913366 1.053982 9.183198
v 3.913366 1.057133 9.183198
v 3.913252 1.053982 9.183913
v 3.913252 1.057133 9.183913
v 3.913366 1.053982 9.184629
v 3.913366 1.057133 9.184629
v 3.913694 1.053982 9.185274
v 3.913694 1.057133 9.185274
v 3.914207 1.053982 9.185787
v 3.914207 1.057133 9.185787
v 3.914852 1.053982 9.186116
v 3.914852 1.057133 9.186116
v 3.915568 1.053982 9.186229
v 3.915568 1.057133 9.186229
v 3.916283 1.053982 9.186116
v 3.916283 1.057133 9.186116
v 3.916929 1.053982 9.185787
v 3.916929 1.057133 9.185787
v 3.917441 1.053982 9.185274
v 3.917441 1.057133 9.185274
v 3.917770 1.053982 9.184629
v 3.917770 1.057133 9.184629
v 3.917884 1.053982 9.183913
v 3.917884 1.057133 9.183913
v 3.913341 1.057071 9.186933
v 3.914374 1.057071 9.187459
v 3.915519 1.057071 9.183934
v 3.912522 1.057071 9.186112
v 3.911995 1.057071 9.185080
v 3.911814 1.057071 9.183934
v 3.911995 1.057071 9.182790
v 3.912522 1.057071 9.181756
v 3.913341 1.057071 9.180937
v 3.914374 1.057071 9.180410
v 3.915519 1.057071 9.180229
v 3.916665 1.057071 9.180410
v 3.917697 1.057071 9.180937
v 3.918517 1.057071 9.181756
v 3.919044 1.057071 9.182790
v 3.919225 1.057071 9.183934
v 3.919044 1.057071 9.185080
v 3.918517 1.057071 9.186112
v 3.917697 1.057071 9.186933
v 3.916665 1.057071 9.187459
v 3.915519 1.057071 9.187640
v 3.907376 1.050903 9.211621
v 3.915519 1.050903 9.186560
v 3.900030 1.050903 9.207878
v 3.915519 1.050903 9.212911
v 3.923663 1.050903 9.211621
v 3.931009 1.050903 9.207878
v 3.936838 1.050903 9.202048
v 3.940581 1.050903 9.194702
v 3.941871 1.050903 9.186560
v 3.940581 1.050903 9.178416
v 3.936838 1.050903 9.171070
v 3.931009 1.050903 9.165240
v 3.923663 1.050903 9.161497
v 3.915519 1.050903 9.160208
v 3.907376 1.050903 9.161497
v 3.900030 1.050903 9.165240
v 3.894201 1.050903 9.171070
v 3.890458 1.050903 9.178416
v 3.889168 1.050903 9.186560
v 3.890458 1.050903 9.194702
v 3.894201 1.050903 9.202048
v 3.907376 1.056964 9.211621
v 3.900030 1.050903 9.207878
v 3.900030 1.056964 9.207878
v 3.907376 1.050903 9.211621
v 3.894201 1.050903 9.202048
v 3.894201 1.056964 9.202048
v 3.890458 1.050903 9.194702
v 3.890458 1.056964 9.194702
v 3.889168 1.050903 9.186560
v 3.889168 1.056964 9.186560
v 3.890458 1.050903 9.178416
v 3.890458 1.056964 9.178416
v 3.894201 1.050903 9.171070
v 3.894201 1.056964 9.171070
v 3.900030 1.050903 9.165240
v 3.900030 1.056964 9.165240
v 3.907376 1.050903 9.161497
v 3.907376 1.056964 9.161497
v 3.915519 1.050903 9.160208
v 3.915519 1.056964 9.160208
v 3.923663 1.050903 9.161497
v 3.923663 1.056964 9.161497
v 3.931009 1.050903 9.165240
v 3.931009 1.056964 9.165240
v 3.936838 1.050903 9.171070
v 3.936838 1.056964 9.171070
v 3.940581 1.050903 9.178416
v 3.940581 1.056964 9.178416
v 3.941871 1.050903 9.186560
v 3.941871 1.056964 9.186560
v 3.940581 1.050903 9.194702
v 3.940581 1.056964 9.194702
v 3.936838 1.050903 9.202048
v 3.936838 1.056964 9.202048
v 3.931009 1.050903 9.207878
v 3.931009 1.056964 9.207878
v 3.923663 1.050903 9.211621
v 3.923663 1.056964 9.211621
v 3.915519 1.050903 9.212911
v 3.915519 1.056964 9.212911
v 3.907376 1.050903 9.211621
v 3.907376 1.056964 9.211621
v 3.906819 1.051422 9.213338
v 3.915520 1.051422 9.186560
v 3.898970 1.051422 9.209338
v 3.915520 1.051422 9.214716
v 3.924220 1.051422 9.213338
v 3.932069 1.051422 9.209338
v 3.938298 1.051422 9.203110
v 3.942298 1.051422 9.195260
v 3.943676 1.051422 9.186560
v 3.942298 1.051422 9.177859
v 3.938298 1.051422 9.170010
v 3.932069 1.051422 9.163781
v 3.924220 1.051422 9.159781
v 3.915520 1.051422 9.158403
v 3.906819 1.051422 9.159781
v 3.898970 1.051422 9.163781
v 3.892741 1.051422 9.170010
v 3.888742 1.051422 9.177859
v 3.887364 1.051422 9.186560
v 3.888742 1.051422 9.195260
v 3.892741 1.051422 9.203110
v 3.906819 1.056446 9.213338
v 3.898970 1.051422 9.209338
v 3.898970 1.056446 9.209338
v 3.906819 1.051422 9.213338
v 3.892741 1.051422 9.203110
v 3.892741 1.056446 9.203110
v 3.888742 1.051422 9.195260
v 3.888742 1.056446 9.195260
v 3.887364 1.051422 9.186560
v 3.887364 1.056446 9.186560
v 3.888742 1.051422 9.177859
v 3.888742 1.056446 9.177859
v 3.892741 1.051422 9.170010
v 3.892741 1.056446 9.170010
v 3.898970 1.051422 9.163781
v 3.898970 1.056446 9.163781
v 3.906819 1.051422 9.159781
v 3.906819 1.056446 9.159781
v 3.915520 1.051422 9.158403
v 3.915520 1.056446 9.158403
v 3.924220 1.051422 9.159781
v 3.924220 1.056446 9.159781
v 3.932069 1.051422 9.163781
v 3.932069 1.056446 9.163781
v 3.938298 1.051422 9.170010
v 3.938298 1.056446 9.170010
v 3.942298 1.051422 9.177859
v 3.942298 1.056446 9.177859
v 3.943676 1.051422 9.186560
v 3.943676 1.056446 9.186560
v 3.942298 1.051422 9.195260
v 3.942298 1.056446 9.195260
v 3.938298 1.051422 9.203110
v 3.938298 1.056446 9.203110
v 3.932069 1.051422 9.209338
v 3.932069 1.056446 9.209338
v 3.924220 1.051422 9.213338
v 3.924220 1.056446 9.213338
v 3.915520 1.051422 9.214716
v 3.915520 1.056446 9.214716
v 3.906819 1.051422 9.213338
v 3.906819 1.056446 9.213338
v 3.929776 1.052339 9.202449
v 3.929776 1.053413 9.199142
v 3.929776 1.051369 9.201955
v 3.929776 1.053413 9.202620
v 3.929776 1.054487 9.202449
v 3.929776 1.055457 9.201955
v 3.929776 1.056226 9.201186
v 3.929776 1.056719 9.200217
v 3.929776 1.056890 9.199142
v 3.929776 1.056719 9.198069
v 3.929776 1.056226 9.197099
v 3.929776 1.055457 9.196330
v 3.929776 1.054487 9.195836
v 3.929776 1.053413 9.195666
v 3.929776 1.052339 9.195836
v 3.929776 1.051369 9.196330
v 3.929776 1.050600 9.197099
v 3.929776 1.050107 9.198069
v 3.929776 1.049936 9.199142
v 3.929776 1.050107 9.200217
v 3.929776 1.050600 9.201186
v 3.928977 1.052339 9.202449
v 3.929776 1.051369 9.201955
v 3.928977 1.051369 9.201955
v 3.929776 1.052339 9.202449
v 3.929776 1.050600 9.201186
v 3.928977 1.050600 9.201186
v 3.929776 1.050107 9.200217
v 3.928977 1.050107 9.200217
v 3.929776 1.049936 9.199142
v 3.928977 1.049936 9.199142
v 3.929776 1.050107 9.198069
v 3.928977 1.050107 9.198069
v 3.929776 1.050600 9.197099
v 3.928977 1.050600 9.197099
v 3.929776 1.051369 9.196330
v 3.928977 1.051369 9.196330
v 3.929776 1.052339 9.195836
v 3.928977 1.052339 9.195836
v 3.929776 1.053413 9.195666
v 3.928977 1.053413 9.195666
v 3.929776 1.054487 9.195836
v 3.928977 1.054487 9.195836
v 3.929776 1.055457 9.196330
v 3.928977 1.055457 9.196330
v 3.929776 1.056226 9.197099
v 3.928977 1.056226 9.197099
v 3.929776 1.056719 9.198069
v 3.928977 1.056719 9.198069
v 3.929776 1.056890 9.199142
v 3.928977 1.056890 9.199142
v 3.929776 1.056719 9.200217
v 3.928977 1.056719 9.200217
v 3.929776 1.056226 9.201186
v 3.928977 1.056226 9.201186
v 3.929776 1.055457 9.201955
v 3.928977 1.055457 9.201955
v 3.929776 1.054487 9.202449
v 3.928977 1.054487 9.202449
v 3.929776 1.053413 9.202620
v 3.928977 1.053413 9.202620
v 3.929776 1.052339 9.202449
v 3.928977 1.052339 9.202449
v 3.901127 1.052339 9.202449
v 3.901127 1.053413 9.199142
v 3.901127 1.051369 9.201955
v 3.901127 1.053413 9.202620
v 3.901127 1.054487 9.202449
v 3.901127 1.055457 9.201955
v 3.901127 1.056226 9.201186
v 3.901127 1.056719 9.200217
v 3.901127 1.056890 9.199142
v 3.901127 1.056719 9.198069
v 3.901127 1.056226 9.197099
v 3.901127 1.055457 9.196330
v 3.901127 1.054487 9.195836
v 3.901127 1.053413 9.195666
v 3.901127 1.052339 9.195836
v 3.901127 1.051369 9.196330
v 3.901127 1.050600 9.197099
v 3.901127 1.050107 9.198069
v 3.901127 1.049936 9.199142
v 3.901127 1.050107 9.200217
v 3.901127 1.050600 9.201186
v 3.900327 1.052339 9.202449
v 3.901127 1.051369 9.201955
v 3.900327 1.051369 9.201955
v 3.901127 1.052339 9.202449
v 3.901127 1.050600 9.201186
v 3.900327 1.050600 9.201186
v 3.901127 1.050107 9.200217
v 3.900327 1.050107 9.200217
v 3.901127 1.049936 9.199142
v 3.900327 1.049936 9.199142
v 3.901127 1.050107 9.198069
v 3.900327 1.050107 9.198069
v 3.901127 1.050600 9.197099
v 3.900327 1.050600 9.197099
v 3.901127 1.051369 9.196330
v 3.900327 1.051369 9.196330
v 3.901127 1.052339 9.195836
v 3.900327 1.052339 9.195836
v 3.901127 1.053413 9.195666
v 3.900327 1.053413 9.195666
v 3.901127 1.054487 9.195836
v 3.900327 1.054487 9.195836
v 3.901127 1.055457 9.196330
v 3.900327 1.055457 9.196330
v 3.901127 1.056226 9.197099
v 3.900327 1.056226 9.197099
v 3.901127 1.056719 9.198069
v 3.900327 1.056719 9.198069
v 3.901127 1.056890 9.199142
v 3.900327 1.056890 9.199142
v 3.901127 1.056719 9.200217
v 3.900327 1.056719 9.200217
v 3.901127 1.056226 9.201186
v 3.900327 1.056226 9.201186
v 3.901127 1.055457 9.201955
v 3.900327 1.055457 9.201955
v 3.901127 1.054487 9.202449
v 3.900327 1.054487 9.202449
v 3.901127 1.053413 9.202620
v 3.900327 1.053413 9.202620
v 3.901127 1.052339 9.202449
v 3.900327 1.052339 9.202449
v 3.929776 1.052339 9.174986
v 3.929776 1.053413 9.171679
v 3.929776 1.051369 9.174492
v 3.929776 1.053413 9.175156
v 3.929776 1.054487 9.174986
v 3.929776 1.055457 9.174492
v 3.929776 1.056226 9.173722
v 3.929776 1.056719 9.172753
v 3.929776 1.056890 9.171679
v 3.929776 1.056719 9.170605
v 3.929776 1.056226 9.169636
v 3.929776 1.055457 9.168866
v 3.929776 1.054487 9.168373
v 3.929776 1.053413 9.168202
v 3.929776 1.052339 9.168373
v 3.929776 1.051369 9.168866
v 3.929776 1.050600 9.169636
v 3.929776 1.050107 9.170605
v 3.929776 1.049936 9.171679
v 3.929776 1.050107 9.172753
v 3.929776 1.050600 9.173722
v 3.928977 1.052339 9.174986
v 3.929776 1.051369 9.174492
v 3.928977 1.051369 9.174492
v 3.929776 1.052339 9.174986
v 3.929776 1.050600 9.173722
v 3.928977 1.050600 9.173722
v 3.929776 1.050107 9.172753
v 3.928977 1.050107 9.172753
v 3.929776 1.049936 9.171679
v 3.928977 1.049936 9.171679
v 3.929776 1.050107 9.170605
v 3.928977 1.050107 9.170605
v 3.929776 1.050600 9.169636
v 3.928977 1.050600 9.169636
v 3.929776 1.051369 9.168866
v 3.928977 1.051369 9.168866
v 3.929776 1.052339 9.168373
v 3.928977 1.052339 9.168373
v 3.929776 1.053413 9.168202
v 3.928977 1.053413 9.168202
v 3.929776 1.054487 9.168373
v 3.928977 1.054487 9.168373
v 3.929776 1.055457 9.168866
v 3.928977 1.055457 9.168866
v 3.929776 1.056226 9.169636
v 3.928977 1.056226 9.169636
v 3.929776 1.056719 9.170605
v 3.928977 1.056719 9.170605
v 3.929776 1.056890 9.171679
v 3.928977 1.056890 9.171679
v 3.929776 1.056719 9.172753
v 3.928977 1.056719 9.172753
v 3.929776 1.056226 9.173722
v 3.928977 1.056226 9.173722
v 3.929776 1.055457 9.174492
v 3.928977 1.055457 9.174492
v 3.929776 1.054487 9.174986
v 3.928977 1.054487 9.174986
v 3.929776 1.053413 9.175156
v 3.928977 1.053413 9.175156
v 3.929776 1.052339 9.174986
v 3.928977 1.052339 9.174986
v 3.901127 1.052339 9.174986
v 3.901127 1.053413 9.171679
v 3.901127 1.051369 9.174492
v 3.901127 1.053413 9.175156
v 3.901127 1.054487 9.174986
v 3.901127 1.055457 9.174492
v 3.901127 1.056226 9.173722
v 3.901127 1.056719 9.172753
v 3.901127 1.056890 9.171679
v 3.901127 1.056719 9.170605
v 3.901127 1.056226 9.169636
v 3.901127 1.055457 9.168866
v 3.901127 1.054487 9.168373
v 3.901127 1.053413 9.168202
v 3.901127 1.052339 9.168373
v 3.901127 1.051369 9.168866
v 3.901127 1.050600 9.169636
v 3.901127 1.050107 9.170605
v 3.901127 1.049936 9.171679
v 3.901127 1.050107 9.172753
v 3.901127 1.050600 9.173722
v 3.900327 1.052339 9.174986
v 3.901127 1.051369 9.174492
v 3.900327 1.051369 9.174492
v 3.901127 1.052339 9.174986
v 3.901127 1.050600 9.173722
v 3.900327 1.050600 9.173722
v 3.901127 1.050107 9.172753
v 3.900327 1.050107 9.172753
v 3.901127 1.049936 9.171679
v 3.900327 1.049936 9.171679
v 3.901127 1.050107 9.170605
v 3.900327 1.050107 9.170605
v 3.901127 1.050600 9.169636
v 3.900327 1.050600 9.169636
v 3.901127 1.051369 9.168866
v 3.900327 1.051369 9.168866
v 3.901127 1.052339 9.168373
v 3.900327 1.052339 9.168373
v 3.901127 1.053413 9.168202
v 3.900327 1.053413 9.168202
v 3.901127 1.054487 9.168373
v 3.900327 1.054487 9.168373
v 3.901127 1.055457 9.168866
v 3.900327 1.055457 9.168866
v 3.901127 1.056226 9.169636
v 3.900327 1.056226 9.169636
v 3.901127 1.056719 9.170605
v 3.900327 1.056719 9.170605
v 3.901127 1.056890 9.171679
v 3.900327 1.056890 9.171679
v 3.901127 1.056719 9.172753
v 3.900327 1.056719 9.172753
v 3.901127 1.056226 9.173722
v 3.900327 1.056226 9.173722
v 3.901127 1.055457 9.174492
v 3.900327 1.055457 9.174492
v 3.901127 1.054487 9.174986
v 3.900327 1.054487 9.174986
v 3.901127 1.053413 9.175156
v 3.900327 1.053413 9.175156
v 3.901127 1.052339 9.174986
v 3.900327 1.052339 9.174986
v 3.914963 1.056829 9.169021
v 3.915519 1.056829 9.167308
v 3.914461 1.056829 9.168765
v 3.915519 1.056829 9.169108
v 3.916076 1.056829 9.169021
v 3.916578 1.056829 9.168765
v 3.916976 1.056829 9.168366
v 3.917232 1.056829 9.167865
v 3.917320 1.056829 9.167308
v 3.917232 1.056829 9.166752
v 3.916976 1.056829 9.166249
v 3.916578 1.056829 9.165852
v 3.916076 1.056829 9.165595
v 3.915519 1.056829 9.165507
v 3.914963 1.056829 9.165595
v 3.914461 1.056829 9.165852
v 3.914063 1.056829 9.166249
v 3.913807 1.056829 9.166752
v 3.913719 1.056829 9.167308
v 3.913807 1.056829 9.167865
v 3.914063 1.056829 9.168366
v 3.914963 1.057243 9.169021
v 3.914461 1.056829 9.168765
v 3.914461 1.057243 9.168765
v 3.914963 1.056829 9.169021
v 3.914063 1.056829 9.168366
v 3.914063 1.057243 9.168366
v 3.913807 1.056829 9.167865
v 3.913807 1.057243 9.167865
v 3.913719 1.056829 9.167308
v 3.913719 1.057243 9.167308
v 3.913807 1.056829 9.166752
v 3.913807 1.057243 9.166752
v 3.914063 1.056829 9.166249
v 3.914063 1.057243 9.166249
v 3.914461 1.056829 9.165852
v 3.914461 1.057243 9.165852
v 3.914963 1.056829 9.165595
v 3.914963 1.057243 9.165595
v 3.915519 1.056829 9.165507
v 3.915519 1.057243 9.165507
v 3.916076 1.056829 9.165595
v 3.916076 1.057243 9.165595
v 3.916578 1.056829 9.165852
v 3.916578 1.057243 9.165852
v 3.916976 1.056829 9.166249
v 3.916976 1.057243 9.166249
v 3.917232 1.056829 9.166752
v 3.917232 1.057243 9.166752
v 3.917320 1.056829 9.167308
v 3.917320 1.057243 9.167308
v 3.917232 1.056829 9.167865
v 3.917232 1.057243 9.167865
v 3.916976 1.056829 9.168366
v 3.916976 1.057243 9.168366
v 3.916578 1.056829 9.168765
v 3.916578 1.057243 9.168765
v 3.916076 1.056829 9.169021
v 3.916076 1.057243 9.169021
v 3.915519 1.056829 9.169108
v 3.915519 1.057243 9.169108
v 3.914963 1.056829 9.169021
v 3.914963 1.057243 9.169021
v 3.917770 1.057133 9.183198
v 3.918140 1.057133 9.183913
v 3.917884 1.057133 9.183913
v 3.918014 1.057133 9.183119
v 3.917441 1.057133 9.182552
v 3.917648 1.057133 9.182402
v 3.916929 1.057133 9.182040
v 3.917079 1.057133 9.181833
v 3.916283 1.057133 9.181711
v 3.916363 1.057133 9.181468
v 3.915568 1.057133 9.181598
v 3.915568 1.057133 9.181342
v 3.914852 1.057133 9.181711
v 3.914773 1.057133 9.181468
v 3.914207 1.057133 9.182040
v 3.914056 1.057133 9.181833
v 3.913694 1.057133 9.182552
v 3.913487 1.057133 9.182402
v 3.913366 1.057133 9.183198
v 3.913122 1.057133 9.183119
v 3.913252 1.057133 9.183913
v 3.912996 1.057133 9.183913
v 3.913366 1.057133 9.184629
v 3.913122 1.057133 9.184709
v 3.913694 1.057133 9.185274
v 3.913487 1.057133 9.185425
v 3.914207 1.057133 9.185787
v 3.914056 1.057133 9.185994
v 3.914852 1.057133 9.186116
v 3.914773 1.057133 9.186359
v 3.915568 1.057133 9.186229
v 3.915568 1.057133 9.186485
v 3.916283 1.057133 9.186116
v 3.916363 1.057133 9.186359
v 3.916929 1.057133 9.185787
v 3.917079 1.057133 9.185994
v 3.917441 1.057133 9.185274
v 3.917648 1.057133 9.185425
v 3.917770 1.057133 9.184629
v 3.918014 1.057133 9.184709
v 3.917884 1.057133 9.183913
v 3.918140 1.057133 9.183913
v 3.918014 1.057133 9.183119
v 3.918140 1.053982 9.183913
v 3.918140 1.057133 9.183913
v 3.918014 1.053982 9.183119
v 3.917648 1.057133 9.182402
v 3.917648 1.053982 9.182402
v 3.917079 1.057133 9.181833
v 3.917079 1.053982 9.181833
v 3.916363 1.057133 9.181468
v 3.916363 1.053982 9.181468
v 3.915568 1.057133 9.181342
v 3.915568 1.053982 9.181342
v 3.914773 1.057133 9.181468
v 3.914773 1.053982 9.181468
v 3.914056 1.057133 9.181833
v 3.914056 1.053982 9.181833
v 3.913487 1.057133 9.182402
v 3.913487 1.053982 9.182402
v 3.913122 1.057133 9.183119
v 3.913122 1.053982 9.183119
v 3.912996 1.057133 9.183913
v 3.912996 1.053982 9.183913
v 3.913122 1.057133 9.184709
v 3.913122 1.053982 9.184709
v 3.913487 1.057133 9.185425
v 3.913487 1.053982 9.185425
v 3.914056 1.057133 9.185994
v 3.914056 1.053982 9.185994
v 3.914773 1.057133 9.186359
v 3.914773 1.053982 9.186359
v 3.915568 1.057133 9.186485
v 3.915568 1.053982 9.186485
v 3.916363 1.057133 9.186359
v 3.916363 1.053982 9.186359
v 3.917079 1.057133 9.185994
v 3.917079 1.053982 9.185994
v 3.917648 1.057133 9.185425
v 3.917648 1.053982 9.185425
v 3.918014 1.057133 9.184709
v 3.918014 1.053982 9.184709
v 3.918140 1.057133 9.183913
v 3.918140 1.053982 9.183913
v 3.918014 1.053982 9.183119
v 3.917884 1.053982 9.183913
v 3.918140 1.053982 9.183913
v 3.917770 1.053982 9.183198
v 3.917648 1.053982 9.182402
v 3.917441 1.053982 9.182552
v 3.917079 1.053982 9.181833
v 3.916929 1.053982 9.182040
v 3.916363 1.053982 9.181468
v 3.916283 1.053982 9.181711
v 3.915568 1.053982 9.181342
v 3.915568 1.053982 9.181598
v 3.914773 1.053982 9.181468
v 3.914852 1.053982 9.181711
v 3.914056 1.053982 9.181833
v 3.914207 1.053982 9.182040
v 3.913487 1.053982 9.182402
v 3.913694 1.053982 9.182552
v 3.913122 1.053982 9.183119
v 3.913366 1.053982 9.183198
v 3.912996 1.053982 9.183913
v 3.913252 1.053982 9.183913
v 3.913122 1.053982 9.184709
v 3.913366 1.053982 9.184629
v 3.913487 1.053982 9.185425
v 3.913694 1.053982 9.185274
v 3.914056 1.053982 9.185994
v 3.914207 1.053982 9.185787
v 3.914773 1.053982 9.186359
v 3.914852 1.053982 9.186116
v 3.915568 1.053982 9.186485
v 3.915568 1.053982 9.186229
v 3.916363 1.053982 9.186359
v 3.916283 1.053982 9.186116
v 3.917079 1.053982 9.185994
v 3.916929 1.053982 9.185787
v 3.917648 1.053982 9.185425
v 3.917441 1.053982 9.185274
v 3.918014 1.053982 9.184709
v 3.917770 1.053982 9.184629
v 3.918140 1.053982 9.183913
v 3.917884 1.053982 9.183913
v 3.914374 1.056219 9.187459
v 3.915519 1.056219 9.183934
v 3.913341 1.056219 9.186933
v 3.915519 1.056219 9.187640
v 3.916665 1.056219 9.187459
v 3.917697 1.056219 9.186933
v 3.918517 1.056219 9.186112
v 3.919044 1.056219 9.185080
v 3.919225 1.056219 9.183934
v 3.919044 1.056219 9.182790
v 3.918517 1.056219 9.181756
v 3.917697 1.056219 9.180937
v 3.916665 1.056219 9.180410
v 3.915519 1.056219 9.180229
v 3.914374 1.056219 9.180410
v 3.913341 1.056219 9.180937
v 3.912522 1.056219 9.181756
v 3.911995 1.056219 9.182790
v 3.911814 1.056219 9.183934
v 3.911995 1.056219 9.185080
v 3.912522 1.056219 9.186112
v 3.914374 1.057071 9.187459
v 3.913341 1.056219 9.186933
v 3.913341 1.057071 9.186933
v 3.914374 1.056219 9.187459
v 3.912522 1.056219 9.186112
v 3.912522 1.057071 9.186112
v 3.911995 1.056219 9.185080
v 3.911995 1.057071 9.185080
v 3.911814 1.056219 9.183934
v 3.911814 1.057071 9.183934
v 3.911995 1.056219 9.182790
v 3.911995 1.057071 9.182790
v 3.912522 1.056219 9.181756
v 3.912522 1.057071 9.181756
v 3.913341 1.056219 9.180937
v 3.913341 1.057071 9.180937
v 3.914374 1.056219 9.180410
v 3.914374 1.057071 9.180410
v 3.915519 1.056219 9.180229
v 3.915519 1.057071 9.180229
v 3.916665 1.056219 9.180410
v 3.916665 1.057071 9.180410
v 3.917697 1.056219 9.180937
v 3.917697 1.057071 9.180937
v 3.918517 1.056219 9.181756
v 3.918517 1.057071 9.181756
v 3.919044 1.056219 9.182790
v 3.919044 1.057071 9.182790
v 3.919225 1.056219 9.183934
v 3.919225 1.057071 9.183934
v 3.919044 1.056219 9.185080
v 3.919044 1.057071 9.185080
v 3.918517 1.056219 9.186112
v 3.918517 1.057071 9.186112
v 3.917697 1.056219 9.186933
v 3.917697 1.057071 9.186933
v 3.916665 1.056219 9.187459
v 3.916665 1.057071 9.187459
v 3.915519 1.056219 9.187640
v 3.915519 1.057071 9.187640
v 3.914374 1.056219 9.187459
v 3.914374 1.057071 9.187459
vn -0.0000 1.0000 -0.0000
vn -1.0000 -0.0000 -0.0000
vn -0.0000 0.4669 -0.8843
vn -0.1596 0.0912 -0.9830
vn 0.1702 0.2919 -0.9412
vn -0.0000 -1.0000 -0.0000
vn -0.0000 -0.3177 -0.9482
vn -0.1702 -0.2919 -0.9412
vn 0.1595 -0.0958 -0.9825
vn -0.1905 -0.0001 0.9817
vn -0.4655 -0.0000 0.8851
vn -0.1905 0.0001 0.9817
vn -0.7069 -0.0000 0.7073
vn -0.9134 -0.0000 0.4071
vn -0.2072 0.2929 -0.9334
vn -0.2072 -0.2929 -0.9334
vn 0.2072 0.2929 -0.9334
vn 0.9134 -0.0000 0.4071
vn 0.2072 -0.2929 -0.9334
vn 0.7069 -0.0000 0.7073
vn 0.4655 -0.0000 0.8851
vn 0.2286 -0.0000 0.9735
vn -0.0000 -0.0000 1.0000
vn -0.2663 -0.0001 0.9639
vn -0.2663 0.0001 0.9639
vn 0.1495 0.2926 -0.9445
vn -0.1495 -0.2926 -0.9445
vn -0.0000 0.5435 0.8394
vn 0.1628 -0.0764 0.9837
vn -0.1861 0.2920 0.9382
vn -0.0000 0.9993 0.0364
vn 0.1861 -0.2919 0.9382
vn -0.1627 0.0693 0.9842
vn 0.1304 -0.0001 -0.9915
vn 0.3958 -0.0000 -0.9183
vn 0.1304 0.0001 -0.9915
vn 0.6353 -0.0000 -0.7722
vn 0.8808 -0.0000 -0.4734
vn 0.2516 0.2929 0.9225
vn 0.2516 -0.2929 0.9225
vn -0.2515 0.2929 0.9225
vn -0.8808 -0.0000 -0.4734
vn -0.2515 -0.2929 0.9225
vn -0.6353 -0.0000 -0.7722
vn -0.3958 -0.0000 -0.9183
vn -0.1886 -0.0000 -0.9821
vn -0.0000 -0.0000 -1.0000
vn 0.2462 -0.0001 -0.9692
vn 0.2462 0.0001 -0.9692
vn -0.1495 0.2926 0.9445
vn 0.1495 -0.2926 0.9445
vn -0.9511 -0.0000 0.3090
vn -1.0000 -0.0000 0.0001
vn -0.8090 -0.0000 0.5878
vn -0.5878 -0.0000 0.8090
vn -0.3090 -0.0000 0.9511
vn 0.3090 -0.0000 0.9511
vn 0.5878 -0.0000 0.8090
vn 0.8090 -0.0000 0.5878
vn 0.9511 -0.0000 0.3090
vn 1.0000 -0.0000 -0.0000
vn 0.9511 -0.0000 -0.3090
vn 0.8090 -0.0000 -0.5878
vn 0.5878 -0.0000 -0.8090
vn 0.3090 -0.0000 -0.9511
vn -0.3090 -0.0000 -0.9511
vn -0.5878 -0.0000 -0.8090
vn -0.8090 -0.0000 -0.5878
vn -0.9511 -0.0000 -0.3090
vn -1.0000 -0.0000 -0.0001
vn -0.3091 -0.0001 0.9510
vn -0.3091 0.0001 0.9510
vn -0.3089 0.0001 0.9511
vn -0.3089 -0.0001 0.9511
vn -0.0000 0.7941 0.6078
vn -0.0000 -0.6023 0.7983
vn -0.0000 -0.8284 0.5602
vn -0.0000 -0.9703 0.2419
vn -0.0000 -0.9703 -0.2419
vn -0.0000 -0.8284 -0.5602
vn -0.0000 -0.6023 -0.7983
vn -0.0000 -0.3167 -0.9485
vn -0.0000 0.3167 -0.9485
vn -0.0000 0.6023 -0.7983
vn -0.0000 0.8284 -0.5602
vn -0.0000 0.9703 -0.2419
vn -0.0000 0.9703 0.2419
vn -0.0000 0.8284 0.5602
vn -0.0000 0.6023 0.7983
vn -0.0000 0.3167 0.9485
vn -0.0000 -0.8933 0.4494
vn 1.0000 0.0001 -0.0001
vn 1.0000 -0.0001 -0.0001
vn 1.0000 -0.0001 0.0001
vn 1.0000 0.0001 0.0001
vt 0.626409 0.935592
vt 0.648603 0.892034
vt 0.500000 0.850000
vt 0.591842 0.970159
vt 0.548284 0.992353
vt 0.500000 1.000000
vt 0.451716 0.992353
vt 0.408159 0.970159
vt 0.373591 0.935591
vt 0.351397 0.892034
vt 0.343750 0.843750
vt 0.351397 0.795466
vt 0.373591 0.751909
vt 0.408159 0.717341
vt 0.451716 0.695147
vt 0.500000 0.687500
vt 0.548284 0.695147
vt 0.591841 0.717341
vt 0.626409 0.751909
vt 0.648603 0.795466
vt 0.656250 0.843750
vt 0.648603 0.107966
vt 0.626409 0.064409
vt 0.500000 0.162500
vt 0.591841 0.029841
vt 0.548284 0.007647
vt 0.500000 0.000000
vt 0.500000 0.312500
vt 0.548284 0.304853
vt 0.591842 0.282659
vt 0.626409 0.248092
vt 0.648603 0.204534
vt 0.656250 0.156250
vt 0.375000 0.687500
vt 0.387500 0.687500
vt 0.387500 0.311560
vt 0.375000 0.311560
vt 0.400000 0.687500
vt 0.400000 0.311560
vt 0.412500 0.687500
vt 0.412500 0.311560
vt 0.425000 0.687500
vt 0.425000 0.311560
vt 0.550000 0.687500
vt 0.562500 0.687500
vt 0.562500 0.311560
vt 0.550000 0.311560
vt 0.575000 0.687500
vt 0.575000 0.311560
vt 0.587500 0.687500
vt 0.587500 0.311560
vt 0.600000 0.687500
vt 0.600000 0.311560
vt 0.612500 0.687500
vt 0.612500 0.311560
vt 0.625000 0.687500
vt 0.625000 0.311560
vt 0.050000 0.000000
vt 0.000000 0.000000
vt 0.000000 0.250000
vt 0.050000 0.250000
vt 0.100000 0.000000
vt 0.100000 0.250000
vt 0.150000 0.000000
vt 0.150000 0.250000
vt 0.200000 0.000000
vt 0.200000 0.250000
vt 0.250000 0.000000
vt 0.250000 0.250000
vt 0.300000 0.000000
vt 0.300000 0.250000
vt 0.350000 0.000000
vt 0.350000 0.250000
vt 0.400000 0.000000
vt 0.400000 0.250000
vt 0.450000 0.000000
vt 0.450000 0.250000
vt 0.500000 0.000000
vt 0.500000 0.250000
vt 0.550000 0.000000
vt 0.550000 0.250000
vt 0.600000 0.000000
vt 0.600000 0.250000
vt 0.650000 0.000000
vt 0.650000 0.250000
vt 0.700000 0.000000
vt 0.700000 0.250000
vt 0.750000 0.000000
vt 0.750000 0.250000
vt 0.800000 0.000000
vt 0.800000 0.250000
vt 0.850000 0.000000
vt 0.850000 0.250000
vt 0.900000 0.000000
vt 0.900000 0.250000
vt 0.950000 0.000000
vt 0.950000 0.250000
vt 1.000000 0.000000
vt 1.000000 0.250000
vt 0.451716 0.304853
vt 0.408159 0.282659
vt 0.373591 0.248091
vt 0.351397 0.204534
vt 0.343750 0.156250
vt 0.351397 0.107966
vt 0.373591 0.064409
vt 0.408159 0.029841
vt 0.451716 0.007647
vt 0.437500 0.311560
vt 0.437500 0.687500
vt 0.450000 0.311560
vt 0.450000 0.687500
vt 0.462500 0.311560
vt 0.462500 0.687500
vt 0.475000 0.311560
vt 0.475000 0.687500
vt 0.487500 0.311560
vt 0.487500 0.687500
vt 0.500000 0.311560
vt 0.500000 0.687500
vt 0.512500 0.311560
vt 0.512500 0.687500
vt 0.525000 0.311560
vt 0.525000 0.687500
vt 0.537500 0.311560
vt 0.537500 0.687500
vt 0.000000 0.500000
vt 0.050000 0.500000
vt 0.100000 0.500000
vt 0.150000 0.500000
vt 0.200000 0.500000
vt 0.250000 0.500000
vt 0.300000 0.500000
vt 0.350000 0.500000
vt 0.400000 0.500000
vt 0.450000 0.500000
vt 0.500000 0.500000
vt 0.550000 0.500000
vt 0.600000 0.500000
vt 0.650000 0.500000
vt 0.700000 0.500000
vt 0.750000 0.500000
vt 0.800000 0.500000
vt 0.850000 0.500000
vt 0.900000 0.500000
vt 0.950000 0.500000
vt 1.000000 0.500000
vt 0.000000 0.750000
vt 0.050000 0.750000
vt 0.100000 0.750000
vt 0.150000 0.750000
vt 0.200000 0.750000
vt 0.250000 0.750000
vt 0.300000 0.750000
vt 0.350000 0.750000
vt 0.400000 0.750000
vt 0.450000 0.750000
vt 0.500000 0.750000
vt 0.550000 0.750000
vt 0.600000 0.750000
vt 0.650000 0.750000
vt 0.700000 0.750000
vt 0.750000 0.750000
vt 0.800000 0.750000
vt 0.850000 0.750000
vt 0.900000 0.750000
vt 0.950000 0.750000
vt 1.000000 0.750000
vt 0.000000 1.000000
vt 0.050000 1.000000
vt 0.100000 1.000000
vt 0.150000 1.000000
vt 0.200000 1.000000
vt 0.250000 1.000000
vt 0.300000 1.000000
vt 0.350000 1.000000
vt 0.400000 1.000000
vt 0.450000 1.000000
vt 0.500000 1.000000
vt 0.550000 1.000000
vt 0.600000 1.000000
vt 0.650000 1.000000
vt 0.700000 1.000000
vt 0.750000 1.000000
vt 0.800000 1.000000
vt 0.850000 1.000000
vt 0.900000 1.000000
vt 0.950000 1.000000
vt 1.000000 1.000000
s 0
usemtl lambert69
f 1/1/1 2/2/1 3/3/1
f 4/4/1 1/1/1 3/3/1
f 5/5/1 4/4/1 3/3/1
f 6/6/1 5/5/1 3/3/1
f 7/7/1 6/6/1 3/3/1
f 8/8/1 7/7/1 3/3/1
f 9/9/1 8/8/1 3/3/1
f 10/10/1 9/9/1 3/3/1
f 11/11/1 10/10/1 3/3/1
f 12/12/1 11/11/1 3/3/1
f 13/13/1 12/12/1 3/3/1
f 14/14/1 13/13/1 3/3/1
f 15/15/1 14/14/1 3/3/1
f 16/16/1 15/15/1 3/3/1
f 17/17/1 16/16/1 3/3/1
f 18/18/1 17/17/1 3/3/1
f 19/19/1 18/18/1 3/3/1
f 20/20/1 19/19/1 3/3/1
f 21/21/1 20/20/1 3/3/1
f 2/2/1 21/21/1 3/3/1
f 310/33/6 307/22/6 308/24/6
f 307/22/6 309/23/6 308/24/6
f 311/32/6 310/33/6 308/24/6
f 312/31/6 311/32/6 308/24/6
f 313/30/6 312/31/6 308/24/6
f 314/29/6 313/30/6 308/24/6
f 315/28/6 314/29/6 308/24/6
f 316/100/6 315/28/6 308/24/6
f 317/101/6 316/100/6 308/24/6
f 318/102/6 317/101/6 308/24/6
f 319/103/6 318/102/6 308/24/6
f 320/104/6 319/103/6 308/24/6
f 321/105/6 320/104/6 308/24/6
f 322/106/6 321/105/6 308/24/6
f 323/107/6 322/106/6 308/24/6
f 324/108/6 323/107/6 308/24/6
f 325/27/6 324/108/6 308/24/6
f 326/26/6 325/27/6 308/24/6
f 327/25/6 326/26/6 308/24/6
f 309/23/6 327/25/6 308/24/6
s 1
f 328/34/71 329/36/55 331/37/72
f 328/34/71 330/35/55 329/36/55
f 330/35/55 332/39/54 329/36/55
f 330/35/55 333/38/54 332/39/54
f 333/38/54 334/41/52 332/39/54
f 333/38/54 335/40/52 334/41/52
f 335/40/52 336/43/2 334/41/52
f 335/40/52 337/42/2 336/43/2
f 337/42/2 338/109/69 336/43/2
f 337/42/2 339/110/69 338/109/69
f 339/110/69 340/111/68 338/109/69
f 339/110/69 341/112/68 340/111/68
f 341/112/68 342/113/67 340/111/68
f 341/112/68 343/114/67 342/113/67
f 343/114/67 344/115/66 342/113/67
f 343/114/67 345/116/66 344/115/66
f 345/116/66 346/117/47 344/115/66
f 345/116/66 347/118/47 346/117/47
f 347/118/47 348/119/65 346/117/47
f 347/118/47 349/120/65 348/119/65
f 349/120/65 350/121/64 348/119/65
f 349/120/65 351/122/64 350/121/64
f 351/122/64 352/123/63 350/121/64
f 351/122/64 353/124/63 352/123/63
f 353/124/63 354/125/62 352/123/63
f 353/124/63 355/126/62 354/125/62
f 355/126/62 356/47/61 354/125/62
f 355/126/62 357/44/61 356/47/61
f 357/44/61 358/46/60 356/47/61
f 357/44/61 359/45/60 358/46/60
f 359/45/60 360/49/59 358/46/60
f 359/45/60 361/48/59 360/49/59
f 361/48/59 362/51/58 360/49/59
f 361/48/59 363/50/58 362/51/58
f 363/50/58 364/53/57 362/51/58
f 363/50/58 365/52/57 364/53/57
f 365/52/57 366/55/23 364/53/57
f 365/52/57 367/54/23 366/55/23
f 367/54/23 368/57/73 366/55/23
f 367/54/23 369/56/74 368/57/73
s 0
usemtl lambert66
f 22/1/1 23/2/1 24/3/1
f 25/4/1 22/1/1 24/3/1
f 26/5/1 25/4/1 24/3/1
f 27/6/1 26/5/1 24/3/1
f 28/7/1 27/6/1 24/3/1
f 29/8/1 28/7/1 24/3/1
f 30/9/1 29/8/1 24/3/1
f 31/10/1 30/9/1 24/3/1
f 32/11/1 31/10/1 24/3/1
f 33/12/1 32/11/1 24/3/1
f 34/13/1 33/12/1 24/3/1
f 35/14/1 34/13/1 24/3/1
f 36/15/1 35/14/1 24/3/1
f 37/16/1 36/15/1 24/3/1
f 38/17/1 37/16/1 24/3/1
f 39/18/1 38/17/1 24/3/1
f 40/19/1 39/18/1 24/3/1
f 41/20/1 40/19/1 24/3/1
f 42/21/1 41/20/1 24/3/1
f 23/2/1 42/21/1 24/3/1
f 373/33/6 370/22/6 371/24/6
f 370/22/6 372/23/6 371/24/6
f 374/32/6 373/33/6 371/24/6
f 375/31/6 374/32/6 371/24/6
f 376/30/6 375/31/6 371/24/6
f 377/29/6 376/30/6 371/24/6
f 378/28/6 377/29/6 371/24/6
f 379/100/6 378/28/6 371/24/6
f 380/101/6 379/100/6 371/24/6
f 381/102/6 380/101/6 371/24/6
f 382/103/6 381/102/6 371/24/6
f 383/104/6 382/103/6 371/24/6
f 384/105/6 383/104/6 371/24/6
f 385/106/6 384/105/6 371/24/6
f 386/107/6 385/106/6 371/24/6
f 387/108/6 386/107/6 371/24/6
f 388/27/6 387/108/6 371/24/6
f 389/26/6 388/27/6 371/24/6
f 390/25/6 389/26/6 371/24/6
f 372/23/6 390/25/6 371/24/6
s 1
f 391/34/71 392/36/55 394/37/72
f 391/34/71 393/35/55 392/36/55
f 393/35/55 395/39/54 392/36/55
f 393/35/55 396/38/54 395/39/54
f 396/38/54 397/41/52 395/39/54
f 396/38/54 398/40/52 397/41/52
f 398/40/52 399/43/2 397/41/52
f 398/40/52 400/42/2 399/43/2
f 400/42/2 401/109/69 399/43/2
f 400/42/2 402/110/69 401/109/69
f 402/110/69 403/111/68 401/109/69
f 402/110/69 404/112/68 403/111/68
f 404/112/68 405/113/67 403/111/68
f 404/112/68 406/114/67 405/113/67
f 406/114/67 407/115/66 405/113/67
f 406/114/67 408/116/66 407/115/66
f 408/116/66 409/117/47 407/115/66
f 408/116/66 410/118/47 409/117/47
f 410/118/47 411/119/65 409/117/47
f 410/118/47 412/120/65 411/119/65
f 412/120/65 413/121/64 411/119/65
f 412/120/65 414/122/64 413/121/64
f 414/122/64 415/123/63 413/121/64
f 414/122/64 416/124/63 415/123/63
f 416/124/63 417/125/62 415/123/63
f 416/124/63 418/126/62 417/125/62
f 418/126/62 419/47/61 417/125/62
f 418/126/62 420/44/61 419/47/61
f 420/44/61 421/46/60 419/47/61
f 420/44/61 422/45/60 421/46/60
f 422/45/60 423/49/59 421/46/60
f 422/45/60 424/48/59 423/49/59
f 424/48/59 425/51/58 423/49/59
f 424/48/59 426/50/58 425/51/58
f 426/50/58 427/53/57 425/51/58
f 426/50/58 428/52/57 427/53/57
f 428/52/57 429/55/23 427/53/57
f 428/52/57 430/54/23 429/55/23
f 430/54/23 431/57/73 429/55/23
f 430/54/23 432/56/74 431/57/73
s 0
usemtl lambert67
f 43/1/2 44/2/2 45/3/2
f 46/4/2 43/1/2 45/3/2
f 47/5/2 46/4/2 45/3/2
f 48/6/2 47/5/2 45/3/2
f 49/7/2 48/6/2 45/3/2
f 50/8/2 49/7/2 45/3/2
f 51/9/2 50/8/2 45/3/2
f 52/10/2 51/9/2 45/3/2
f 53/11/2 52/10/2 45/3/2
f 54/12/2 53/11/2 45/3/2
f 55/13/2 54/12/2 45/3/2
f 56/14/2 55/13/2 45/3/2
f 57/15/2 56/14/2 45/3/2
f 58/16/2 57/15/2 45/3/2
f 59/17/2 58/16/2 45/3/2
f 60/18/2 59/17/2 45/3/2
f 61/19/2 60/18/2 45/3/2
f 62/20/2 61/19/2 45/3/2
f 63/21/2 62/20/2 45/3/2
f 44/2/2 63/21/2 45/3/2
f 64/1/2 65/2/2 66/3/2
f 67/4/2 64/1/2 66/3/2
f 68/5/2 67/4/2 66/3/2
f 69/6/2 68/5/2 66/3/2
f 70/7/2 69/6/2 66/3/2
f 71/8/2 70/7/2 66/3/2
f 72/9/2 71/8/2 66/3/2
f 73/10/2 72/9/2 66/3/2
f 74/11/2 73/10/2 66/3/2
f 75/12/2 74/11/2 66/3/2
f 76/13/2 75/12/2 66/3/2
f 77/14/2 76/13/2 66/3/2
f 78/15/2 77/14/2 66/3/2
f 79/16/2 78/15/2 66/3/2
f 80/17/2 79/16/2 66/3/2
f 81/18/2 80/17/2 66/3/2
f 82/19/2 81/18/2 66/3/2
f 83/20/2 82/19/2 66/3/2
f 84/21/2 83/20/2 66/3/2
f 65/2/2 84/21/2 66/3/2
f 85/1/2 86/2/2 87/3/2
f 88/4/2 85/1/2 87/3/2
f 89/5/2 88/4/2 87/3/2
f 90/6/2 89/5/2 87/3/2
f 91/7/2 90/6/2 87/3/2
f 92/8/2 91/7/2 87/3/2
f 93/9/2 92/8/2 87/3/2
f 94/10/2 93/9/2 87/3/2
f 95/11/2 94/10/2 87/3/2
f 96/12/2 95/11/2 87/3/2
f 97/13/2 96/12/2 87/3/2
f 98/14/2 97/13/2 87/3/2
f 99/15/2 98/14/2 87/3/2
f 100/16/2 99/15/2 87/3/2
f 101/17/2 100/16/2 87/3/2
f 102/18/2 101/17/2 87/3/2
f 103/19/2 102/18/2 87/3/2
f 104/20/2 103/19/2 87/3/2
f 105/21/2 104/20/2 87/3/2
f 86/2/2 105/21/2 87/3/2
f 106/1/2 107/2/2 108/3/2
f 109/4/2 106/1/2 108/3/2
f 110/5/2 109/4/2 108/3/2
f 111/6/2 110/5/2 108/3/2
f 112/7/2 111/6/2 108/3/2
f 113/8/2 112/7/2 108/3/2
f 114/9/2 113/8/2 108/3/2
f 115/10/2 114/9/2 108/3/2
f 116/11/2 115/10/2 108/3/2
f 117/12/2 116/11/2 108/3/2
f 118/13/2 117/12/2 108/3/2
f 119/14/2 118/13/2 108/3/2
f 120/15/2 119/14/2 108/3/2
f 121/16/2 120/15/2 108/3/2
f 122/17/2 121/16/2 108/3/2
f 123/18/2 122/17/2 108/3/2
f 124/19/2 123/18/2 108/3/2
f 125/20/2 124/19/2 108/3/2
f 126/21/2 125/20/2 108/3/2
f 107/2/2 126/21/2 108/3/2
f 436/33/61 433/22/61 434/24/61
f 433/22/61 435/23/61 434/24/61
f 437/32/61 436/33/61 434/24/61
f 438/31/61 437/32/61 434/24/61
f 439/30/61 438/31/61 434/24/61
f 440/29/61 439/30/61 434/24/61
f 441/28/61 440/29/61 434/24/61
f 442/100/61 441/28/61 434/24/61
f 443/101/61 442/100/61 434/24/61
f 444/102/61 443/101/61 434/24/61
f 445/103/61 444/102/61 434/24/61
f 446/104/61 445/103/61 434/24/61
f 447/105/61 446/104/61 434/24/61
f 448/106/61 447/105/61 434/24/61
f 449/107/61 448/106/61 434/24/61
f 450/108/61 449/107/61 434/24/61
f 451/27/61 450/108/61 434/24/61
f 452/26/61 451/27/61 434/24/61
f 453/25/61 452/26/61 434/24/61
f 435/23/61 453/25/61 434/24/61
s 1
f 454/34/75 455/36/76 457/37/75
f 454/34/75 456/35/76 455/36/76
f 456/35/76 458/39/77 455/36/76
f 456/35/76 459/38/77 458/39/77
f 459/38/77 460/41/78 458/39/77
f 459/38/77 461/40/78 460/41/78
f 461/40/78 462/43/6 460/41/78
f 461/40/78 463/42/6 462/43/6
f 463/42/6 464/109/79 462/43/6
f 463/42/6 465/110/79 464/109/79
f 465/110/79 466/111/80 464/109/79
f 465/110/79 467/112/80 466/111/80
f 467/112/80 468/113/81 466/111/80
f 467/112/80 469/114/81 468/113/81
f 469/114/81 470/115/82 468/113/81
f 469/114/81 471/116/82 470/115/82
f 471/116/82 472/117/47 470/115/82
f 471/116/82 473/118/47 472/117/47
f 473/118/47 474/119/83 472/117/47
f 473/118/47 475/120/83 474/119/83
f 475/120/83 476/121/84 474/119/83
f 475/120/83 477/122/84 476/121/84
f 477/122/84 478/123/85 476/121/84
f 477/122/84 479/124/85 478/123/85
f 479/124/85 480/125/86 478/123/85
f 479/124/85 481/126/86 480/125/86
f 481/126/86 482/47/1 480/125/86
f 481/126/86 483/44/1 482/47/1
f 483/44/1 484/46/87 482/47/1
f 483/44/1 485/45/87 484/46/87
f 485/45/87 486/49/88 484/46/87
f 485/45/87 487/48/88 486/49/88
f 487/48/88 488/51/89 486/49/88
f 487/48/88 489/50/89 488/51/89
f 489/50/89 490/53/90 488/51/89
f 489/50/89 491/52/90 490/53/90
f 491/52/90 492/55/23 490/53/90
f 491/52/90 493/54/23 492/55/23
f 493/54/23 494/57/91 492/55/23
f 493/54/23 495/56/91 494/57/91
s 0
f 499/33/61 496/22/61 497/24/61
f 496/22/61 498/23/61 497/24/61
f 500/32/61 499/33/61 497/24/61
f 501/31/61 500/32/61 497/24/61
f 502/30/61 501/31/61 497/24/61
f 503/29/61 502/30/61 497/24/61
f 504/28/61 503/29/61 497/24/61
f 505/100/61 504/28/61 497/24/61
f 506/101/61 505/100/61 497/24/61
f 507/102/61 506/101/61 497/24/61
f 508/103/61 507/102/61 497/24/61
f 509/104/61 508/103/61 497/24/61
f 510/105/61 509/104/61 497/24/61
f 511/106/61 510/105/61 497/24/61
f 512/107/61 511/106/61 497/24/61
f 513/108/61 512/107/61 497/24/61
f 514/27/61 513/108/61 497/24/61
f 515/26/61 514/27/61 497/24/61
f 516/25/61 515/26/61 497/24/61
f 498/23/61 516/25/61 497/24/61
s 1
f 517/34/75 518/36/76 520/37/75
f 517/34/75 519/35/76 518/36/76
f 519/35/76 521/39/77 518/36/76
f 519/35/76 522/38/77 521/39/77
f 522/38/77 523/41/78 521/39/77
f 522/38/77 524/40/78 523/41/78
f 524/40/78 525/43/6 523/41/78
f 524/40/78 526/42/6 525/43/6
f 526/42/6 527/109/79 525/43/6
f 526/42/6 528/110/79 527/109/79
f 528/110/79 529/111/80 527/109/79
f 528/110/79 530/112/80 529/111/80
f 530/112/80 531/113/81 529/111/80
f 530/112/80 532/114/81 531/113/81
f 532/114/81 533/115/82 531/113/81
f 532/114/81 534/116/82 533/115/82
f 534/116/82 535/117/47 533/115/82
f 534/116/82 536/118/47 535/117/47
f 536/118/47 537/119/83 535/117/47
f 536/118/47 538/120/83 537/119/83
f 538/120/83 539/121/84 537/119/83
f 538/120/83 540/122/84 539/121/84
f 540/122/84 541/123/85 539/121/84
f 540/122/84 542/124/85 541/123/85
f 542/124/85 543/125/86 541/123/85
f 542/124/85 544/126/86 543/125/86
f 544/126/86 545/47/1 543/125/86
f 544/126/86 546/44/1 545/47/1
f 546/44/1 547/46/87 545/47/1
f 546/44/1 548/45/87 547/46/87
f 548/45/87 549/49/88 547/46/87
f 548/45/87 550/48/88 549/49/88
f 550/48/88 551/51/89 549/49/88
f 550/48/88 552/50/89 551/51/89
f 552/50/89 553/53/90 551/51/89
f 552/50/89 554/52/90 553/53/90
f 554/52/90 555/55/23 553/53/90
f 554/52/90 556/54/23 555/55/23
f 556/54/23 557/57/91 555/55/23
f 556/54/23 558/56/91 557/57/91
s 0
f 562/33/61 559/22/61 560/24/61
f 559/22/61 561/23/61 560/24/61
f 563/32/61 562/33/61 560/24/61
f 564/31/61 563/32/61 560/24/61
f 565/30/61 564/31/61 560/24/61
f 566/29/61 565/30/61 560/24/61
f 567/28/61 566/29/61 560/24/61
f 568/100/61 567/28/61 560/24/61
f 569/101/61 568/100/61 560/24/61
f 570/102/61 569/101/61 560/24/61
f 571/103/61 570/102/61 560/24/61
f 572/104/61 571/103/61 560/24/61
f 573/105/61 572/104/61 560/24/61
f 574/106/61 573/105/61 560/24/61
f 575/107/61 574/106/61 560/24/61
f 576/108/61 575/107/61 560/24/61
f 577/27/61 576/108/61 560/24/61
f 578/26/61 577/27/61 560/24/61
f 579/25/61 578/26/61 560/24/61
f 561/23/61 579/25/61 560/24/61
s 1
f 580/34/75 581/36/76 583/37/75
f 580/34/75 582/35/76 581/36/76
f 582/35/76 584/39/77 581/36/76
f 582/35/76 585/38/77 584/39/77
f 585/38/77 586/41/78 584/39/77
f 585/38/77 587/40/78 586/41/78
f 587/40/78 588/43/6 586/41/78
f 587/40/78 589/42/6 588/43/6
f 589/42/6 590/109/79 588/43/6
f 589/42/6 591/110/79 590/109/79
f 591/110/79 592/111/80 590/109/79
f 591/110/79 593/112/80 592/111/80
f 593/112/80 594/113/81 592/111/80
f 593/112/80 595/114/81 594/113/81
f 595/114/81 596/115/82 594/113/81
f 595/114/81 597/116/82 596/115/82
f 597/116/82 598/117/47 596/115/82
f 597/116/82 599/118/47 598/117/47
f 599/118/47 600/119/83 598/117/47
f 599/118/47 601/120/83 600/119/83
f 601/120/83 602/121/84 600/119/83
f 601/120/83 603/122/84 602/121/84
f 603/122/84 604/123/85 602/121/84
f 603/122/84 605/124/85 604/123/85
f 605/124/85 606/125/86 604/123/85
f 605/124/85 607/126/86 606/125/86
f 607/126/86 608/47/1 606/125/86
f 607/126/86 609/44/1 608/47/1
f 609/44/1 610/46/87 608/47/1
f 609/44/1 611/45/87 610/46/87
f 611/45/87 612/49/88 610/46/87
f 611/45/87 613/48/88 612/49/88
f 613/48/88 614/51/89 612/49/88
f 613/48/88 615/50/89 614/51/89
f 615/50/89 616/53/90 614/51/89
f 615/50/89 617/52/90 616/53/90
f 617/52/90 618/55/23 616/53/90
f 617/52/90 619/54/23 618/55/23
f 619/54/23 620/57/91 618/55/23
f 619/54/23 621/56/91 620/57/91
s 0
f 625/33/61 622/22/61 623/24/61
f 622/22/61 624/23/61 623/24/61
f 626/32/61 625/33/61 623/24/61
f 627/31/61 626/32/61 623/24/61
f 628/30/61 627/31/61 623/24/61
f 629/29/61 628/30/61 623/24/61
f 630/28/61 629/29/61 623/24/61
f 631/100/61 630/28/61 623/24/61
f 632/101/61 631/100/61 623/24/61
f 633/102/61 632/101/61 623/24/61
f 634/103/61 633/102/61 623/24/61
f 635/104/61 634/103/61 623/24/61
f 636/105/61 635/104/61 623/24/61
f 637/106/61 636/105/61 623/24/61
f 638/107/61 637/106/61 623/24/61
f 639/108/61 638/107/61 623/24/61
f 640/27/61 639/108/61 623/24/61
f 641/26/61 640/27/61 623/24/61
f 642/25/61 641/26/61 623/24/61
f 624/23/61 642/25/61 623/24/61
s 1
f 643/34/75 644/36/76 646/37/75
f 643/34/75 645/35/76 644/36/76
f 645/35/76 647/39/77 644/36/76
f 645/35/76 648/38/77 647/39/77
f 648/38/77 649/41/78 647/39/77
f 648/38/77 650/40/78 649/41/78
f 650/40/78 651/43/6 649/41/78
f 650/40/78 652/42/6 651/43/6
f 652/42/6 653/109/79 651/43/6
f 652/42/6 654/110/79 653/109/79
f 654/110/79 655/111/80 653/109/79
f 654/110/79 656/112/80 655/111/80
f 656/112/80 657/113/81 655/111/80
f 656/112/80 658/114/81 657/113/81
f 658/114/81 659/115/82 657/113/81
f 658/114/81 660/116/82 659/115/82
f 660/116/82 661/117/47 659/115/82
f 660/116/82 662/118/47 661/117/47
f 662/118/47 663/119/83 661/117/47
f 662/118/47 664/120/83 663/119/83
f 664/120/83 665/121/84 663/119/83
f 664/120/83 666/122/84 665/121/84
f 666/122/84 667/123/85 665/121/84
f 666/122/84 668/124/85 667/123/85
f 668/124/85 669/125/86 667/123/85
f 668/124/85 670/126/86 669/125/86
f 670/126/86 671/47/1 669/125/86
f 670/126/86 672/44/1 671/47/1
f 672/44/1 673/46/87 671/47/1
f 672/44/1 674/45/87 673/46/87
f 674/45/87 675/49/88 673/46/87
f 674/45/87 676/48/88 675/49/88
f 676/48/88 677/51/89 675/49/88
f 676/48/88 678/50/89 677/51/89
f 678/50/89 679/53/90 677/51/89
f 678/50/89 680/52/90 679/53/90
f 680/52/90 681/55/23 679/53/90
f 680/52/90 682/54/23 681/55/23
f 682/54/23 683/57/91 681/55/23
f 682/54/23 684/56/91 683/57/91
usemtl RombaBlack
f 127/1/1 128/2/1 129/3/3
f 130/4/1 127/1/1 129/3/3
f 131/5/1 130/4/1 129/3/3
f 132/6/4 131/5/1 129/3/3
f 133/17/1 134/16/5 129/3/3
f 135/18/1 133/17/1 129/3/3
f 136/19/1 135/18/1 129/3/3
f 137/20/1 136/19/1 129/3/3
f 138/21/1 137/20/1 129/3/3
f 128/2/1 138/21/1 129/3/3
f 139/22/6 140/23/6 141/24/7
f 140/23/6 142/25/6 141/24/7
f 142/25/6 143/26/6 141/24/7
f 143/26/6 144/27/8 141/24/7
f 145/28/9 146/29/6 141/24/7
f 146/29/6 147/30/6 141/24/7
f 147/30/6 148/31/6 141/24/7
f 148/31/6 149/32/6 141/24/7
f 149/32/6 150/33/6 141/24/7
f 150/33/6 139/22/6 141/24/7
f 151/34/10 152/35/11 153/36/11
f 151/34/10 153/36/11 154/37/12
f 152/35/11 155/38/13 156/39/13
f 152/35/11 156/39/13 153/36/11
f 155/38/13 157/40/14 158/41/14
f 155/38/13 158/41/14 156/39/13
f 157/40/14 159/42/15 160/43/16
f 157/40/14 160/43/16 158/41/14
f 161/44/17 162/45/18 163/46/18
f 161/44/17 163/46/18 164/47/19
f 162/45/18 165/48/20 166/49/20
f 162/45/18 166/49/20 163/46/18
f 165/48/20 167/50/21 168/51/21
f 165/48/20 168/51/21 166/49/20
f 167/50/21 169/52/22 170/53/22
f 167/50/21 170/53/22 168/51/21
f 169/52/22 171/54/23 172/55/23
f 169/52/22 172/55/23 170/53/22
f 171/54/23 173/56/24 174/57/25
f 171/54/23 174/57/25 172/55/23
f 145/28/9 129/3/3 161/44/26
f 129/3/3 145/28/9 132/6/4
f 132/6/4 145/28/9 160/43/27
f 160/43/27 145/28/9 141/24/7
usemtl lambert65
f 175/1/1 176/2/1 177/3/28
f 178/4/1 175/1/1 177/3/28
f 179/5/1 178/4/1 177/3/28
f 180/6/29 179/5/1 177/3/28
f 181/17/1 182/16/30 177/3/28
f 183/18/1 181/17/1 177/3/28
f 184/19/1 183/18/1 177/3/28
f 185/20/1 184/19/1 177/3/28
f 186/21/1 185/20/1 177/3/28
f 176/2/1 186/21/1 177/3/28
f 187/22/6 188/23/6 189/24/31
f 188/23/6 190/25/6 189/24/31
f 190/25/6 191/26/6 189/24/31
f 191/26/6 192/27/32 189/24/31
f 193/28/33 194/29/6 189/24/31
f 194/29/6 195/30/6 189/24/31
f 195/30/6 196/31/6 189/24/31
f 196/31/6 197/32/6 189/24/31
f 197/32/6 198/33/6 189/24/31
f 198/33/6 187/22/6 189/24/31
f 199/34/34 200/35/35 201/36/35
f 199/34/34 201/36/35 202/37/36
f 200/35/35 203/38/37 204/39/37
f 200/35/35 204/39/37 201/36/35
f 203/38/37 205/40/38 206/41/38
f 203/38/37 206/41/38 204/39/37
f 205/40/38 207/42/39 208/43/40
f 205/40/38 208/43/40 206/41/38
f 209/44/41 210/45/42 211/46/42
f 209/44/41 211/46/42 212/47/43
f 210/45/42 213/48/44 214/49/44
f 210/45/42 214/49/44 211/46/42
f 213/48/44 215/50/45 216/51/45
f 213/48/44 216/51/45 214/49/44
f 215/50/45 217/52/46 218/53/46
f 215/50/45 218/53/46 216/51/45
f 217/52/46 219/54/47 220/55/47
f 217/52/46 220/55/47 218/53/46
f 219/54/47 221/56/48 222/57/49
f 219/54/47 222/57/49 220/55/47
f 193/28/33 177/3/28 209/44/50
f 177/3/28 193/28/33 180/6/29
f 180/6/29 193/28/33 208/43/51
f 208/43/51 193/28/33 189/24/31
s 0
usemtl lambert70
f 223/1/1 224/2/1 225/3/1
f 226/4/1 223/1/1 225/3/1
f 227/5/1 226/4/1 225/3/1
f 228/6/1 227/5/1 225/3/1
f 229/7/1 228/6/1 225/3/1
f 230/8/1 229/7/1 225/3/1
f 231/9/1 230/8/1 225/3/1
f 232/10/1 231/9/1 225/3/1
f 233/11/1 232/10/1 225/3/1
f 234/12/1 233/11/1 225/3/1
f 235/13/1 234/12/1 225/3/1
f 236/14/1 235/13/1 225/3/1
f 237/15/1 236/14/1 225/3/1
f 238/16/1 237/15/1 225/3/1
f 239/17/1 238/16/1 225/3/1
f 240/18/1 239/17/1 225/3/1
f 241/19/1 240/18/1 225/3/1
f 242/20/1 241/19/1 225/3/1
f 243/21/1 242/20/1 225/3/1
f 224/2/1 243/21/1 225/3/1
f 688/33/6 685/22/6 686/24/6
f 685/22/6 687/23/6 686/24/6
f 689/32/6 688/33/6 686/24/6
f 690/31/6 689/32/6 686/24/6
f 691/30/6 690/31/6 686/24/6
f 692/29/6 691/30/6 686/24/6
f 693/28/6 692/29/6 686/24/6
f 694/100/6 693/28/6 686/24/6
f 695/101/6 694/100/6 686/24/6
f 696/102/6 695/101/6 686/24/6
f 697/103/6 696/102/6 686/24/6
f 698/104/6 697/103/6 686/24/6
f 699/105/6 698/104/6 686/24/6
f 700/106/6 699/105/6 686/24/6
f 701/107/6 700/106/6 686/24/6
f 702/108/6 701/107/6 686/24/6
f 703/27/6 702/108/6 686/24/6
f 704/26/6 703/27/6 686/24/6
f 705/25/6 704/26/6 686/24/6
f 687/23/6 705/25/6 686/24/6
s 1
f 706/34/71 707/36/55 709/37/72
f 706/34/71 708/35/55 707/36/55
f 708/35/55 710/39/54 707/36/55
f 708/35/55 711/38/54 710/39/54
f 711/38/54 712/41/52 710/39/54
f 711/38/54 713/40/52 712/41/52
f 713/40/52 714/43/2 712/41/52
f 713/40/52 715/42/2 714/43/2
f 715/42/2 716/109/69 714/43/2
f 715/42/2 717/110/69 716/109/69
f 717/110/69 718/111/68 716/109/69
f 717/110/69 719/112/68 718/111/68
f 719/112/68 720/113/67 718/111/68
f 719/112/68 721/114/67 720/113/67
f 721/114/67 722/115/66 720/113/67
f 721/114/67 723/116/66 722/115/66
f 723/116/66 724/117/47 722/115/66
f 723/116/66 725/118/47 724/117/47
f 725/118/47 726/119/65 724/117/47
f 725/118/47 727/120/65 726/119/65
f 727/120/65 728/121/64 726/119/65
f 727/120/65 729/122/64 728/121/64
f 729/122/64 730/123/63 728/121/64
f 729/122/64 731/124/63 730/123/63
f 731/124/63 732/125/62 730/123/63
f 731/124/63 733/126/62 732/125/62
f 733/126/62 734/47/61 732/125/62
f 733/126/62 735/44/61 734/47/61
f 735/44/61 736/46/60 734/47/61
f 735/44/61 737/45/60 736/46/60
f 737/45/60 738/49/59 736/46/60
f 737/45/60 739/48/59 738/49/59
f 739/48/59 740/51/58 738/49/59
f 739/48/59 741/50/58 740/51/58
f 741/50/58 742/53/57 740/51/58
f 741/50/58 743/52/57 742/53/57
f 743/52/57 744/55/23 742/53/57
f 743/52/57 745/54/23 744/55/23
f 745/54/23 746/57/73 744/55/23
f 745/54/23 747/56/74 746/57/73
usemtl lambert68
f 244/58/52 245/59/53 246/60/53
f 244/58/52 246/60/53 247/61/52
f 248/62/54 244/58/52 247/61/52
f 248/62/54 247/61/52 249/63/54
f 250/64/55 248/62/54 249/63/54
f 250/64/55 249/63/54 251/65/55
f 252/66/56 250/64/55 251/65/55
f 252/66/56 251/65/55 253/67/56
f 254/68/23 252/66/56 253/67/56
f 254/68/23 253/67/56 255/69/23
f 256/70/57 254/68/23 255/69/23
f 256/70/57 255/69/23 257/71/57
f 258/72/58 256/70/57 257/71/57
f 258/72/58 257/71/57 259/73/58
f 260/74/59 258/72/58 259/73/58
f 260/74/59 259/73/58 261/75/59
f 262/76/60 260/74/59 261/75/59
f 262/76/60 261/75/59 263/77/60
f 264/78/61 262/76/60 263/77/60
f 264/78/61 263/77/60 265/79/61
f 266/80/62 264/78/61 265/79/61
f 266/80/62 265/79/61 267/81/62
f 268/82/63 266/80/62 267/81/62
f 268/82/63 267/81/62 269/83/63
f 270/84/64 268/82/63 269/83/63
f 270/84/64 269/83/63 271/85/64
f 272/86/65 270/84/64 271/85/64
f 272/86/65 271/85/64 273/87/65
f 274/88/47 272/86/65 273/87/65
f 274/88/47 273/87/65 275/89/47
f 276/90/66 274/88/47 275/89/47
f 276/90/66 275/89/47 277/91/66
f 278/92/67 276/90/66 277/91/66
f 278/92/67 277/91/66 279/93/67
f 280/94/68 278/92/67 279/93/67
f 280/94/68 279/93/67 281/95/68
f 282/96/69 280/94/68 281/95/68
f 282/96/69 281/95/68 283/97/69
f 284/98/70 282/96/69 283/97/69
f 284/98/70 283/97/69 285/99/70
s 0
f 748/61/1 749/127/1 751/128/1
f 748/61/1 750/60/1 749/127/1
f 752/63/1 748/61/1 751/128/1
f 752/63/1 751/128/1 753/129/1
f 754/65/1 752/63/1 753/129/1
f 754/65/1 753/129/1 755/130/1
f 756/67/1 754/65/1 755/130/1
f 756/67/1 755/130/1 757/131/1
f 758/69/1 756/67/1 757/131/1
f 758/69/1 757/131/1 759/132/1
f 760/71/1 758/69/1 759/132/1
f 760/71/1 759/132/1 761/133/1
f 762/73/1 760/71/1 761/133/1
f 762/73/1 761/133/1 763/134/1
f 764/75/1 762/73/1 763/134/1
f 764/75/1 763/134/1 765/135/1
f 766/77/1 764/75/1 765/135/1
f 766/77/1 765/135/1 767/136/1
f 768/79/1 766/77/1 767/136/1
f 768/79/1 767/136/1 769/137/1
f 770/81/1 768/79/1 769/137/1
f 770/81/1 769/137/1 771/138/1
f 772/83/1 770/81/1 771/138/1
f 772/83/1 771/138/1 773/139/1
f 774/85/1 772/83/1 773/139/1
f 774/85/1 773/139/1 775/140/1
f 776/87/1 774/85/1 775/140/1
f 776/87/1 775/140/1 777/141/1
f 778/89/1 776/87/1 777/141/1
f 778/89/1 777/141/1 779/142/1
f 780/91/1 778/89/1 779/142/1
f 780/91/1 779/142/1 781/143/1
f 782/93/1 780/91/1 781/143/1
f 782/93/1 781/143/1 783/144/1
f 784/95/1 782/93/1 783/144/1
f 784/95/1 783/144/1 785/145/1
f 786/97/1 784/95/1 785/145/1
f 786/97/1 785/145/1 787/146/1
f 788/99/1 786/97/1 787/146/1
f 788/99/1 787/146/1 789/147/1
s 1
f 790/128/62 791/148/92 793/149/62
f 790/128/62 792/127/93 791/148/92
f 794/129/63 790/128/62 793/149/62
f 794/129/63 793/149/62 795/150/63
f 796/130/64 794/129/63 795/150/63
f 796/130/64 795/150/63 797/151/64
f 798/131/65 796/130/64 797/151/64
f 798/131/65 797/151/64 799/152/65
f 800/132/47 798/131/65 799/152/65
f 800/132/47 799/152/65 801/153/47
f 802/133/66 800/132/47 801/153/47
f 802/133/66 801/153/47 803/154/66
f 804/134/67 802/133/66 803/154/66
f 804/134/67 803/154/66 805/155/67
f 806/135/68 804/134/67 805/155/67
f 806/135/68 805/155/67 807/156/68
f 808/136/69 806/135/68 807/156/68
f 808/136/69 807/156/68 809/157/69
f 810/137/2 808/136/69 809/157/69
f 810/137/2 809/157/69 811/158/2
f 812/138/52 810/137/2 811/158/2
f 812/138/52 811/158/2 813/159/52
f 814/139/54 812/138/52 813/159/52
f 814/139/54 813/159/52 815/160/54
f 816/140/55 814/139/54 815/160/54
f 816/140/55 815/160/54 817/161/55
f 818/141/56 816/140/55 817/161/55
f 818/141/56 817/161/55 819/162/56
f 820/142/23 818/141/56 819/162/56
f 820/142/23 819/162/56 821/163/23
f 822/143/57 820/142/23 821/163/23
f 822/143/57 821/163/23 823/164/57
f 824/144/58 822/143/57 823/164/57
f 824/144/58 823/164/57 825/165/58
f 826/145/59 824/144/58 825/165/58
f 826/145/59 825/165/58 827/166/59
f 828/146/60 826/145/59 827/166/59
f 828/146/60 827/166/59 829/167/60
f 830/147/94 828/146/60 829/167/60
f 830/147/94 829/167/60 831/168/95
s 0
f 832/149/6 833/169/6 835/170/6
f 832/149/6 834/148/6 833/169/6
f 836/150/6 832/149/6 835/170/6
f 836/150/6 835/170/6 837/171/6
f 838/151/6 836/150/6 837/171/6
f 838/151/6 837/171/6 839/172/6
f 840/152/6 838/151/6 839/172/6
f 840/152/6 839/172/6 841/173/6
f 842/153/6 840/152/6 841/173/6
f 842/153/6 841/173/6 843/174/6
f 844/154/6 842/153/6 843/174/6
f 844/154/6 843/174/6 845/175/6
f 846/155/6 844/154/6 845/175/6
f 846/155/6 845/175/6 847/176/6
f 848/156/6 846/155/6 847/176/6
f 848/156/6 847/176/6 849/177/6
f 850/157/6 848/156/6 849/177/6
f 850/157/6 849/177/6 851/178/6
f 852/158/6 850/157/6 851/178/6
f 852/158/6 851/178/6 853/179/6
f 854/159/6 852/158/6 853/179/6
f 854/159/6 853/179/6 855/180/6
f 856/160/6 854/159/6 855/180/6
f 856/160/6 855/180/6 857/181/6
f 858/161/6 856/160/6 857/181/6
f 858/161/6 857/181/6 859/182/6
f 860/162/6 858/161/6 859/182/6
f 860/162/6 859/182/6 861/183/6
f 862/163/6 860/162/6 861/183/6
f 862/163/6 861/183/6 863/184/6
f 864/164/6 862/163/6 863/184/6
f 864/164/6 863/184/6 865/185/6
f 866/165/6 864/164/6 865/185/6
f 866/165/6 865/185/6 867/186/6
f 868/166/6 866/165/6 867/186/6
f 868/166/6 867/186/6 869/187/6
f 870/167/6 868/166/6 869/187/6
f 870/167/6 869/187/6 871/188/6
f 872/168/6 870/167/6 871/188/6
f 872/168/6 871/188/6 873/189/6
usemtl pasted__pasted__pasted__pasted__pasted__pasted__Indoor_Metal6
f 286/1/1 287/2/1 288/3/1
f 289/4/1 286/1/1 288/3/1
f 290/5/1 289/4/1 288/3/1
f 291/6/1 290/5/1 288/3/1
f 292/7/1 291/6/1 288/3/1
f 293/8/1 292/7/1 288/3/1
f 294/9/1 293/8/1 288/3/1
f 295/10/1 294/9/1 288/3/1
f 296/11/1 295/10/1 288/3/1
f 297/12/1 296/11/1 288/3/1
f 298/13/1 297/12/1 288/3/1
f 299/14/1 298/13/1 288/3/1
f 300/15/1 299/14/1 288/3/1
f 301/16/1 300/15/1 288/3/1
f 302/17/1 301/16/1 288/3/1
f 303/18/1 302/17/1 288/3/1
f 304/19/1 303/18/1 288/3/1
f 305/20/1 304/19/1 288/3/1
f 306/21/1 305/20/1 288/3/1
f 287/2/1 306/21/1 288/3/1
f 877/33/6 874/22/6 875/24/6
f 874/22/6 876/23/6 875/24/6
f 878/32/6 877/33/6 875/24/6
f 879/31/6 878/32/6 875/24/6
f 880/30/6 879/31/6 875/24/6
f 881/29/6 880/30/6 875/24/6
f 882/28/6 881/29/6 875/24/6
f 883/100/6 882/28/6 875/24/6
f 884/101/6 883/100/6 875/24/6
f 885/102/6 884/101/6 875/24/6
f 886/103/6 885/102/6 875/24/6
f 887/104/6 886/103/6 875/24/6
f 888/105/6 887/104/6 875/24/6
f 889/106/6 888/105/6 875/24/6
f 890/107/6 889/106/6 875/24/6
f 891/108/6 890/107/6 875/24/6
f 892/27/6 891/108/6 875/24/6
f 893/26/6 892/27/6 875/24/6
f 894/25/6 893/26/6 875/24/6
f 876/23/6 894/25/6 875/24/6
s 1
f 895/34/71 896/36/55 898/37/72
f 895/34/71 897/35/55 896/36/55
f 897/35/55 899/39/54 896/36/55
f 897/35/55 900/38/54 899/39/54
f 900/38/54 901/41/52 899/39/54
f 900/38/54 902/40/52 901/41/52
f 902/40/52 903/43/2 901/41/52
f 902/40/52 904/42/2 903/43/2
f 904/42/2 905/109/69 903/43/2
f 904/42/2 906/110/69 905/109/69
f 906/110/69 907/111/68 905/109/69
f 906/110/69 908/112/68 907/111/68
f 908/112/68 909/113/67 907/111/68
f 908/112/68 910/114/67 909/113/67
f 910/114/67 911/115/66 909/113/67
f 910/114/67 912/116/66 911/115/66
f 912/116/66 913/117/47 911/115/66
f 912/116/66 914/118/47 913/117/47
f 914/118/47 915/119/65 913/117/47
f 914/118/47 916/120/65 915/119/65
f 916/120/65 917/121/64 915/119/65
f 916/120/65 918/122/64 917/121/64
f 918/122/64 919/123/63 917/121/64
f 918/122/64 920/124/63 919/123/63
f 920/124/63 921/125/62 919/123/63
f 920/124/63 922/126/62 921/125/62
f 922/126/62 923/47/61 921/125/62
f 922/126/62 924/44/61 923/47/61
f 924/44/61 925/46/60 923/47/61
f 924/44/61 926/45/60 925/46/60
f 926/45/60 927/49/59 925/46/60
f 926/45/60 928/48/59 927/49/59
f 928/48/59 929/51/58 927/49/59
f 928/48/59 930/50/58 929/51/58
f 930/50/58 931/53/57 929/51/58
f 930/50/58 932/52/57 931/53/57
f 932/52/57 933/55/23 931/53/57
f 932/52/57 934/54/23 933/55/23
f 934/54/23 935/57/73 933/55/23
f 934/54/23 936/56/74 935/57/73
